%TF.GenerationSoftware,KiCad,Pcbnew,(6.0.0)*%
%TF.CreationDate,2022-01-02T18:39:14+01:00*%
%TF.ProjectId,esp-door-phone-monitor-v2,6573702d-646f-46f7-922d-70686f6e652d,rev?*%
%TF.SameCoordinates,Original*%
%TF.FileFunction,Soldermask,Bot*%
%TF.FilePolarity,Negative*%
%FSLAX46Y46*%
G04 Gerber Fmt 4.6, Leading zero omitted, Abs format (unit mm)*
G04 Created by KiCad (PCBNEW (6.0.0)) date 2022-01-02 18:39:14*
%MOMM*%
%LPD*%
G01*
G04 APERTURE LIST*
G04 Aperture macros list*
%AMRoundRect*
0 Rectangle with rounded corners*
0 $1 Rounding radius*
0 $2 $3 $4 $5 $6 $7 $8 $9 X,Y pos of 4 corners*
0 Add a 4 corners polygon primitive as box body*
4,1,4,$2,$3,$4,$5,$6,$7,$8,$9,$2,$3,0*
0 Add four circle primitives for the rounded corners*
1,1,$1+$1,$2,$3*
1,1,$1+$1,$4,$5*
1,1,$1+$1,$6,$7*
1,1,$1+$1,$8,$9*
0 Add four rect primitives between the rounded corners*
20,1,$1+$1,$2,$3,$4,$5,0*
20,1,$1+$1,$4,$5,$6,$7,0*
20,1,$1+$1,$6,$7,$8,$9,0*
20,1,$1+$1,$8,$9,$2,$3,0*%
G04 Aperture macros list end*
%ADD10RoundRect,0.250001X0.799999X-0.799999X0.799999X0.799999X-0.799999X0.799999X-0.799999X-0.799999X0*%
%ADD11C,2.100000*%
%ADD12C,1.524000*%
%ADD13RoundRect,0.250001X-0.799999X0.799999X-0.799999X-0.799999X0.799999X-0.799999X0.799999X0.799999X0*%
%ADD14R,1.700000X1.700000*%
%ADD15O,1.700000X1.700000*%
%ADD16RoundRect,0.250000X0.450000X-0.350000X0.450000X0.350000X-0.450000X0.350000X-0.450000X-0.350000X0*%
%ADD17R,0.600000X1.200000*%
%ADD18RoundRect,0.250000X-0.450000X0.350000X-0.450000X-0.350000X0.450000X-0.350000X0.450000X0.350000X0*%
%ADD19R,0.600000X1.100000*%
%ADD20RoundRect,0.250000X-0.325000X-0.450000X0.325000X-0.450000X0.325000X0.450000X-0.325000X0.450000X0*%
G04 APERTURE END LIST*
D10*
%TO.C,J2*%
X175768000Y-110236000D03*
D11*
X175768000Y-105636000D03*
%TD*%
D12*
%TO.C,K1*%
X141732000Y-105410000D03*
X141732000Y-100330000D03*
X141732000Y-97790000D03*
X141732000Y-95250000D03*
X136652000Y-95250000D03*
X136652000Y-97790000D03*
X136652000Y-100330000D03*
X136652000Y-105410000D03*
%TD*%
D13*
%TO.C,J1*%
X175768000Y-87348000D03*
D11*
X175768000Y-91948000D03*
X175768000Y-96548000D03*
X175768000Y-101148000D03*
%TD*%
D14*
%TO.C,J3*%
X131572000Y-87376000D03*
D15*
X129032000Y-87376000D03*
X126492000Y-87376000D03*
X123952000Y-87376000D03*
X121412000Y-87376000D03*
X118872000Y-87376000D03*
%TD*%
D16*
%TO.C,R6*%
X125476000Y-97012000D03*
X125476000Y-95012000D03*
%TD*%
D17*
%TO.C,Q3*%
X138242000Y-98826000D03*
X140142000Y-98826000D03*
X139192000Y-101326000D03*
%TD*%
D16*
%TO.C,R5*%
X119380000Y-103616000D03*
X119380000Y-101616000D03*
%TD*%
D18*
%TO.C,R3*%
X117348000Y-101616000D03*
X117348000Y-103616000D03*
%TD*%
D19*
%TO.C,Q1*%
X125542000Y-101516000D03*
X127442000Y-101516000D03*
X126492000Y-103716000D03*
%TD*%
%TO.C,Q2*%
X129098000Y-101516000D03*
X130998000Y-101516000D03*
X130048000Y-103716000D03*
%TD*%
D16*
%TO.C,R8*%
X127508000Y-97012000D03*
X127508000Y-95012000D03*
%TD*%
D20*
%TO.C,D4*%
X138167000Y-103124000D03*
X140217000Y-103124000D03*
%TD*%
D18*
%TO.C,R25*%
X121412000Y-95012000D03*
X121412000Y-97012000D03*
%TD*%
%TO.C,R24*%
X139192000Y-95012000D03*
X139192000Y-97012000D03*
%TD*%
D16*
%TO.C,R7*%
X123444000Y-103632000D03*
X123444000Y-101632000D03*
%TD*%
D18*
%TO.C,R4*%
X121412000Y-101616000D03*
X121412000Y-103616000D03*
%TD*%
M02*
