%TF.GenerationSoftware,KiCad,Pcbnew,(6.0.0)*%
%TF.CreationDate,2022-01-02T18:39:14+01:00*%
%TF.ProjectId,esp-door-phone-monitor-v2,6573702d-646f-46f7-922d-70686f6e652d,rev?*%
%TF.SameCoordinates,Original*%
%TF.FileFunction,Legend,Top*%
%TF.FilePolarity,Positive*%
%FSLAX46Y46*%
G04 Gerber Fmt 4.6, Leading zero omitted, Abs format (unit mm)*
G04 Created by KiCad (PCBNEW (6.0.0)) date 2022-01-02 18:39:14*
%MOMM*%
%LPD*%
G01*
G04 APERTURE LIST*
%ADD10C,0.150000*%
%ADD11C,0.120000*%
G04 APERTURE END LIST*
D10*
%TO.C,R15*%
X159647142Y-100020380D02*
X159313809Y-99544190D01*
X159075714Y-100020380D02*
X159075714Y-99020380D01*
X159456666Y-99020380D01*
X159551904Y-99068000D01*
X159599523Y-99115619D01*
X159647142Y-99210857D01*
X159647142Y-99353714D01*
X159599523Y-99448952D01*
X159551904Y-99496571D01*
X159456666Y-99544190D01*
X159075714Y-99544190D01*
X160599523Y-100020380D02*
X160028095Y-100020380D01*
X160313809Y-100020380D02*
X160313809Y-99020380D01*
X160218571Y-99163238D01*
X160123333Y-99258476D01*
X160028095Y-99306095D01*
X161504285Y-99020380D02*
X161028095Y-99020380D01*
X160980476Y-99496571D01*
X161028095Y-99448952D01*
X161123333Y-99401333D01*
X161361428Y-99401333D01*
X161456666Y-99448952D01*
X161504285Y-99496571D01*
X161551904Y-99591809D01*
X161551904Y-99829904D01*
X161504285Y-99925142D01*
X161456666Y-99972761D01*
X161361428Y-100020380D01*
X161123333Y-100020380D01*
X161028095Y-99972761D01*
X160980476Y-99925142D01*
%TO.C,J2*%
X172970380Y-108269333D02*
X173684666Y-108269333D01*
X173827523Y-108316952D01*
X173922761Y-108412190D01*
X173970380Y-108555047D01*
X173970380Y-108650285D01*
X173065619Y-107840761D02*
X173018000Y-107793142D01*
X172970380Y-107697904D01*
X172970380Y-107459809D01*
X173018000Y-107364571D01*
X173065619Y-107316952D01*
X173160857Y-107269333D01*
X173256095Y-107269333D01*
X173398952Y-107316952D01*
X173970380Y-107888380D01*
X173970380Y-107269333D01*
%TO.C,D2*%
X148121904Y-102306380D02*
X148121904Y-101306380D01*
X148360000Y-101306380D01*
X148502857Y-101354000D01*
X148598095Y-101449238D01*
X148645714Y-101544476D01*
X148693333Y-101734952D01*
X148693333Y-101877809D01*
X148645714Y-102068285D01*
X148598095Y-102163523D01*
X148502857Y-102258761D01*
X148360000Y-102306380D01*
X148121904Y-102306380D01*
X149074285Y-101401619D02*
X149121904Y-101354000D01*
X149217142Y-101306380D01*
X149455238Y-101306380D01*
X149550476Y-101354000D01*
X149598095Y-101401619D01*
X149645714Y-101496857D01*
X149645714Y-101592095D01*
X149598095Y-101734952D01*
X149026666Y-102306380D01*
X149645714Y-102306380D01*
%TO.C,C1*%
X159869142Y-105112666D02*
X159916761Y-105160285D01*
X159964380Y-105303142D01*
X159964380Y-105398380D01*
X159916761Y-105541238D01*
X159821523Y-105636476D01*
X159726285Y-105684095D01*
X159535809Y-105731714D01*
X159392952Y-105731714D01*
X159202476Y-105684095D01*
X159107238Y-105636476D01*
X159012000Y-105541238D01*
X158964380Y-105398380D01*
X158964380Y-105303142D01*
X159012000Y-105160285D01*
X159059619Y-105112666D01*
X159964380Y-104160285D02*
X159964380Y-104731714D01*
X159964380Y-104446000D02*
X158964380Y-104446000D01*
X159107238Y-104541238D01*
X159202476Y-104636476D01*
X159250095Y-104731714D01*
%TO.C,R21*%
X149312380Y-89034857D02*
X148836190Y-89368190D01*
X149312380Y-89606285D02*
X148312380Y-89606285D01*
X148312380Y-89225333D01*
X148360000Y-89130095D01*
X148407619Y-89082476D01*
X148502857Y-89034857D01*
X148645714Y-89034857D01*
X148740952Y-89082476D01*
X148788571Y-89130095D01*
X148836190Y-89225333D01*
X148836190Y-89606285D01*
X148407619Y-88653904D02*
X148360000Y-88606285D01*
X148312380Y-88511047D01*
X148312380Y-88272952D01*
X148360000Y-88177714D01*
X148407619Y-88130095D01*
X148502857Y-88082476D01*
X148598095Y-88082476D01*
X148740952Y-88130095D01*
X149312380Y-88701523D01*
X149312380Y-88082476D01*
X149312380Y-87130095D02*
X149312380Y-87701523D01*
X149312380Y-87415809D02*
X148312380Y-87415809D01*
X148455238Y-87511047D01*
X148550476Y-87606285D01*
X148598095Y-87701523D01*
%TO.C,D1*%
X148121904Y-101290380D02*
X148121904Y-100290380D01*
X148360000Y-100290380D01*
X148502857Y-100338000D01*
X148598095Y-100433238D01*
X148645714Y-100528476D01*
X148693333Y-100718952D01*
X148693333Y-100861809D01*
X148645714Y-101052285D01*
X148598095Y-101147523D01*
X148502857Y-101242761D01*
X148360000Y-101290380D01*
X148121904Y-101290380D01*
X149645714Y-101290380D02*
X149074285Y-101290380D01*
X149360000Y-101290380D02*
X149360000Y-100290380D01*
X149264761Y-100433238D01*
X149169523Y-100528476D01*
X149074285Y-100576095D01*
%TO.C,C5*%
X148677333Y-111609142D02*
X148629714Y-111656761D01*
X148486857Y-111704380D01*
X148391619Y-111704380D01*
X148248761Y-111656761D01*
X148153523Y-111561523D01*
X148105904Y-111466285D01*
X148058285Y-111275809D01*
X148058285Y-111132952D01*
X148105904Y-110942476D01*
X148153523Y-110847238D01*
X148248761Y-110752000D01*
X148391619Y-110704380D01*
X148486857Y-110704380D01*
X148629714Y-110752000D01*
X148677333Y-110799619D01*
X149582095Y-110704380D02*
X149105904Y-110704380D01*
X149058285Y-111180571D01*
X149105904Y-111132952D01*
X149201142Y-111085333D01*
X149439238Y-111085333D01*
X149534476Y-111132952D01*
X149582095Y-111180571D01*
X149629714Y-111275809D01*
X149629714Y-111513904D01*
X149582095Y-111609142D01*
X149534476Y-111656761D01*
X149439238Y-111704380D01*
X149201142Y-111704380D01*
X149105904Y-111656761D01*
X149058285Y-111609142D01*
%TO.C,R13*%
X163457142Y-101290380D02*
X163123809Y-100814190D01*
X162885714Y-101290380D02*
X162885714Y-100290380D01*
X163266666Y-100290380D01*
X163361904Y-100338000D01*
X163409523Y-100385619D01*
X163457142Y-100480857D01*
X163457142Y-100623714D01*
X163409523Y-100718952D01*
X163361904Y-100766571D01*
X163266666Y-100814190D01*
X162885714Y-100814190D01*
X164409523Y-101290380D02*
X163838095Y-101290380D01*
X164123809Y-101290380D02*
X164123809Y-100290380D01*
X164028571Y-100433238D01*
X163933333Y-100528476D01*
X163838095Y-100576095D01*
X164742857Y-100290380D02*
X165361904Y-100290380D01*
X165028571Y-100671333D01*
X165171428Y-100671333D01*
X165266666Y-100718952D01*
X165314285Y-100766571D01*
X165361904Y-100861809D01*
X165361904Y-101099904D01*
X165314285Y-101195142D01*
X165266666Y-101242761D01*
X165171428Y-101290380D01*
X164885714Y-101290380D01*
X164790476Y-101242761D01*
X164742857Y-101195142D01*
%TO.C,R18*%
X159647142Y-102560380D02*
X159313809Y-102084190D01*
X159075714Y-102560380D02*
X159075714Y-101560380D01*
X159456666Y-101560380D01*
X159551904Y-101608000D01*
X159599523Y-101655619D01*
X159647142Y-101750857D01*
X159647142Y-101893714D01*
X159599523Y-101988952D01*
X159551904Y-102036571D01*
X159456666Y-102084190D01*
X159075714Y-102084190D01*
X160599523Y-102560380D02*
X160028095Y-102560380D01*
X160313809Y-102560380D02*
X160313809Y-101560380D01*
X160218571Y-101703238D01*
X160123333Y-101798476D01*
X160028095Y-101846095D01*
X161170952Y-101988952D02*
X161075714Y-101941333D01*
X161028095Y-101893714D01*
X160980476Y-101798476D01*
X160980476Y-101750857D01*
X161028095Y-101655619D01*
X161075714Y-101608000D01*
X161170952Y-101560380D01*
X161361428Y-101560380D01*
X161456666Y-101608000D01*
X161504285Y-101655619D01*
X161551904Y-101750857D01*
X161551904Y-101798476D01*
X161504285Y-101893714D01*
X161456666Y-101941333D01*
X161361428Y-101988952D01*
X161170952Y-101988952D01*
X161075714Y-102036571D01*
X161028095Y-102084190D01*
X160980476Y-102179428D01*
X160980476Y-102369904D01*
X161028095Y-102465142D01*
X161075714Y-102512761D01*
X161170952Y-102560380D01*
X161361428Y-102560380D01*
X161456666Y-102512761D01*
X161504285Y-102465142D01*
X161551904Y-102369904D01*
X161551904Y-102179428D01*
X161504285Y-102084190D01*
X161456666Y-102036571D01*
X161361428Y-101988952D01*
%TO.C,C8*%
X155043333Y-86815142D02*
X154995714Y-86862761D01*
X154852857Y-86910380D01*
X154757619Y-86910380D01*
X154614761Y-86862761D01*
X154519523Y-86767523D01*
X154471904Y-86672285D01*
X154424285Y-86481809D01*
X154424285Y-86338952D01*
X154471904Y-86148476D01*
X154519523Y-86053238D01*
X154614761Y-85958000D01*
X154757619Y-85910380D01*
X154852857Y-85910380D01*
X154995714Y-85958000D01*
X155043333Y-86005619D01*
X155614761Y-86338952D02*
X155519523Y-86291333D01*
X155471904Y-86243714D01*
X155424285Y-86148476D01*
X155424285Y-86100857D01*
X155471904Y-86005619D01*
X155519523Y-85958000D01*
X155614761Y-85910380D01*
X155805238Y-85910380D01*
X155900476Y-85958000D01*
X155948095Y-86005619D01*
X155995714Y-86100857D01*
X155995714Y-86148476D01*
X155948095Y-86243714D01*
X155900476Y-86291333D01*
X155805238Y-86338952D01*
X155614761Y-86338952D01*
X155519523Y-86386571D01*
X155471904Y-86434190D01*
X155424285Y-86529428D01*
X155424285Y-86719904D01*
X155471904Y-86815142D01*
X155519523Y-86862761D01*
X155614761Y-86910380D01*
X155805238Y-86910380D01*
X155900476Y-86862761D01*
X155948095Y-86815142D01*
X155995714Y-86719904D01*
X155995714Y-86529428D01*
X155948095Y-86434190D01*
X155900476Y-86386571D01*
X155805238Y-86338952D01*
%TO.C,R14*%
X163457142Y-102560380D02*
X163123809Y-102084190D01*
X162885714Y-102560380D02*
X162885714Y-101560380D01*
X163266666Y-101560380D01*
X163361904Y-101608000D01*
X163409523Y-101655619D01*
X163457142Y-101750857D01*
X163457142Y-101893714D01*
X163409523Y-101988952D01*
X163361904Y-102036571D01*
X163266666Y-102084190D01*
X162885714Y-102084190D01*
X164409523Y-102560380D02*
X163838095Y-102560380D01*
X164123809Y-102560380D02*
X164123809Y-101560380D01*
X164028571Y-101703238D01*
X163933333Y-101798476D01*
X163838095Y-101846095D01*
X165266666Y-101893714D02*
X165266666Y-102560380D01*
X165028571Y-101512761D02*
X164790476Y-102227047D01*
X165409523Y-102227047D01*
%TO.C,D3*%
X145073904Y-101290380D02*
X145073904Y-100290380D01*
X145312000Y-100290380D01*
X145454857Y-100338000D01*
X145550095Y-100433238D01*
X145597714Y-100528476D01*
X145645333Y-100718952D01*
X145645333Y-100861809D01*
X145597714Y-101052285D01*
X145550095Y-101147523D01*
X145454857Y-101242761D01*
X145312000Y-101290380D01*
X145073904Y-101290380D01*
X145978666Y-100290380D02*
X146597714Y-100290380D01*
X146264380Y-100671333D01*
X146407238Y-100671333D01*
X146502476Y-100718952D01*
X146550095Y-100766571D01*
X146597714Y-100861809D01*
X146597714Y-101099904D01*
X146550095Y-101195142D01*
X146502476Y-101242761D01*
X146407238Y-101290380D01*
X146121523Y-101290380D01*
X146026285Y-101242761D01*
X145978666Y-101195142D01*
%TO.C,R22*%
X147280380Y-89034857D02*
X146804190Y-89368190D01*
X147280380Y-89606285D02*
X146280380Y-89606285D01*
X146280380Y-89225333D01*
X146328000Y-89130095D01*
X146375619Y-89082476D01*
X146470857Y-89034857D01*
X146613714Y-89034857D01*
X146708952Y-89082476D01*
X146756571Y-89130095D01*
X146804190Y-89225333D01*
X146804190Y-89606285D01*
X146375619Y-88653904D02*
X146328000Y-88606285D01*
X146280380Y-88511047D01*
X146280380Y-88272952D01*
X146328000Y-88177714D01*
X146375619Y-88130095D01*
X146470857Y-88082476D01*
X146566095Y-88082476D01*
X146708952Y-88130095D01*
X147280380Y-88701523D01*
X147280380Y-88082476D01*
X146375619Y-87701523D02*
X146328000Y-87653904D01*
X146280380Y-87558666D01*
X146280380Y-87320571D01*
X146328000Y-87225333D01*
X146375619Y-87177714D01*
X146470857Y-87130095D01*
X146566095Y-87130095D01*
X146708952Y-87177714D01*
X147280380Y-87749142D01*
X147280380Y-87130095D01*
%TO.C,R20*%
X152027142Y-98750380D02*
X151693809Y-98274190D01*
X151455714Y-98750380D02*
X151455714Y-97750380D01*
X151836666Y-97750380D01*
X151931904Y-97798000D01*
X151979523Y-97845619D01*
X152027142Y-97940857D01*
X152027142Y-98083714D01*
X151979523Y-98178952D01*
X151931904Y-98226571D01*
X151836666Y-98274190D01*
X151455714Y-98274190D01*
X152408095Y-97845619D02*
X152455714Y-97798000D01*
X152550952Y-97750380D01*
X152789047Y-97750380D01*
X152884285Y-97798000D01*
X152931904Y-97845619D01*
X152979523Y-97940857D01*
X152979523Y-98036095D01*
X152931904Y-98178952D01*
X152360476Y-98750380D01*
X152979523Y-98750380D01*
X153598571Y-97750380D02*
X153693809Y-97750380D01*
X153789047Y-97798000D01*
X153836666Y-97845619D01*
X153884285Y-97940857D01*
X153931904Y-98131333D01*
X153931904Y-98369428D01*
X153884285Y-98559904D01*
X153836666Y-98655142D01*
X153789047Y-98702761D01*
X153693809Y-98750380D01*
X153598571Y-98750380D01*
X153503333Y-98702761D01*
X153455714Y-98655142D01*
X153408095Y-98559904D01*
X153360476Y-98369428D01*
X153360476Y-98131333D01*
X153408095Y-97940857D01*
X153455714Y-97845619D01*
X153503333Y-97798000D01*
X153598571Y-97750380D01*
%TO.C,R23*%
X145248380Y-89034857D02*
X144772190Y-89368190D01*
X145248380Y-89606285D02*
X144248380Y-89606285D01*
X144248380Y-89225333D01*
X144296000Y-89130095D01*
X144343619Y-89082476D01*
X144438857Y-89034857D01*
X144581714Y-89034857D01*
X144676952Y-89082476D01*
X144724571Y-89130095D01*
X144772190Y-89225333D01*
X144772190Y-89606285D01*
X144343619Y-88653904D02*
X144296000Y-88606285D01*
X144248380Y-88511047D01*
X144248380Y-88272952D01*
X144296000Y-88177714D01*
X144343619Y-88130095D01*
X144438857Y-88082476D01*
X144534095Y-88082476D01*
X144676952Y-88130095D01*
X145248380Y-88701523D01*
X145248380Y-88082476D01*
X144248380Y-87749142D02*
X144248380Y-87130095D01*
X144629333Y-87463428D01*
X144629333Y-87320571D01*
X144676952Y-87225333D01*
X144724571Y-87177714D01*
X144819809Y-87130095D01*
X145057904Y-87130095D01*
X145153142Y-87177714D01*
X145200761Y-87225333D01*
X145248380Y-87320571D01*
X145248380Y-87606285D01*
X145200761Y-87701523D01*
X145153142Y-87749142D01*
%TO.C,R10*%
X167775142Y-102052380D02*
X167441809Y-101576190D01*
X167203714Y-102052380D02*
X167203714Y-101052380D01*
X167584666Y-101052380D01*
X167679904Y-101100000D01*
X167727523Y-101147619D01*
X167775142Y-101242857D01*
X167775142Y-101385714D01*
X167727523Y-101480952D01*
X167679904Y-101528571D01*
X167584666Y-101576190D01*
X167203714Y-101576190D01*
X168727523Y-102052380D02*
X168156095Y-102052380D01*
X168441809Y-102052380D02*
X168441809Y-101052380D01*
X168346571Y-101195238D01*
X168251333Y-101290476D01*
X168156095Y-101338095D01*
X169346571Y-101052380D02*
X169441809Y-101052380D01*
X169537047Y-101100000D01*
X169584666Y-101147619D01*
X169632285Y-101242857D01*
X169679904Y-101433333D01*
X169679904Y-101671428D01*
X169632285Y-101861904D01*
X169584666Y-101957142D01*
X169537047Y-102004761D01*
X169441809Y-102052380D01*
X169346571Y-102052380D01*
X169251333Y-102004761D01*
X169203714Y-101957142D01*
X169156095Y-101861904D01*
X169108476Y-101671428D01*
X169108476Y-101433333D01*
X169156095Y-101242857D01*
X169203714Y-101147619D01*
X169251333Y-101100000D01*
X169346571Y-101052380D01*
%TO.C,R16*%
X159647142Y-101290380D02*
X159313809Y-100814190D01*
X159075714Y-101290380D02*
X159075714Y-100290380D01*
X159456666Y-100290380D01*
X159551904Y-100338000D01*
X159599523Y-100385619D01*
X159647142Y-100480857D01*
X159647142Y-100623714D01*
X159599523Y-100718952D01*
X159551904Y-100766571D01*
X159456666Y-100814190D01*
X159075714Y-100814190D01*
X160599523Y-101290380D02*
X160028095Y-101290380D01*
X160313809Y-101290380D02*
X160313809Y-100290380D01*
X160218571Y-100433238D01*
X160123333Y-100528476D01*
X160028095Y-100576095D01*
X161456666Y-100290380D02*
X161266190Y-100290380D01*
X161170952Y-100338000D01*
X161123333Y-100385619D01*
X161028095Y-100528476D01*
X160980476Y-100718952D01*
X160980476Y-101099904D01*
X161028095Y-101195142D01*
X161075714Y-101242761D01*
X161170952Y-101290380D01*
X161361428Y-101290380D01*
X161456666Y-101242761D01*
X161504285Y-101195142D01*
X161551904Y-101099904D01*
X161551904Y-100861809D01*
X161504285Y-100766571D01*
X161456666Y-100718952D01*
X161361428Y-100671333D01*
X161170952Y-100671333D01*
X161075714Y-100718952D01*
X161028095Y-100766571D01*
X160980476Y-100861809D01*
%TO.C,U2*%
X145034095Y-109688380D02*
X145034095Y-110497904D01*
X145081714Y-110593142D01*
X145129333Y-110640761D01*
X145224571Y-110688380D01*
X145415047Y-110688380D01*
X145510285Y-110640761D01*
X145557904Y-110593142D01*
X145605523Y-110497904D01*
X145605523Y-109688380D01*
X146034095Y-109783619D02*
X146081714Y-109736000D01*
X146176952Y-109688380D01*
X146415047Y-109688380D01*
X146510285Y-109736000D01*
X146557904Y-109783619D01*
X146605523Y-109878857D01*
X146605523Y-109974095D01*
X146557904Y-110116952D01*
X145986476Y-110688380D01*
X146605523Y-110688380D01*
%TO.C,R12*%
X167775142Y-100528380D02*
X167441809Y-100052190D01*
X167203714Y-100528380D02*
X167203714Y-99528380D01*
X167584666Y-99528380D01*
X167679904Y-99576000D01*
X167727523Y-99623619D01*
X167775142Y-99718857D01*
X167775142Y-99861714D01*
X167727523Y-99956952D01*
X167679904Y-100004571D01*
X167584666Y-100052190D01*
X167203714Y-100052190D01*
X168727523Y-100528380D02*
X168156095Y-100528380D01*
X168441809Y-100528380D02*
X168441809Y-99528380D01*
X168346571Y-99671238D01*
X168251333Y-99766476D01*
X168156095Y-99814095D01*
X169108476Y-99623619D02*
X169156095Y-99576000D01*
X169251333Y-99528380D01*
X169489428Y-99528380D01*
X169584666Y-99576000D01*
X169632285Y-99623619D01*
X169679904Y-99718857D01*
X169679904Y-99814095D01*
X169632285Y-99956952D01*
X169060857Y-100528380D01*
X169679904Y-100528380D01*
%TO.C,R17*%
X159647142Y-98750380D02*
X159313809Y-98274190D01*
X159075714Y-98750380D02*
X159075714Y-97750380D01*
X159456666Y-97750380D01*
X159551904Y-97798000D01*
X159599523Y-97845619D01*
X159647142Y-97940857D01*
X159647142Y-98083714D01*
X159599523Y-98178952D01*
X159551904Y-98226571D01*
X159456666Y-98274190D01*
X159075714Y-98274190D01*
X160599523Y-98750380D02*
X160028095Y-98750380D01*
X160313809Y-98750380D02*
X160313809Y-97750380D01*
X160218571Y-97893238D01*
X160123333Y-97988476D01*
X160028095Y-98036095D01*
X160932857Y-97750380D02*
X161599523Y-97750380D01*
X161170952Y-98750380D01*
%TO.C,K1*%
X142692380Y-108942095D02*
X141692380Y-108942095D01*
X142692380Y-108370666D02*
X142120952Y-108799238D01*
X141692380Y-108370666D02*
X142263809Y-108942095D01*
X142692380Y-107418285D02*
X142692380Y-107989714D01*
X142692380Y-107704000D02*
X141692380Y-107704000D01*
X141835238Y-107799238D01*
X141930476Y-107894476D01*
X141978095Y-107989714D01*
%TO.C,J1*%
X177470380Y-94581333D02*
X178184666Y-94581333D01*
X178327523Y-94628952D01*
X178422761Y-94724190D01*
X178470380Y-94867047D01*
X178470380Y-94962285D01*
X178470380Y-93581333D02*
X178470380Y-94152761D01*
X178470380Y-93867047D02*
X177470380Y-93867047D01*
X177613238Y-93962285D01*
X177708476Y-94057523D01*
X177756095Y-94152761D01*
%TO.C,C2*%
X156297333Y-101293142D02*
X156249714Y-101340761D01*
X156106857Y-101388380D01*
X156011619Y-101388380D01*
X155868761Y-101340761D01*
X155773523Y-101245523D01*
X155725904Y-101150285D01*
X155678285Y-100959809D01*
X155678285Y-100816952D01*
X155725904Y-100626476D01*
X155773523Y-100531238D01*
X155868761Y-100436000D01*
X156011619Y-100388380D01*
X156106857Y-100388380D01*
X156249714Y-100436000D01*
X156297333Y-100483619D01*
X156678285Y-100483619D02*
X156725904Y-100436000D01*
X156821142Y-100388380D01*
X157059238Y-100388380D01*
X157154476Y-100436000D01*
X157202095Y-100483619D01*
X157249714Y-100578857D01*
X157249714Y-100674095D01*
X157202095Y-100816952D01*
X156630666Y-101388380D01*
X157249714Y-101388380D01*
%TO.C,C6*%
X171807333Y-95353142D02*
X171759714Y-95400761D01*
X171616857Y-95448380D01*
X171521619Y-95448380D01*
X171378761Y-95400761D01*
X171283523Y-95305523D01*
X171235904Y-95210285D01*
X171188285Y-95019809D01*
X171188285Y-94876952D01*
X171235904Y-94686476D01*
X171283523Y-94591238D01*
X171378761Y-94496000D01*
X171521619Y-94448380D01*
X171616857Y-94448380D01*
X171759714Y-94496000D01*
X171807333Y-94543619D01*
X172664476Y-94448380D02*
X172474000Y-94448380D01*
X172378761Y-94496000D01*
X172331142Y-94543619D01*
X172235904Y-94686476D01*
X172188285Y-94876952D01*
X172188285Y-95257904D01*
X172235904Y-95353142D01*
X172283523Y-95400761D01*
X172378761Y-95448380D01*
X172569238Y-95448380D01*
X172664476Y-95400761D01*
X172712095Y-95353142D01*
X172759714Y-95257904D01*
X172759714Y-95019809D01*
X172712095Y-94924571D01*
X172664476Y-94876952D01*
X172569238Y-94829333D01*
X172378761Y-94829333D01*
X172283523Y-94876952D01*
X172235904Y-94924571D01*
X172188285Y-95019809D01*
%TO.C,J3*%
X133354380Y-87709333D02*
X134068666Y-87709333D01*
X134211523Y-87756952D01*
X134306761Y-87852190D01*
X134354380Y-87995047D01*
X134354380Y-88090285D01*
X133354380Y-87328380D02*
X133354380Y-86709333D01*
X133735333Y-87042666D01*
X133735333Y-86899809D01*
X133782952Y-86804571D01*
X133830571Y-86756952D01*
X133925809Y-86709333D01*
X134163904Y-86709333D01*
X134259142Y-86756952D01*
X134306761Y-86804571D01*
X134354380Y-86899809D01*
X134354380Y-87185523D01*
X134306761Y-87280761D01*
X134259142Y-87328380D01*
%TO.C,R19*%
X155837142Y-98750380D02*
X155503809Y-98274190D01*
X155265714Y-98750380D02*
X155265714Y-97750380D01*
X155646666Y-97750380D01*
X155741904Y-97798000D01*
X155789523Y-97845619D01*
X155837142Y-97940857D01*
X155837142Y-98083714D01*
X155789523Y-98178952D01*
X155741904Y-98226571D01*
X155646666Y-98274190D01*
X155265714Y-98274190D01*
X156789523Y-98750380D02*
X156218095Y-98750380D01*
X156503809Y-98750380D02*
X156503809Y-97750380D01*
X156408571Y-97893238D01*
X156313333Y-97988476D01*
X156218095Y-98036095D01*
X157265714Y-98750380D02*
X157456190Y-98750380D01*
X157551428Y-98702761D01*
X157599047Y-98655142D01*
X157694285Y-98512285D01*
X157741904Y-98321809D01*
X157741904Y-97940857D01*
X157694285Y-97845619D01*
X157646666Y-97798000D01*
X157551428Y-97750380D01*
X157360952Y-97750380D01*
X157265714Y-97798000D01*
X157218095Y-97845619D01*
X157170476Y-97940857D01*
X157170476Y-98178952D01*
X157218095Y-98274190D01*
X157265714Y-98321809D01*
X157360952Y-98369428D01*
X157551428Y-98369428D01*
X157646666Y-98321809D01*
X157694285Y-98274190D01*
X157741904Y-98178952D01*
%TO.C,U1*%
X150638095Y-87590380D02*
X150638095Y-88399904D01*
X150685714Y-88495142D01*
X150733333Y-88542761D01*
X150828571Y-88590380D01*
X151019047Y-88590380D01*
X151114285Y-88542761D01*
X151161904Y-88495142D01*
X151209523Y-88399904D01*
X151209523Y-87590380D01*
X152209523Y-88590380D02*
X151638095Y-88590380D01*
X151923809Y-88590380D02*
X151923809Y-87590380D01*
X151828571Y-87733238D01*
X151733333Y-87828476D01*
X151638095Y-87876095D01*
%TO.C,R11*%
X167748206Y-99004380D02*
X167414873Y-98528190D01*
X167176778Y-99004380D02*
X167176778Y-98004380D01*
X167557730Y-98004380D01*
X167652968Y-98052000D01*
X167700587Y-98099619D01*
X167748206Y-98194857D01*
X167748206Y-98337714D01*
X167700587Y-98432952D01*
X167652968Y-98480571D01*
X167557730Y-98528190D01*
X167176778Y-98528190D01*
X168700587Y-99004380D02*
X168129159Y-99004380D01*
X168414873Y-99004380D02*
X168414873Y-98004380D01*
X168319635Y-98147238D01*
X168224397Y-98242476D01*
X168129159Y-98290095D01*
X169652968Y-99004380D02*
X169081540Y-99004380D01*
X169367254Y-99004380D02*
X169367254Y-98004380D01*
X169272016Y-98147238D01*
X169176778Y-98242476D01*
X169081540Y-98290095D01*
%TO.C,C7*%
X171807333Y-96877142D02*
X171759714Y-96924761D01*
X171616857Y-96972380D01*
X171521619Y-96972380D01*
X171378761Y-96924761D01*
X171283523Y-96829523D01*
X171235904Y-96734285D01*
X171188285Y-96543809D01*
X171188285Y-96400952D01*
X171235904Y-96210476D01*
X171283523Y-96115238D01*
X171378761Y-96020000D01*
X171521619Y-95972380D01*
X171616857Y-95972380D01*
X171759714Y-96020000D01*
X171807333Y-96067619D01*
X172140666Y-95972380D02*
X172807333Y-95972380D01*
X172378761Y-96972380D01*
%TO.C,R9*%
X167997333Y-97480380D02*
X167664000Y-97004190D01*
X167425904Y-97480380D02*
X167425904Y-96480380D01*
X167806857Y-96480380D01*
X167902095Y-96528000D01*
X167949714Y-96575619D01*
X167997333Y-96670857D01*
X167997333Y-96813714D01*
X167949714Y-96908952D01*
X167902095Y-96956571D01*
X167806857Y-97004190D01*
X167425904Y-97004190D01*
X168473523Y-97480380D02*
X168664000Y-97480380D01*
X168759238Y-97432761D01*
X168806857Y-97385142D01*
X168902095Y-97242285D01*
X168949714Y-97051809D01*
X168949714Y-96670857D01*
X168902095Y-96575619D01*
X168854476Y-96528000D01*
X168759238Y-96480380D01*
X168568761Y-96480380D01*
X168473523Y-96528000D01*
X168425904Y-96575619D01*
X168378285Y-96670857D01*
X168378285Y-96908952D01*
X168425904Y-97004190D01*
X168473523Y-97051809D01*
X168568761Y-97099428D01*
X168759238Y-97099428D01*
X168854476Y-97051809D01*
X168902095Y-97004190D01*
X168949714Y-96908952D01*
%TO.C,U3*%
X115096380Y-110127904D02*
X115905904Y-110127904D01*
X116001142Y-110080285D01*
X116048761Y-110032666D01*
X116096380Y-109937428D01*
X116096380Y-109746952D01*
X116048761Y-109651714D01*
X116001142Y-109604095D01*
X115905904Y-109556476D01*
X115096380Y-109556476D01*
X115096380Y-109175523D02*
X115096380Y-108556476D01*
X115477333Y-108889809D01*
X115477333Y-108746952D01*
X115524952Y-108651714D01*
X115572571Y-108604095D01*
X115667809Y-108556476D01*
X115905904Y-108556476D01*
X116001142Y-108604095D01*
X116048761Y-108651714D01*
X116096380Y-108746952D01*
X116096380Y-109032666D01*
X116048761Y-109127904D01*
X116001142Y-109175523D01*
D11*
%TO.C,R15*%
X160517064Y-91413000D02*
X160062936Y-91413000D01*
X160517064Y-89943000D02*
X160062936Y-89943000D01*
%TO.C,D2*%
X149860000Y-97084000D02*
X147000000Y-97084000D01*
X147000000Y-97084000D02*
X147000000Y-99004000D01*
X147000000Y-99004000D02*
X149860000Y-99004000D01*
%TO.C,C1*%
X155268437Y-105436000D02*
X154204000Y-106500437D01*
X158724000Y-109956000D02*
X157524000Y-109956000D01*
X157659563Y-105436000D02*
X158724000Y-106500437D01*
X158724000Y-106500437D02*
X158724000Y-109956000D01*
X154204000Y-106500437D02*
X154204000Y-109956000D01*
X157659563Y-105436000D02*
X157524000Y-105436000D01*
X158024000Y-104696000D02*
X158024000Y-105196000D01*
X158274000Y-104946000D02*
X157774000Y-104946000D01*
X155268437Y-105436000D02*
X155404000Y-105436000D01*
X154204000Y-109956000D02*
X155404000Y-109956000D01*
%TO.C,R21*%
X149595000Y-92228936D02*
X149595000Y-92683064D01*
X148125000Y-92228936D02*
X148125000Y-92683064D01*
%TO.C,D1*%
X147000000Y-96718000D02*
X149860000Y-96718000D01*
X147000000Y-94798000D02*
X147000000Y-96718000D01*
X149860000Y-94798000D02*
X147000000Y-94798000D01*
%TO.C,C5*%
X151630748Y-110009000D02*
X152153252Y-110009000D01*
X151630748Y-111479000D02*
X152153252Y-111479000D01*
%TO.C,R13*%
X164327064Y-92483000D02*
X163872936Y-92483000D01*
X164327064Y-93953000D02*
X163872936Y-93953000D01*
%TO.C,R18*%
X160517064Y-95023000D02*
X160062936Y-95023000D01*
X160517064Y-96493000D02*
X160062936Y-96493000D01*
%TO.C,C8*%
X154948748Y-87403000D02*
X155471252Y-87403000D01*
X154948748Y-88873000D02*
X155471252Y-88873000D01*
%TO.C,R14*%
X163872936Y-95023000D02*
X164327064Y-95023000D01*
X163872936Y-96493000D02*
X164327064Y-96493000D01*
%TO.C,D3*%
X146772000Y-95168000D02*
X144852000Y-95168000D01*
X144852000Y-95168000D02*
X144852000Y-98028000D01*
X146772000Y-98028000D02*
X146772000Y-95168000D01*
%TO.C,R22*%
X146093000Y-92683064D02*
X146093000Y-92228936D01*
X147563000Y-92683064D02*
X147563000Y-92228936D01*
%TO.C,R20*%
X152897064Y-96493000D02*
X152442936Y-96493000D01*
X152897064Y-95023000D02*
X152442936Y-95023000D01*
%TO.C,R23*%
X145531000Y-92683064D02*
X145531000Y-92228936D01*
X144061000Y-92683064D02*
X144061000Y-92228936D01*
%TO.C,R10*%
X168391064Y-95731000D02*
X167936936Y-95731000D01*
X168391064Y-94261000D02*
X167936936Y-94261000D01*
%TO.C,R16*%
X160517064Y-92483000D02*
X160062936Y-92483000D01*
X160517064Y-93953000D02*
X160062936Y-93953000D01*
%TO.C,U2*%
X147442000Y-109582000D02*
X147442000Y-108322000D01*
X151202000Y-102762000D02*
X147442000Y-102762000D01*
X147442000Y-102762000D02*
X147442000Y-104022000D01*
X153452000Y-109582000D02*
X147442000Y-109582000D01*
%TO.C,R12*%
X168391064Y-93699000D02*
X167936936Y-93699000D01*
X168391064Y-92229000D02*
X167936936Y-92229000D01*
%TO.C,R17*%
X160517064Y-87403000D02*
X160062936Y-87403000D01*
X160517064Y-88873000D02*
X160062936Y-88873000D01*
%TO.C,K1*%
X137922000Y-106426000D02*
X140462000Y-106426000D01*
X140462000Y-106426000D02*
X140462000Y-105918000D01*
X140462000Y-105918000D02*
X137922000Y-105918000D01*
X137922000Y-105918000D02*
X137922000Y-106426000D01*
G36*
X137922000Y-106426000D02*
G01*
X140462000Y-106426000D01*
X140462000Y-105918000D01*
X137922000Y-105918000D01*
X137922000Y-106426000D01*
G37*
X135382000Y-106680000D02*
X143002000Y-106680000D01*
X143002000Y-106680000D02*
X143002000Y-91440000D01*
X143002000Y-91440000D02*
X135382000Y-91440000D01*
X135382000Y-91440000D02*
X135382000Y-106680000D01*
%TO.C,C2*%
X156202748Y-103351000D02*
X156725252Y-103351000D01*
X156202748Y-101881000D02*
X156725252Y-101881000D01*
%TO.C,C6*%
X172235252Y-91667000D02*
X171712748Y-91667000D01*
X172235252Y-90197000D02*
X171712748Y-90197000D01*
%TO.C,J3*%
X130302000Y-86046000D02*
X117542000Y-86046000D01*
X130302000Y-86046000D02*
X130302000Y-88706000D01*
X132902000Y-86046000D02*
X132902000Y-87376000D01*
X117542000Y-86046000D02*
X117542000Y-88706000D01*
X131572000Y-86046000D02*
X132902000Y-86046000D01*
X130302000Y-88706000D02*
X117542000Y-88706000D01*
%TO.C,R19*%
X156707064Y-95023000D02*
X156252936Y-95023000D01*
X156707064Y-96493000D02*
X156252936Y-96493000D01*
%TO.C,U1*%
X153940000Y-89388000D02*
X155890000Y-89388000D01*
X153940000Y-94508000D02*
X151990000Y-94508000D01*
X153940000Y-89388000D02*
X151990000Y-89388000D01*
X153940000Y-94508000D02*
X157390000Y-94508000D01*
%TO.C,R11*%
X168391064Y-91667000D02*
X167936936Y-91667000D01*
X168391064Y-90197000D02*
X167936936Y-90197000D01*
%TO.C,C7*%
X172235252Y-92229000D02*
X171712748Y-92229000D01*
X172235252Y-93699000D02*
X171712748Y-93699000D01*
%TO.C,R9*%
X168391064Y-89635000D02*
X167936936Y-89635000D01*
X168391064Y-88165000D02*
X167936936Y-88165000D01*
%TO.C,U3*%
X133024000Y-90686000D02*
X133024000Y-92806000D01*
X116404000Y-106926000D02*
X108784000Y-106926000D01*
X133024000Y-104806000D02*
X133024000Y-106926000D01*
X116404000Y-106926000D02*
X116404000Y-107536000D01*
X132404000Y-90686000D02*
X133024000Y-90686000D01*
X108784000Y-90686000D02*
X116404000Y-90686000D01*
X108784000Y-106926000D02*
X108784000Y-90686000D01*
X133024000Y-106926000D02*
X132404000Y-106926000D01*
%TD*%
M02*
