%TF.GenerationSoftware,KiCad,Pcbnew,(6.0.0)*%
%TF.CreationDate,2022-01-02T18:39:14+01:00*%
%TF.ProjectId,esp-door-phone-monitor-v2,6573702d-646f-46f7-922d-70686f6e652d,rev?*%
%TF.SameCoordinates,Original*%
%TF.FileFunction,Copper,L1,Top*%
%TF.FilePolarity,Positive*%
%FSLAX46Y46*%
G04 Gerber Fmt 4.6, Leading zero omitted, Abs format (unit mm)*
G04 Created by KiCad (PCBNEW (6.0.0)) date 2022-01-02 18:39:14*
%MOMM*%
%LPD*%
G01*
G04 APERTURE LIST*
G04 Aperture macros list*
%AMRoundRect*
0 Rectangle with rounded corners*
0 $1 Rounding radius*
0 $2 $3 $4 $5 $6 $7 $8 $9 X,Y pos of 4 corners*
0 Add a 4 corners polygon primitive as box body*
4,1,4,$2,$3,$4,$5,$6,$7,$8,$9,$2,$3,0*
0 Add four circle primitives for the rounded corners*
1,1,$1+$1,$2,$3*
1,1,$1+$1,$4,$5*
1,1,$1+$1,$6,$7*
1,1,$1+$1,$8,$9*
0 Add four rect primitives between the rounded corners*
20,1,$1+$1,$2,$3,$4,$5,0*
20,1,$1+$1,$4,$5,$6,$7,0*
20,1,$1+$1,$6,$7,$8,$9,0*
20,1,$1+$1,$8,$9,$2,$3,0*%
G04 Aperture macros list end*
%TA.AperFunction,SMDPad,CuDef*%
%ADD10RoundRect,0.250000X0.350000X0.450000X-0.350000X0.450000X-0.350000X-0.450000X0.350000X-0.450000X0*%
%TD*%
%TA.AperFunction,ComponentPad*%
%ADD11RoundRect,0.250001X0.799999X-0.799999X0.799999X0.799999X-0.799999X0.799999X-0.799999X-0.799999X0*%
%TD*%
%TA.AperFunction,ComponentPad*%
%ADD12C,2.100000*%
%TD*%
%TA.AperFunction,SMDPad,CuDef*%
%ADD13RoundRect,0.250000X-0.325000X-0.450000X0.325000X-0.450000X0.325000X0.450000X-0.325000X0.450000X0*%
%TD*%
%TA.AperFunction,SMDPad,CuDef*%
%ADD14RoundRect,0.250000X-0.550000X1.050000X-0.550000X-1.050000X0.550000X-1.050000X0.550000X1.050000X0*%
%TD*%
%TA.AperFunction,SMDPad,CuDef*%
%ADD15RoundRect,0.250000X-0.450000X0.350000X-0.450000X-0.350000X0.450000X-0.350000X0.450000X0.350000X0*%
%TD*%
%TA.AperFunction,SMDPad,CuDef*%
%ADD16RoundRect,0.250000X-0.337500X-0.475000X0.337500X-0.475000X0.337500X0.475000X-0.337500X0.475000X0*%
%TD*%
%TA.AperFunction,SMDPad,CuDef*%
%ADD17RoundRect,0.250000X-0.350000X-0.450000X0.350000X-0.450000X0.350000X0.450000X-0.350000X0.450000X0*%
%TD*%
%TA.AperFunction,SMDPad,CuDef*%
%ADD18RoundRect,0.250000X-0.450000X0.325000X-0.450000X-0.325000X0.450000X-0.325000X0.450000X0.325000X0*%
%TD*%
%TA.AperFunction,SMDPad,CuDef*%
%ADD19RoundRect,0.250000X0.450000X-0.350000X0.450000X0.350000X-0.450000X0.350000X-0.450000X-0.350000X0*%
%TD*%
%TA.AperFunction,SMDPad,CuDef*%
%ADD20R,2.000000X1.500000*%
%TD*%
%TA.AperFunction,SMDPad,CuDef*%
%ADD21R,2.000000X3.800000*%
%TD*%
%TA.AperFunction,ComponentPad*%
%ADD22C,1.524000*%
%TD*%
%TA.AperFunction,ComponentPad*%
%ADD23RoundRect,0.250001X-0.799999X0.799999X-0.799999X-0.799999X0.799999X-0.799999X0.799999X0.799999X0*%
%TD*%
%TA.AperFunction,SMDPad,CuDef*%
%ADD24RoundRect,0.250000X0.337500X0.475000X-0.337500X0.475000X-0.337500X-0.475000X0.337500X-0.475000X0*%
%TD*%
%TA.AperFunction,ComponentPad*%
%ADD25R,1.700000X1.700000*%
%TD*%
%TA.AperFunction,ComponentPad*%
%ADD26O,1.700000X1.700000*%
%TD*%
%TA.AperFunction,SMDPad,CuDef*%
%ADD27RoundRect,0.150000X0.825000X0.150000X-0.825000X0.150000X-0.825000X-0.150000X0.825000X-0.150000X0*%
%TD*%
%TA.AperFunction,SMDPad,CuDef*%
%ADD28R,1.000000X2.500000*%
%TD*%
%TA.AperFunction,SMDPad,CuDef*%
%ADD29R,1.800000X1.000000*%
%TD*%
%TA.AperFunction,ViaPad*%
%ADD30C,0.800000*%
%TD*%
%TA.AperFunction,Conductor*%
%ADD31C,0.250000*%
%TD*%
G04 APERTURE END LIST*
D10*
%TO.P,R15,1*%
%TO.N,Net-(R11-Pad2)*%
X161290000Y-90678000D03*
%TO.P,R15,2*%
%TO.N,Net-(R15-Pad2)*%
X159290000Y-90678000D03*
%TD*%
D11*
%TO.P,J2,1,Pin_1*%
%TO.N,+12V*%
X175768000Y-110236000D03*
D12*
%TO.P,J2,2,Pin_2*%
%TO.N,GND*%
X175768000Y-105636000D03*
%TD*%
D13*
%TO.P,D2,1,K*%
%TO.N,Net-(D2-Pad1)*%
X147835000Y-98044000D03*
%TO.P,D2,2,A*%
%TO.N,Net-(D1-Pad2)*%
X149885000Y-98044000D03*
%TD*%
D14*
%TO.P,C1,1*%
%TO.N,VDD*%
X156464000Y-105896000D03*
%TO.P,C1,2*%
%TO.N,GND*%
X156464000Y-109496000D03*
%TD*%
D15*
%TO.P,R21,1*%
%TO.N,VDD*%
X148860000Y-91456000D03*
%TO.P,R21,2*%
%TO.N,Net-(D1-Pad1)*%
X148860000Y-93456000D03*
%TD*%
D13*
%TO.P,D1,1,K*%
%TO.N,Net-(D1-Pad1)*%
X147835000Y-95758000D03*
%TO.P,D1,2,A*%
%TO.N,Net-(D1-Pad2)*%
X149885000Y-95758000D03*
%TD*%
D16*
%TO.P,C5,1*%
%TO.N,VDD*%
X150854500Y-110744000D03*
%TO.P,C5,2*%
%TO.N,GND*%
X152929500Y-110744000D03*
%TD*%
D10*
%TO.P,R13,1*%
%TO.N,VDD*%
X165100000Y-93218000D03*
%TO.P,R13,2*%
%TO.N,Net-(R13-Pad2)*%
X163100000Y-93218000D03*
%TD*%
%TO.P,R18,1*%
%TO.N,Net-(R13-Pad2)*%
X161290000Y-95758000D03*
%TO.P,R18,2*%
%TO.N,Net-(R16-Pad2)*%
X159290000Y-95758000D03*
%TD*%
D16*
%TO.P,C8,1*%
%TO.N,VDD*%
X154172500Y-88138000D03*
%TO.P,C8,2*%
%TO.N,GND*%
X156247500Y-88138000D03*
%TD*%
D17*
%TO.P,R14,1*%
%TO.N,Net-(R13-Pad2)*%
X163100000Y-95758000D03*
%TO.P,R14,2*%
%TO.N,GND*%
X165100000Y-95758000D03*
%TD*%
D18*
%TO.P,D3,1,K*%
%TO.N,ESP_RINGING_SENSE*%
X145812000Y-96003000D03*
%TO.P,D3,2,A*%
%TO.N,Net-(D2-Pad1)*%
X145812000Y-98053000D03*
%TD*%
D19*
%TO.P,R22,1*%
%TO.N,Net-(D1-Pad1)*%
X146828000Y-93456000D03*
%TO.P,R22,2*%
%TO.N,GND*%
X146828000Y-91456000D03*
%TD*%
D10*
%TO.P,R20,1*%
%TO.N,Net-(R19-Pad2)*%
X153670000Y-95758000D03*
%TO.P,R20,2*%
%TO.N,Net-(D1-Pad2)*%
X151670000Y-95758000D03*
%TD*%
D19*
%TO.P,R23,1*%
%TO.N,ESP_RINGING_SENSE*%
X144796000Y-93456000D03*
%TO.P,R23,2*%
%TO.N,GND*%
X144796000Y-91456000D03*
%TD*%
D10*
%TO.P,R10,1*%
%TO.N,Net-(C7-Pad2)*%
X169164000Y-94996000D03*
%TO.P,R10,2*%
%TO.N,GND*%
X167164000Y-94996000D03*
%TD*%
%TO.P,R16,1*%
%TO.N,Net-(R12-Pad2)*%
X161290000Y-93218000D03*
%TO.P,R16,2*%
%TO.N,Net-(R16-Pad2)*%
X159290000Y-93218000D03*
%TD*%
D20*
%TO.P,U2,1,GND*%
%TO.N,GND*%
X152502000Y-108472000D03*
D21*
%TO.P,U2,2,VO*%
%TO.N,VDD*%
X146202000Y-106172000D03*
D20*
X152502000Y-106172000D03*
%TO.P,U2,3,VI*%
%TO.N,+12V*%
X152502000Y-103872000D03*
%TD*%
D10*
%TO.P,R12,1*%
%TO.N,Net-(C7-Pad2)*%
X169164000Y-92964000D03*
%TO.P,R12,2*%
%TO.N,Net-(R12-Pad2)*%
X167164000Y-92964000D03*
%TD*%
%TO.P,R17,1*%
%TO.N,Net-(R13-Pad2)*%
X161290000Y-88138000D03*
%TO.P,R17,2*%
%TO.N,Net-(R15-Pad2)*%
X159290000Y-88138000D03*
%TD*%
D22*
%TO.P,K1,1*%
%TO.N,VDD*%
X141732000Y-105410000D03*
%TO.P,K1,3*%
%TO.N,SPEAKER_GND_OUT*%
X141732000Y-100330000D03*
%TO.P,K1,4*%
%TO.N,SPEAKER_GND*%
X141732000Y-97790000D03*
%TO.P,K1,5*%
%TO.N,unconnected-(K1-Pad5)*%
X141732000Y-95250000D03*
%TO.P,K1,6*%
%TO.N,unconnected-(K1-Pad6)*%
X136652000Y-95250000D03*
%TO.P,K1,7*%
%TO.N,unconnected-(K1-Pad7)*%
X136652000Y-97790000D03*
%TO.P,K1,8*%
%TO.N,unconnected-(K1-Pad8)*%
X136652000Y-100330000D03*
%TO.P,K1,10*%
%TO.N,Net-(D4-Pad1)*%
X136652000Y-105410000D03*
%TD*%
D23*
%TO.P,J1,1,Pin_1*%
%TO.N,SPEAKER_INPUT*%
X175768000Y-87348000D03*
D12*
%TO.P,J1,2,Pin_2*%
%TO.N,SPEAKER_GND*%
X175768000Y-91948000D03*
%TO.P,J1,3,Pin_3*%
%TO.N,SPEAKER_GND_OUT*%
X175768000Y-96548000D03*
%TO.P,J1,4,Pin_4*%
%TO.N,GND*%
X175768000Y-101148000D03*
%TD*%
D16*
%TO.P,C2,1*%
%TO.N,+12V*%
X155426500Y-102616000D03*
%TO.P,C2,2*%
%TO.N,GND*%
X157501500Y-102616000D03*
%TD*%
D24*
%TO.P,C6,1*%
%TO.N,SPEAKER_INPUT*%
X173011500Y-90932000D03*
%TO.P,C6,2*%
%TO.N,Net-(C6-Pad2)*%
X170936500Y-90932000D03*
%TD*%
D25*
%TO.P,J3,1,Pin_1*%
%TO.N,VDD*%
X131572000Y-87376000D03*
D26*
%TO.P,J3,2,Pin_2*%
%TO.N,ESP_RXD*%
X129032000Y-87376000D03*
%TO.P,J3,3,Pin_3*%
%TO.N,ESP_TXD*%
X126492000Y-87376000D03*
%TO.P,J3,4,Pin_4*%
%TO.N,PGM_DTR*%
X123952000Y-87376000D03*
%TO.P,J3,5,Pin_5*%
%TO.N,PGM_RTS*%
X121412000Y-87376000D03*
%TO.P,J3,6,Pin_6*%
%TO.N,GND*%
X118872000Y-87376000D03*
%TD*%
D10*
%TO.P,R19,1*%
%TO.N,Net-(R16-Pad2)*%
X157480000Y-95758000D03*
%TO.P,R19,2*%
%TO.N,Net-(R19-Pad2)*%
X155480000Y-95758000D03*
%TD*%
D27*
%TO.P,U1,1,VOS*%
%TO.N,unconnected-(U1-Pad1)*%
X156415000Y-93853000D03*
%TO.P,U1,2,-*%
%TO.N,Net-(R16-Pad2)*%
X156415000Y-92583000D03*
%TO.P,U1,3,+*%
%TO.N,Net-(R15-Pad2)*%
X156415000Y-91313000D03*
%TO.P,U1,4,V-*%
%TO.N,GND*%
X156415000Y-90043000D03*
%TO.P,U1,5,NC*%
%TO.N,unconnected-(U1-Pad5)*%
X151465000Y-90043000D03*
%TO.P,U1,6*%
%TO.N,Net-(R19-Pad2)*%
X151465000Y-91313000D03*
%TO.P,U1,7,V+*%
%TO.N,VDD*%
X151465000Y-92583000D03*
%TO.P,U1,8,VOS*%
%TO.N,unconnected-(U1-Pad8)*%
X151465000Y-93853000D03*
%TD*%
D10*
%TO.P,R11,1*%
%TO.N,Net-(C6-Pad2)*%
X169164000Y-90932000D03*
%TO.P,R11,2*%
%TO.N,Net-(R11-Pad2)*%
X167164000Y-90932000D03*
%TD*%
D24*
%TO.P,C7,1*%
%TO.N,SPEAKER_GND*%
X173011500Y-92964000D03*
%TO.P,C7,2*%
%TO.N,Net-(C7-Pad2)*%
X170936500Y-92964000D03*
%TD*%
D10*
%TO.P,R9,1*%
%TO.N,Net-(C6-Pad2)*%
X169164000Y-88900000D03*
%TO.P,R9,2*%
%TO.N,GND*%
X167164000Y-88900000D03*
%TD*%
D28*
%TO.P,U3,1,~{RST}*%
%TO.N,ESP_~{RST}*%
X117404000Y-106406000D03*
%TO.P,U3,2,ADC*%
%TO.N,Net-(R5-Pad1)*%
X119404000Y-106406000D03*
%TO.P,U3,3,EN*%
%TO.N,ESP_EN*%
X121404000Y-106406000D03*
%TO.P,U3,4,GPIO16*%
%TO.N,Net-(R7-Pad1)*%
X123404000Y-106406000D03*
%TO.P,U3,5,GPIO14*%
%TO.N,unconnected-(U3-Pad5)*%
X125404000Y-106406000D03*
%TO.P,U3,6,GPIO12*%
%TO.N,unconnected-(U3-Pad6)*%
X127404000Y-106406000D03*
%TO.P,U3,7,GPIO13*%
%TO.N,unconnected-(U3-Pad7)*%
X129404000Y-106406000D03*
%TO.P,U3,8,VCC*%
%TO.N,VDD*%
X131404000Y-106406000D03*
D29*
%TO.P,U3,9,CS0*%
%TO.N,unconnected-(U3-Pad9)*%
X132904000Y-103806000D03*
%TO.P,U3,10,MISO*%
%TO.N,unconnected-(U3-Pad10)*%
X132904000Y-101806000D03*
%TO.P,U3,11,GPIO9*%
%TO.N,unconnected-(U3-Pad11)*%
X132904000Y-99806000D03*
%TO.P,U3,12,GPIO10*%
%TO.N,unconnected-(U3-Pad12)*%
X132904000Y-97806000D03*
%TO.P,U3,13,MOSI*%
%TO.N,unconnected-(U3-Pad13)*%
X132904000Y-95806000D03*
%TO.P,U3,14,SCLK*%
%TO.N,unconnected-(U3-Pad14)*%
X132904000Y-93806000D03*
D28*
%TO.P,U3,15,GND*%
%TO.N,GND*%
X131404000Y-91206000D03*
%TO.P,U3,16,GPIO15*%
%TO.N,unconnected-(U3-Pad16)*%
X129404000Y-91206000D03*
%TO.P,U3,17,GPIO2*%
%TO.N,Net-(R8-Pad2)*%
X127404000Y-91206000D03*
%TO.P,U3,18,GPIO0*%
%TO.N,ESP_GPIO0*%
X125404000Y-91206000D03*
%TO.P,U3,19,GPIO4*%
%TO.N,ESP_RINGING_SENSE*%
X123404000Y-91206000D03*
%TO.P,U3,20,GPIO5*%
%TO.N,ESP_MUTE_CTRL*%
X121404000Y-91206000D03*
%TO.P,U3,21,GPIO3/RXD*%
%TO.N,ESP_RXD*%
X119404000Y-91206000D03*
%TO.P,U3,22,GPIO1/TXD*%
%TO.N,ESP_TXD*%
X117404000Y-91206000D03*
%TD*%
D30*
%TO.N,VDD*%
X128016000Y-103632000D03*
X150368000Y-106172000D03*
X164100000Y-94488000D03*
X152670000Y-88138000D03*
%TO.N,GND*%
X123952000Y-110236000D03*
X131064000Y-95504000D03*
X149352000Y-104648000D03*
X132588000Y-89916000D03*
X160020000Y-108204000D03*
X169672000Y-105664000D03*
X139700000Y-88392000D03*
X149352000Y-103632000D03*
X123444000Y-96012000D03*
X171196000Y-97536000D03*
X165100000Y-98044000D03*
X149352000Y-108712000D03*
X117856000Y-96012000D03*
X172212000Y-87376000D03*
X149352000Y-107696000D03*
X154432000Y-107696000D03*
%TO.N,+12V*%
X153416000Y-102108000D03*
%TO.N,ESP_EN*%
X121404000Y-106406000D03*
%TO.N,Net-(R5-Pad1)*%
X119404000Y-106406000D03*
%TO.N,ESP_GPIO0*%
X126246003Y-94412375D03*
X129540000Y-100076000D03*
%TO.N,Net-(R7-Pad1)*%
X123404000Y-106406000D03*
%TO.N,Net-(R8-Pad2)*%
X130048000Y-94488000D03*
%TO.N,ESP_RINGING_SENSE*%
X124304498Y-92456000D03*
X142240000Y-91948000D03*
%TO.N,ESP_MUTE_CTRL*%
X121920000Y-93472000D03*
%TO.N,ESP_RXD*%
X120304498Y-90424000D03*
%TO.N,ESP_TXD*%
X118869052Y-89357518D03*
%TO.N,PGM_RTS*%
X127508000Y-100076000D03*
%TO.N,ESP_~{RST}*%
X125476000Y-104140000D03*
X117404000Y-106406000D03*
%TO.N,PGM_DTR*%
X130556000Y-99568000D03*
%TD*%
D31*
%TO.N,VDD*%
X150854500Y-110214500D02*
X150368000Y-109728000D01*
X165100000Y-93218000D02*
X165100000Y-93488000D01*
X151465000Y-92583000D02*
X150511000Y-92583000D01*
X152502000Y-106172000D02*
X156188000Y-106172000D01*
X130556000Y-104648000D02*
X131404000Y-105496000D01*
X150511000Y-92583000D02*
X149384000Y-91456000D01*
X149384000Y-91456000D02*
X148860000Y-91456000D01*
X154172500Y-88138000D02*
X152670000Y-88138000D01*
X144170000Y-108204000D02*
X146202000Y-106172000D01*
X133604000Y-87376000D02*
X134620000Y-88392000D01*
X131404000Y-105496000D02*
X131404000Y-106406000D01*
X150368000Y-106172000D02*
X152502000Y-106172000D01*
X165100000Y-93488000D02*
X164100000Y-94488000D01*
X131572000Y-87376000D02*
X133604000Y-87376000D01*
X133838000Y-106406000D02*
X134620000Y-107188000D01*
X148860000Y-89408000D02*
X148860000Y-91456000D01*
X152670000Y-88138000D02*
X150130000Y-88138000D01*
X134620000Y-107188000D02*
X135636000Y-108204000D01*
X150368000Y-109728000D02*
X150368000Y-106172000D01*
X141732000Y-105410000D02*
X145440000Y-105410000D01*
X135636000Y-108204000D02*
X144170000Y-108204000D01*
X150854500Y-110744000D02*
X150854500Y-110214500D01*
X128016000Y-103632000D02*
X129032000Y-104648000D01*
X145440000Y-105410000D02*
X146202000Y-106172000D01*
X150130000Y-88138000D02*
X148860000Y-89408000D01*
X146202000Y-106172000D02*
X150368000Y-106172000D01*
X165100000Y-93218000D02*
X165370000Y-93218000D01*
X134620000Y-88392000D02*
X134620000Y-107188000D01*
X129032000Y-104648000D02*
X130556000Y-104648000D01*
X131404000Y-106406000D02*
X133838000Y-106406000D01*
X156188000Y-106172000D02*
X156464000Y-105896000D01*
%TO.N,GND*%
X156247500Y-89875500D02*
X156415000Y-90043000D01*
X165100000Y-95758000D02*
X165100000Y-96028000D01*
%TO.N,+12V*%
X152502000Y-103872000D02*
X152502000Y-103530000D01*
X153416000Y-102616000D02*
X153416000Y-102108000D01*
X153416000Y-102616000D02*
X155426500Y-102616000D01*
X152502000Y-103530000D02*
X153416000Y-102616000D01*
%TO.N,SPEAKER_INPUT*%
X173011500Y-90104500D02*
X173011500Y-90932000D01*
X175768000Y-87348000D02*
X173011500Y-90104500D01*
%TO.N,SPEAKER_GND*%
X144780000Y-99568000D02*
X167640000Y-99568000D01*
X141732000Y-97790000D02*
X143002000Y-97790000D01*
X173011500Y-94196500D02*
X173011500Y-92964000D01*
X167640000Y-99568000D02*
X173011500Y-94196500D01*
X143002000Y-97790000D02*
X144780000Y-99568000D01*
X174752000Y-92964000D02*
X173011500Y-92964000D01*
X175768000Y-91948000D02*
X174752000Y-92964000D01*
%TO.N,ESP_GPIO0*%
X126246003Y-94412375D02*
X125404000Y-93570372D01*
X125404000Y-93570372D02*
X125404000Y-91206000D01*
X129540000Y-100076000D02*
X129540000Y-97706372D01*
X129540000Y-97706372D02*
X126246003Y-94412375D01*
%TO.N,Net-(R8-Pad2)*%
X127404000Y-91206000D02*
X127404000Y-91844000D01*
X127404000Y-91844000D02*
X130048000Y-94488000D01*
%TO.N,ESP_RINGING_SENSE*%
X144796000Y-93456000D02*
X144796000Y-94987000D01*
X124304498Y-92456000D02*
X124304498Y-92106498D01*
X124304498Y-92106498D02*
X123404000Y-91206000D01*
X143748000Y-93456000D02*
X142240000Y-91948000D01*
X144796000Y-94987000D02*
X145812000Y-96003000D01*
X144796000Y-93456000D02*
X143748000Y-93456000D01*
%TO.N,ESP_MUTE_CTRL*%
X121404000Y-91206000D02*
X121404000Y-92956000D01*
X121404000Y-92956000D02*
X121920000Y-93472000D01*
%TO.N,ESP_RXD*%
X120304498Y-90424000D02*
X120186000Y-90424000D01*
X120186000Y-90424000D02*
X119404000Y-91206000D01*
%TO.N,ESP_TXD*%
X117856000Y-89408000D02*
X117404000Y-89860000D01*
X118818570Y-89408000D02*
X117856000Y-89408000D01*
X117404000Y-89860000D02*
X117404000Y-91206000D01*
X118869052Y-89357518D02*
X118818570Y-89408000D01*
%TO.N,PGM_RTS*%
X127508000Y-100076000D02*
X127508000Y-97536000D01*
X122228511Y-92256511D02*
X122228511Y-88192511D01*
X127508000Y-97536000D02*
X122228511Y-92256511D01*
X122228511Y-88192511D02*
X121412000Y-87376000D01*
%TO.N,ESP_~{RST}*%
X117404000Y-105100000D02*
X117404000Y-106406000D01*
X118364000Y-104140000D02*
X117404000Y-105100000D01*
X125476000Y-104140000D02*
X118364000Y-104140000D01*
%TO.N,PGM_DTR*%
X130556000Y-96757022D02*
X126492000Y-92693022D01*
X130556000Y-99568000D02*
X130556000Y-96757022D01*
X126492000Y-92693022D02*
X126492000Y-89916000D01*
X126492000Y-89916000D02*
X123952000Y-87376000D01*
%TO.N,Net-(C6-Pad2)*%
X170936500Y-90932000D02*
X169164000Y-90932000D01*
X169164000Y-88900000D02*
X169164000Y-90932000D01*
%TO.N,Net-(C7-Pad2)*%
X169164000Y-94996000D02*
X169164000Y-92964000D01*
X170936500Y-92964000D02*
X168894000Y-92964000D01*
%TO.N,Net-(D1-Pad1)*%
X147860000Y-93456000D02*
X146828000Y-93456000D01*
X148860000Y-93456000D02*
X148336000Y-93456000D01*
X147835000Y-93481000D02*
X147860000Y-93456000D01*
X148343000Y-93463000D02*
X148336000Y-93456000D01*
X148336000Y-93456000D02*
X147860000Y-93456000D01*
X147835000Y-95758000D02*
X147835000Y-93481000D01*
%TO.N,Net-(D1-Pad2)*%
X151670000Y-95758000D02*
X149885000Y-95758000D01*
X149885000Y-98044000D02*
X149885000Y-95758000D01*
%TO.N,Net-(D2-Pad1)*%
X147826000Y-98053000D02*
X147835000Y-98044000D01*
X145812000Y-98053000D02*
X147826000Y-98053000D01*
X145295000Y-98298000D02*
X145050000Y-98053000D01*
%TO.N,Net-(R11-Pad2)*%
X166910000Y-90678000D02*
X167164000Y-90932000D01*
X161290000Y-90678000D02*
X166910000Y-90678000D01*
%TO.N,Net-(R12-Pad2)*%
X161290000Y-92726000D02*
X162576000Y-91440000D01*
X162576000Y-91440000D02*
X165640000Y-91440000D01*
X161290000Y-93218000D02*
X161290000Y-92726000D01*
X161290000Y-93218000D02*
X161290000Y-93488000D01*
X167164000Y-92964000D02*
X167164000Y-92694000D01*
X165640000Y-91440000D02*
X167164000Y-92964000D01*
%TO.N,Net-(R13-Pad2)*%
X160365480Y-89062520D02*
X160365480Y-94833480D01*
X163100000Y-95758000D02*
X163100000Y-93218000D01*
X161290000Y-88138000D02*
X160365480Y-89062520D01*
X161290000Y-95758000D02*
X163100000Y-95758000D01*
X161290000Y-88138000D02*
X161560000Y-88138000D01*
X160365480Y-94833480D02*
X161290000Y-95758000D01*
%TO.N,Net-(R15-Pad2)*%
X159290000Y-90678000D02*
X159290000Y-88138000D01*
X159290000Y-90678000D02*
X158655000Y-91313000D01*
X158655000Y-91313000D02*
X156415000Y-91313000D01*
%TO.N,Net-(R16-Pad2)*%
X158655000Y-92583000D02*
X156415000Y-92583000D01*
X159290000Y-93218000D02*
X158655000Y-92583000D01*
X159290000Y-95758000D02*
X157480000Y-95758000D01*
X159290000Y-93218000D02*
X159290000Y-95758000D01*
%TO.N,Net-(R19-Pad2)*%
X153670000Y-91678000D02*
X153670000Y-95758000D01*
X153305000Y-91313000D02*
X153670000Y-91678000D01*
X153670000Y-95758000D02*
X155480000Y-95758000D01*
X151465000Y-91313000D02*
X153305000Y-91313000D01*
%TO.N,SPEAKER_GND_OUT*%
X173708000Y-96548000D02*
X175768000Y-96548000D01*
X141732000Y-100330000D02*
X169926000Y-100330000D01*
X169926000Y-100330000D02*
X173708000Y-96548000D01*
%TD*%
%TA.AperFunction,Conductor*%
%TO.N,GND*%
G36*
X177466551Y-96765661D02*
G01*
X177522462Y-96809416D01*
X177546000Y-96882747D01*
X177546000Y-100815393D01*
X177525998Y-100883514D01*
X177472342Y-100930007D01*
X177402068Y-100940111D01*
X177337488Y-100910617D01*
X177297481Y-100844807D01*
X177255483Y-100669875D01*
X177252434Y-100660490D01*
X177162375Y-100443067D01*
X177157893Y-100434272D01*
X177046928Y-100253195D01*
X177036470Y-100243733D01*
X177027694Y-100247516D01*
X176140022Y-101135188D01*
X176132408Y-101149132D01*
X176132539Y-101150965D01*
X176136790Y-101157580D01*
X177024650Y-102045440D01*
X177037030Y-102052200D01*
X177044680Y-102046473D01*
X177157893Y-101861728D01*
X177162375Y-101852933D01*
X177252434Y-101635510D01*
X177255483Y-101626125D01*
X177297481Y-101451193D01*
X177332833Y-101389624D01*
X177395860Y-101356941D01*
X177466551Y-101363522D01*
X177522462Y-101407276D01*
X177546000Y-101480607D01*
X177546000Y-105303393D01*
X177525998Y-105371514D01*
X177472342Y-105418007D01*
X177402068Y-105428111D01*
X177337488Y-105398617D01*
X177297481Y-105332807D01*
X177255483Y-105157875D01*
X177252434Y-105148490D01*
X177162375Y-104931067D01*
X177157893Y-104922272D01*
X177046928Y-104741195D01*
X177036470Y-104731733D01*
X177027694Y-104735516D01*
X176140022Y-105623188D01*
X176132408Y-105637132D01*
X176132539Y-105638965D01*
X176136790Y-105645580D01*
X177024650Y-106533440D01*
X177037030Y-106540200D01*
X177044680Y-106534473D01*
X177157893Y-106349728D01*
X177162375Y-106340933D01*
X177252434Y-106123510D01*
X177255483Y-106114125D01*
X177297481Y-105939193D01*
X177332833Y-105877624D01*
X177395860Y-105844941D01*
X177466551Y-105851522D01*
X177522462Y-105895276D01*
X177546000Y-105968607D01*
X177546000Y-109194849D01*
X177525998Y-109262970D01*
X177472342Y-109309463D01*
X177402068Y-109319567D01*
X177337488Y-109290073D01*
X177300476Y-109234725D01*
X177296860Y-109223885D01*
X177259550Y-109112055D01*
X177166478Y-108961652D01*
X177041303Y-108836695D01*
X177022374Y-108825027D01*
X176896968Y-108747725D01*
X176896966Y-108747724D01*
X176890738Y-108743885D01*
X176730254Y-108690655D01*
X176729389Y-108690368D01*
X176729387Y-108690368D01*
X176722861Y-108688203D01*
X176716025Y-108687503D01*
X176716022Y-108687502D01*
X176668254Y-108682608D01*
X176618400Y-108677500D01*
X174917600Y-108677500D01*
X174914354Y-108677837D01*
X174914350Y-108677837D01*
X174818693Y-108687762D01*
X174818689Y-108687763D01*
X174811835Y-108688474D01*
X174805299Y-108690655D01*
X174805297Y-108690655D01*
X174715584Y-108720586D01*
X174644055Y-108744450D01*
X174493652Y-108837522D01*
X174368695Y-108962697D01*
X174275885Y-109113262D01*
X174220203Y-109281139D01*
X174219503Y-109287975D01*
X174219502Y-109287978D01*
X174215091Y-109331031D01*
X174209500Y-109385600D01*
X174209500Y-111086400D01*
X174209837Y-111089646D01*
X174209837Y-111089650D01*
X174219098Y-111178901D01*
X174220474Y-111192165D01*
X174222655Y-111198701D01*
X174222655Y-111198703D01*
X174234177Y-111233239D01*
X174276450Y-111359945D01*
X174369522Y-111510348D01*
X174494697Y-111635305D01*
X174500927Y-111639145D01*
X174500928Y-111639146D01*
X174638090Y-111723694D01*
X174645262Y-111728115D01*
X174725005Y-111754564D01*
X174806611Y-111781632D01*
X174806613Y-111781632D01*
X174813139Y-111783797D01*
X174819975Y-111784497D01*
X174819978Y-111784498D01*
X174863031Y-111788909D01*
X174917600Y-111794500D01*
X176618400Y-111794500D01*
X176621646Y-111794163D01*
X176621650Y-111794163D01*
X176717307Y-111784238D01*
X176717311Y-111784237D01*
X176724165Y-111783526D01*
X176730701Y-111781345D01*
X176730703Y-111781345D01*
X176862805Y-111737272D01*
X176891945Y-111727550D01*
X177042348Y-111634478D01*
X177167305Y-111509303D01*
X177171146Y-111503072D01*
X177256275Y-111364968D01*
X177256276Y-111364966D01*
X177260115Y-111358738D01*
X177299511Y-111239963D01*
X177300407Y-111237261D01*
X177340838Y-111178901D01*
X177406402Y-111151664D01*
X177476283Y-111164197D01*
X177528295Y-111212522D01*
X177546000Y-111276928D01*
X177546000Y-112142000D01*
X177525998Y-112210121D01*
X177472342Y-112256614D01*
X177420000Y-112268000D01*
X116458000Y-112268000D01*
X116389879Y-112247998D01*
X116343386Y-112194342D01*
X116332000Y-112142000D01*
X116332000Y-108112913D01*
X116352002Y-108044792D01*
X116405658Y-107998299D01*
X116475932Y-107988195D01*
X116539066Y-108017029D01*
X116540739Y-108019261D01*
X116657295Y-108106615D01*
X116793684Y-108157745D01*
X116855866Y-108164500D01*
X117952134Y-108164500D01*
X118014316Y-108157745D01*
X118150705Y-108106615D01*
X118267261Y-108019261D01*
X118303176Y-107971340D01*
X118360033Y-107928827D01*
X118430851Y-107923801D01*
X118493145Y-107957861D01*
X118504817Y-107971330D01*
X118540739Y-108019261D01*
X118657295Y-108106615D01*
X118793684Y-108157745D01*
X118855866Y-108164500D01*
X119952134Y-108164500D01*
X120014316Y-108157745D01*
X120150705Y-108106615D01*
X120267261Y-108019261D01*
X120303176Y-107971340D01*
X120360033Y-107928827D01*
X120430851Y-107923801D01*
X120493145Y-107957861D01*
X120504817Y-107971330D01*
X120540739Y-108019261D01*
X120657295Y-108106615D01*
X120793684Y-108157745D01*
X120855866Y-108164500D01*
X121952134Y-108164500D01*
X122014316Y-108157745D01*
X122150705Y-108106615D01*
X122267261Y-108019261D01*
X122303176Y-107971340D01*
X122360033Y-107928827D01*
X122430851Y-107923801D01*
X122493145Y-107957861D01*
X122504817Y-107971330D01*
X122540739Y-108019261D01*
X122657295Y-108106615D01*
X122793684Y-108157745D01*
X122855866Y-108164500D01*
X123952134Y-108164500D01*
X124014316Y-108157745D01*
X124150705Y-108106615D01*
X124267261Y-108019261D01*
X124303176Y-107971340D01*
X124360033Y-107928827D01*
X124430851Y-107923801D01*
X124493145Y-107957861D01*
X124504817Y-107971330D01*
X124540739Y-108019261D01*
X124657295Y-108106615D01*
X124793684Y-108157745D01*
X124855866Y-108164500D01*
X125952134Y-108164500D01*
X126014316Y-108157745D01*
X126150705Y-108106615D01*
X126267261Y-108019261D01*
X126303176Y-107971340D01*
X126360033Y-107928827D01*
X126430851Y-107923801D01*
X126493145Y-107957861D01*
X126504817Y-107971330D01*
X126540739Y-108019261D01*
X126657295Y-108106615D01*
X126793684Y-108157745D01*
X126855866Y-108164500D01*
X127952134Y-108164500D01*
X128014316Y-108157745D01*
X128150705Y-108106615D01*
X128267261Y-108019261D01*
X128303176Y-107971340D01*
X128360033Y-107928827D01*
X128430851Y-107923801D01*
X128493145Y-107957861D01*
X128504817Y-107971330D01*
X128540739Y-108019261D01*
X128657295Y-108106615D01*
X128793684Y-108157745D01*
X128855866Y-108164500D01*
X129952134Y-108164500D01*
X130014316Y-108157745D01*
X130150705Y-108106615D01*
X130267261Y-108019261D01*
X130303176Y-107971340D01*
X130360033Y-107928827D01*
X130430851Y-107923801D01*
X130493145Y-107957861D01*
X130504817Y-107971330D01*
X130540739Y-108019261D01*
X130657295Y-108106615D01*
X130793684Y-108157745D01*
X130855866Y-108164500D01*
X131952134Y-108164500D01*
X132014316Y-108157745D01*
X132150705Y-108106615D01*
X132267261Y-108019261D01*
X132354615Y-107902705D01*
X132405745Y-107766316D01*
X132412500Y-107704134D01*
X132412500Y-107165500D01*
X132432502Y-107097379D01*
X132486158Y-107050886D01*
X132538500Y-107039500D01*
X133523405Y-107039500D01*
X133591526Y-107059502D01*
X133612501Y-107076405D01*
X133908710Y-107372615D01*
X134129785Y-107593690D01*
X134142625Y-107608724D01*
X134154528Y-107625107D01*
X134174720Y-107641811D01*
X134188593Y-107653288D01*
X134197373Y-107661278D01*
X135132353Y-108596258D01*
X135139887Y-108604537D01*
X135144000Y-108611018D01*
X135165095Y-108630827D01*
X135193651Y-108657643D01*
X135196493Y-108660398D01*
X135216230Y-108680135D01*
X135219427Y-108682615D01*
X135228447Y-108690318D01*
X135260679Y-108720586D01*
X135267625Y-108724405D01*
X135267628Y-108724407D01*
X135278434Y-108730348D01*
X135294953Y-108741199D01*
X135310959Y-108753614D01*
X135318228Y-108756759D01*
X135318232Y-108756762D01*
X135351537Y-108771174D01*
X135362187Y-108776391D01*
X135400940Y-108797695D01*
X135408615Y-108799666D01*
X135408616Y-108799666D01*
X135420562Y-108802733D01*
X135439267Y-108809137D01*
X135457855Y-108817181D01*
X135465678Y-108818420D01*
X135465688Y-108818423D01*
X135501524Y-108824099D01*
X135513144Y-108826505D01*
X135544959Y-108834673D01*
X135555970Y-108837500D01*
X135576224Y-108837500D01*
X135595934Y-108839051D01*
X135615943Y-108842220D01*
X135623835Y-108841474D01*
X135642580Y-108839702D01*
X135659962Y-108838059D01*
X135671819Y-108837500D01*
X144091233Y-108837500D01*
X144102416Y-108838027D01*
X144109909Y-108839702D01*
X144117835Y-108839453D01*
X144117836Y-108839453D01*
X144177986Y-108837562D01*
X144181945Y-108837500D01*
X144209856Y-108837500D01*
X144213791Y-108837003D01*
X144213856Y-108836995D01*
X144225693Y-108836062D01*
X144257951Y-108835048D01*
X144261970Y-108834922D01*
X144269889Y-108834673D01*
X144289343Y-108829021D01*
X144308700Y-108825013D01*
X144320930Y-108823468D01*
X144320931Y-108823468D01*
X144328797Y-108822474D01*
X144336168Y-108819555D01*
X144336170Y-108819555D01*
X144369912Y-108806196D01*
X144381142Y-108802351D01*
X144415983Y-108792229D01*
X144415984Y-108792229D01*
X144423593Y-108790018D01*
X144430412Y-108785985D01*
X144430417Y-108785983D01*
X144441028Y-108779707D01*
X144458776Y-108771012D01*
X144477617Y-108763552D01*
X144513387Y-108737564D01*
X144523307Y-108731048D01*
X144554535Y-108712580D01*
X144554538Y-108712578D01*
X144561362Y-108708542D01*
X144575683Y-108694221D01*
X144590717Y-108681380D01*
X144592431Y-108680135D01*
X144607107Y-108669472D01*
X144635298Y-108635395D01*
X144643288Y-108626616D01*
X144759153Y-108510751D01*
X144821465Y-108476725D01*
X144892280Y-108481790D01*
X144923813Y-108499020D01*
X144955295Y-108522615D01*
X145091684Y-108573745D01*
X145153866Y-108580500D01*
X147250134Y-108580500D01*
X147312316Y-108573745D01*
X147448705Y-108522615D01*
X147565261Y-108435261D01*
X147652615Y-108318705D01*
X147703745Y-108182316D01*
X147710500Y-108120134D01*
X147710500Y-106931500D01*
X147730502Y-106863379D01*
X147784158Y-106816886D01*
X147836500Y-106805500D01*
X149608500Y-106805500D01*
X149676621Y-106825502D01*
X149723114Y-106879158D01*
X149734500Y-106931500D01*
X149734500Y-109649233D01*
X149733973Y-109660416D01*
X149732298Y-109667909D01*
X149732547Y-109675835D01*
X149732547Y-109675836D01*
X149734438Y-109735986D01*
X149734500Y-109739945D01*
X149734500Y-109767856D01*
X149734997Y-109771790D01*
X149734997Y-109771791D01*
X149735005Y-109771856D01*
X149735938Y-109783693D01*
X149737327Y-109827889D01*
X149742978Y-109847339D01*
X149746987Y-109866700D01*
X149749526Y-109886797D01*
X149752445Y-109894168D01*
X149752445Y-109894170D01*
X149765804Y-109927912D01*
X149769649Y-109939142D01*
X149781325Y-109979331D01*
X149781982Y-109981592D01*
X149781617Y-109981698D01*
X149789720Y-110047330D01*
X149784978Y-110066578D01*
X149769203Y-110114139D01*
X149758500Y-110218600D01*
X149758500Y-111269400D01*
X149758837Y-111272646D01*
X149758837Y-111272650D01*
X149768618Y-111366914D01*
X149769474Y-111375166D01*
X149825450Y-111542946D01*
X149918522Y-111693348D01*
X150043697Y-111818305D01*
X150049927Y-111822145D01*
X150049928Y-111822146D01*
X150187288Y-111906816D01*
X150194262Y-111911115D01*
X150274005Y-111937564D01*
X150355611Y-111964632D01*
X150355613Y-111964632D01*
X150362139Y-111966797D01*
X150368975Y-111967497D01*
X150368978Y-111967498D01*
X150412031Y-111971909D01*
X150466600Y-111977500D01*
X151242400Y-111977500D01*
X151245646Y-111977163D01*
X151245650Y-111977163D01*
X151341308Y-111967238D01*
X151341312Y-111967237D01*
X151348166Y-111966526D01*
X151354702Y-111964345D01*
X151354704Y-111964345D01*
X151486806Y-111920272D01*
X151515946Y-111910550D01*
X151666348Y-111817478D01*
X151791305Y-111692303D01*
X151794102Y-111687765D01*
X151851353Y-111647176D01*
X151922276Y-111643946D01*
X151983687Y-111679572D01*
X151991062Y-111688068D01*
X151999098Y-111698207D01*
X152113829Y-111812739D01*
X152125240Y-111821751D01*
X152263243Y-111906816D01*
X152276424Y-111912963D01*
X152430710Y-111964138D01*
X152444086Y-111967005D01*
X152538438Y-111976672D01*
X152544854Y-111977000D01*
X152657385Y-111977000D01*
X152672624Y-111972525D01*
X152673829Y-111971135D01*
X152675500Y-111963452D01*
X152675500Y-111958884D01*
X153183500Y-111958884D01*
X153187975Y-111974123D01*
X153189365Y-111975328D01*
X153197048Y-111976999D01*
X153314095Y-111976999D01*
X153320614Y-111976662D01*
X153416206Y-111966743D01*
X153429600Y-111963851D01*
X153583784Y-111912412D01*
X153596962Y-111906239D01*
X153734807Y-111820937D01*
X153746208Y-111811901D01*
X153860739Y-111697171D01*
X153869751Y-111685760D01*
X153954816Y-111547757D01*
X153960963Y-111534576D01*
X154012138Y-111380290D01*
X154015005Y-111366914D01*
X154024672Y-111272562D01*
X154025000Y-111266146D01*
X154025000Y-111016115D01*
X154020525Y-111000876D01*
X154019135Y-110999671D01*
X154011452Y-110998000D01*
X153201615Y-110998000D01*
X153186376Y-111002475D01*
X153185171Y-111003865D01*
X153183500Y-111011548D01*
X153183500Y-111958884D01*
X152675500Y-111958884D01*
X152675500Y-110616000D01*
X152682225Y-110593095D01*
X155156001Y-110593095D01*
X155156338Y-110599614D01*
X155166257Y-110695206D01*
X155169149Y-110708600D01*
X155220588Y-110862784D01*
X155226761Y-110875962D01*
X155312063Y-111013807D01*
X155321099Y-111025208D01*
X155435829Y-111139739D01*
X155447240Y-111148751D01*
X155585243Y-111233816D01*
X155598424Y-111239963D01*
X155752710Y-111291138D01*
X155766086Y-111294005D01*
X155860438Y-111303672D01*
X155866854Y-111304000D01*
X156191885Y-111304000D01*
X156207124Y-111299525D01*
X156208329Y-111298135D01*
X156210000Y-111290452D01*
X156210000Y-111285884D01*
X156718000Y-111285884D01*
X156722475Y-111301123D01*
X156723865Y-111302328D01*
X156731548Y-111303999D01*
X157061095Y-111303999D01*
X157067614Y-111303662D01*
X157163206Y-111293743D01*
X157176600Y-111290851D01*
X157330784Y-111239412D01*
X157343962Y-111233239D01*
X157481807Y-111147937D01*
X157493208Y-111138901D01*
X157607739Y-111024171D01*
X157616751Y-111012760D01*
X157701816Y-110874757D01*
X157707963Y-110861576D01*
X157759138Y-110707290D01*
X157762005Y-110693914D01*
X157771672Y-110599562D01*
X157772000Y-110593146D01*
X157772000Y-109768115D01*
X157767525Y-109752876D01*
X157766135Y-109751671D01*
X157758452Y-109750000D01*
X156736115Y-109750000D01*
X156720876Y-109754475D01*
X156719671Y-109755865D01*
X156718000Y-109763548D01*
X156718000Y-111285884D01*
X156210000Y-111285884D01*
X156210000Y-109768115D01*
X156205525Y-109752876D01*
X156204135Y-109751671D01*
X156196452Y-109750000D01*
X155174116Y-109750000D01*
X155158877Y-109754475D01*
X155157672Y-109755865D01*
X155156001Y-109763548D01*
X155156001Y-110593095D01*
X152682225Y-110593095D01*
X152695502Y-110547879D01*
X152749158Y-110501386D01*
X152801500Y-110490000D01*
X154006884Y-110490000D01*
X154022123Y-110485525D01*
X154023328Y-110484135D01*
X154024999Y-110476452D01*
X154024999Y-110221905D01*
X154024662Y-110215386D01*
X154014743Y-110119794D01*
X154011851Y-110106400D01*
X153960412Y-109952216D01*
X153954239Y-109939038D01*
X153868937Y-109801193D01*
X153859901Y-109789792D01*
X153847758Y-109777670D01*
X153813679Y-109715387D01*
X153818682Y-109644567D01*
X153853171Y-109598432D01*
X153851374Y-109596635D01*
X153870285Y-109577724D01*
X153946786Y-109475649D01*
X153955324Y-109460054D01*
X154000478Y-109339606D01*
X154004105Y-109324351D01*
X154009631Y-109273486D01*
X154010000Y-109266672D01*
X154010000Y-108744115D01*
X154005525Y-108728876D01*
X154004135Y-108727671D01*
X153996452Y-108726000D01*
X152374000Y-108726000D01*
X152305879Y-108705998D01*
X152259386Y-108652342D01*
X152248000Y-108600000D01*
X152248000Y-108344000D01*
X152268002Y-108275879D01*
X152321658Y-108229386D01*
X152374000Y-108218000D01*
X153991884Y-108218000D01*
X154007123Y-108213525D01*
X154008328Y-108212135D01*
X154009999Y-108204452D01*
X154009999Y-107677331D01*
X154009629Y-107670510D01*
X154004105Y-107619648D01*
X154000479Y-107604396D01*
X153955324Y-107483946D01*
X153946786Y-107468352D01*
X153894047Y-107397982D01*
X153869199Y-107331476D01*
X153884252Y-107262093D01*
X153894047Y-107246852D01*
X153944176Y-107179965D01*
X153952615Y-107168705D01*
X154003745Y-107032316D01*
X154010500Y-106970134D01*
X154010500Y-106931500D01*
X154030502Y-106863379D01*
X154084158Y-106816886D01*
X154136500Y-106805500D01*
X155029500Y-106805500D01*
X155097621Y-106825502D01*
X155144114Y-106879158D01*
X155155500Y-106931500D01*
X155155500Y-106996400D01*
X155155837Y-106999646D01*
X155155837Y-106999650D01*
X155159227Y-107032316D01*
X155166474Y-107102166D01*
X155168655Y-107108702D01*
X155168655Y-107108704D01*
X155173586Y-107123483D01*
X155222450Y-107269946D01*
X155315522Y-107420348D01*
X155440697Y-107545305D01*
X155446927Y-107549145D01*
X155446928Y-107549146D01*
X155463783Y-107559536D01*
X155511648Y-107589040D01*
X155559140Y-107641811D01*
X155570564Y-107711883D01*
X155542290Y-107777006D01*
X155511834Y-107803443D01*
X155446193Y-107844063D01*
X155434792Y-107853099D01*
X155320261Y-107967829D01*
X155311249Y-107979240D01*
X155226184Y-108117243D01*
X155220037Y-108130424D01*
X155168862Y-108284710D01*
X155165995Y-108298086D01*
X155156328Y-108392438D01*
X155156000Y-108398855D01*
X155156000Y-109223885D01*
X155160475Y-109239124D01*
X155161865Y-109240329D01*
X155169548Y-109242000D01*
X157753884Y-109242000D01*
X157769123Y-109237525D01*
X157770328Y-109236135D01*
X157771999Y-109228452D01*
X157771999Y-108398905D01*
X157771662Y-108392386D01*
X157761743Y-108296794D01*
X157758851Y-108283400D01*
X157707412Y-108129216D01*
X157701239Y-108116038D01*
X157615937Y-107978193D01*
X157606901Y-107966792D01*
X157492171Y-107852261D01*
X157480760Y-107843249D01*
X157416354Y-107803549D01*
X157368861Y-107750777D01*
X157357437Y-107680706D01*
X157385711Y-107615582D01*
X157416167Y-107589145D01*
X157416339Y-107589039D01*
X157488348Y-107544478D01*
X157613305Y-107419303D01*
X157706115Y-107268738D01*
X157761797Y-107100861D01*
X157772500Y-106996400D01*
X157772500Y-106905030D01*
X174863800Y-106905030D01*
X174869527Y-106912680D01*
X175054272Y-107025893D01*
X175063067Y-107030375D01*
X175280490Y-107120434D01*
X175289875Y-107123483D01*
X175518708Y-107178422D01*
X175528455Y-107179965D01*
X175763070Y-107198430D01*
X175772930Y-107198430D01*
X176007545Y-107179965D01*
X176017292Y-107178422D01*
X176246125Y-107123483D01*
X176255510Y-107120434D01*
X176472933Y-107030375D01*
X176481728Y-107025893D01*
X176662805Y-106914928D01*
X176672267Y-106904470D01*
X176668484Y-106895694D01*
X175780812Y-106008022D01*
X175766868Y-106000408D01*
X175765035Y-106000539D01*
X175758420Y-106004790D01*
X174870560Y-106892650D01*
X174863800Y-106905030D01*
X157772500Y-106905030D01*
X157772500Y-105640930D01*
X174205570Y-105640930D01*
X174224035Y-105875545D01*
X174225578Y-105885292D01*
X174280517Y-106114125D01*
X174283566Y-106123510D01*
X174373625Y-106340933D01*
X174378107Y-106349728D01*
X174489072Y-106530805D01*
X174499530Y-106540267D01*
X174508306Y-106536484D01*
X175395978Y-105648812D01*
X175403592Y-105634868D01*
X175403461Y-105633035D01*
X175399210Y-105626420D01*
X174511350Y-104738560D01*
X174498970Y-104731800D01*
X174491320Y-104737527D01*
X174378107Y-104922272D01*
X174373625Y-104931067D01*
X174283566Y-105148490D01*
X174280517Y-105157875D01*
X174225578Y-105386708D01*
X174224035Y-105396455D01*
X174205570Y-105631070D01*
X174205570Y-105640930D01*
X157772500Y-105640930D01*
X157772500Y-104795600D01*
X157771788Y-104788737D01*
X157762238Y-104696692D01*
X157762237Y-104696688D01*
X157761526Y-104689834D01*
X157750582Y-104657029D01*
X157707868Y-104529002D01*
X157705550Y-104522054D01*
X157612478Y-104371652D01*
X157608349Y-104367530D01*
X174863733Y-104367530D01*
X174867516Y-104376306D01*
X175755188Y-105263978D01*
X175769132Y-105271592D01*
X175770965Y-105271461D01*
X175777580Y-105267210D01*
X176665440Y-104379350D01*
X176672200Y-104366970D01*
X176666473Y-104359320D01*
X176481728Y-104246107D01*
X176472933Y-104241625D01*
X176255510Y-104151566D01*
X176246125Y-104148517D01*
X176017292Y-104093578D01*
X176007545Y-104092035D01*
X175772930Y-104073570D01*
X175763070Y-104073570D01*
X175528455Y-104092035D01*
X175518708Y-104093578D01*
X175289875Y-104148517D01*
X175280490Y-104151566D01*
X175063067Y-104241625D01*
X175054272Y-104246107D01*
X174873195Y-104357072D01*
X174863733Y-104367530D01*
X157608349Y-104367530D01*
X157600125Y-104359320D01*
X157492483Y-104251866D01*
X157487303Y-104246695D01*
X157444757Y-104220469D01*
X157342968Y-104157725D01*
X157342966Y-104157724D01*
X157336738Y-104153885D01*
X157206843Y-104110801D01*
X157175389Y-104100368D01*
X157175387Y-104100368D01*
X157168861Y-104098203D01*
X157164447Y-104097751D01*
X157102862Y-104064362D01*
X157084873Y-104031651D01*
X157062191Y-104062141D01*
X156995746Y-104087151D01*
X156986379Y-104087500D01*
X155944066Y-104087500D01*
X155875945Y-104067498D01*
X155842470Y-104028865D01*
X155829158Y-104058012D01*
X155769432Y-104096396D01*
X155763627Y-104097873D01*
X155757834Y-104098474D01*
X155590054Y-104154450D01*
X155439652Y-104247522D01*
X155314695Y-104372697D01*
X155310855Y-104378927D01*
X155310854Y-104378928D01*
X155226021Y-104516553D01*
X155221885Y-104523262D01*
X155166203Y-104691139D01*
X155165503Y-104697975D01*
X155165502Y-104697978D01*
X155163387Y-104718621D01*
X155155500Y-104795600D01*
X155155500Y-105412500D01*
X155135498Y-105480621D01*
X155081842Y-105527114D01*
X155029500Y-105538500D01*
X154136500Y-105538500D01*
X154068379Y-105518498D01*
X154021886Y-105464842D01*
X154010500Y-105412500D01*
X154010500Y-105373866D01*
X154003745Y-105311684D01*
X153952615Y-105175295D01*
X153947229Y-105168108D01*
X153894360Y-105097565D01*
X153869512Y-105031058D01*
X153884565Y-104961676D01*
X153894360Y-104946435D01*
X153947229Y-104875892D01*
X153947230Y-104875890D01*
X153952615Y-104868705D01*
X154003745Y-104732316D01*
X154010500Y-104670134D01*
X154010500Y-103375500D01*
X154030502Y-103307379D01*
X154084158Y-103260886D01*
X154136500Y-103249500D01*
X154251462Y-103249500D01*
X154319583Y-103269502D01*
X154366076Y-103323158D01*
X154370986Y-103335624D01*
X154375409Y-103348882D01*
X154397450Y-103414946D01*
X154490522Y-103565348D01*
X154615697Y-103690305D01*
X154621927Y-103694145D01*
X154621928Y-103694146D01*
X154759288Y-103778816D01*
X154766262Y-103783115D01*
X154846005Y-103809564D01*
X154927611Y-103836632D01*
X154927613Y-103836632D01*
X154934139Y-103838797D01*
X154940975Y-103839497D01*
X154940978Y-103839498D01*
X154984031Y-103843909D01*
X155038600Y-103849500D01*
X155733934Y-103849500D01*
X155802055Y-103869502D01*
X155835530Y-103908135D01*
X155848842Y-103878988D01*
X155908568Y-103840604D01*
X155914373Y-103839127D01*
X155920166Y-103838526D01*
X156087946Y-103782550D01*
X156238348Y-103689478D01*
X156363305Y-103564303D01*
X156366102Y-103559765D01*
X156423353Y-103519176D01*
X156494276Y-103515946D01*
X156555687Y-103551572D01*
X156563062Y-103560068D01*
X156571098Y-103570207D01*
X156685829Y-103684739D01*
X156697240Y-103693751D01*
X156835243Y-103778816D01*
X156848424Y-103784963D01*
X157002708Y-103836137D01*
X157012792Y-103838299D01*
X157075206Y-103872137D01*
X157093196Y-103904850D01*
X157115879Y-103874359D01*
X157182324Y-103849349D01*
X157191690Y-103849000D01*
X157229385Y-103849000D01*
X157244624Y-103844525D01*
X157245829Y-103843135D01*
X157247500Y-103835452D01*
X157247500Y-103830884D01*
X157755500Y-103830884D01*
X157759975Y-103846123D01*
X157761365Y-103847328D01*
X157769048Y-103848999D01*
X157886095Y-103848999D01*
X157892614Y-103848662D01*
X157988206Y-103838743D01*
X158001600Y-103835851D01*
X158155784Y-103784412D01*
X158168962Y-103778239D01*
X158306807Y-103692937D01*
X158318208Y-103683901D01*
X158432739Y-103569171D01*
X158441751Y-103557760D01*
X158526816Y-103419757D01*
X158532963Y-103406576D01*
X158584138Y-103252290D01*
X158587005Y-103238914D01*
X158596672Y-103144562D01*
X158597000Y-103138146D01*
X158597000Y-102888115D01*
X158592525Y-102872876D01*
X158591135Y-102871671D01*
X158583452Y-102870000D01*
X157773615Y-102870000D01*
X157758376Y-102874475D01*
X157757171Y-102875865D01*
X157755500Y-102883548D01*
X157755500Y-103830884D01*
X157247500Y-103830884D01*
X157247500Y-102417030D01*
X174863800Y-102417030D01*
X174869527Y-102424680D01*
X175054272Y-102537893D01*
X175063067Y-102542375D01*
X175280490Y-102632434D01*
X175289875Y-102635483D01*
X175518708Y-102690422D01*
X175528455Y-102691965D01*
X175763070Y-102710430D01*
X175772930Y-102710430D01*
X176007545Y-102691965D01*
X176017292Y-102690422D01*
X176246125Y-102635483D01*
X176255510Y-102632434D01*
X176472933Y-102542375D01*
X176481728Y-102537893D01*
X176662805Y-102426928D01*
X176672267Y-102416470D01*
X176668484Y-102407694D01*
X175780812Y-101520022D01*
X175766868Y-101512408D01*
X175765035Y-101512539D01*
X175758420Y-101516790D01*
X174870560Y-102404650D01*
X174863800Y-102417030D01*
X157247500Y-102417030D01*
X157247500Y-102343885D01*
X157755500Y-102343885D01*
X157759975Y-102359124D01*
X157761365Y-102360329D01*
X157769048Y-102362000D01*
X158578884Y-102362000D01*
X158594123Y-102357525D01*
X158595328Y-102356135D01*
X158596999Y-102348452D01*
X158596999Y-102093905D01*
X158596662Y-102087386D01*
X158586743Y-101991794D01*
X158583851Y-101978400D01*
X158532412Y-101824216D01*
X158526239Y-101811038D01*
X158440937Y-101673193D01*
X158431901Y-101661792D01*
X158317171Y-101547261D01*
X158305760Y-101538249D01*
X158167757Y-101453184D01*
X158154576Y-101447037D01*
X158000290Y-101395862D01*
X157986914Y-101392995D01*
X157892562Y-101383328D01*
X157886145Y-101383000D01*
X157773615Y-101383000D01*
X157758376Y-101387475D01*
X157757171Y-101388865D01*
X157755500Y-101396548D01*
X157755500Y-102343885D01*
X157247500Y-102343885D01*
X157247500Y-101401116D01*
X157243025Y-101385877D01*
X157241635Y-101384672D01*
X157233952Y-101383001D01*
X157116905Y-101383001D01*
X157110386Y-101383338D01*
X157014794Y-101393257D01*
X157001400Y-101396149D01*
X156847216Y-101447588D01*
X156834038Y-101453761D01*
X156696193Y-101539063D01*
X156684792Y-101548099D01*
X156570262Y-101662828D01*
X156563206Y-101671762D01*
X156505288Y-101712823D01*
X156434365Y-101716053D01*
X156372954Y-101680426D01*
X156366154Y-101672593D01*
X156362478Y-101666652D01*
X156237303Y-101541695D01*
X156196900Y-101516790D01*
X156092968Y-101452725D01*
X156092966Y-101452724D01*
X156086738Y-101448885D01*
X155961290Y-101407276D01*
X155925389Y-101395368D01*
X155925387Y-101395368D01*
X155918861Y-101393203D01*
X155912025Y-101392503D01*
X155912022Y-101392502D01*
X155863639Y-101387545D01*
X155814400Y-101382500D01*
X155038600Y-101382500D01*
X155035354Y-101382837D01*
X155035350Y-101382837D01*
X154939692Y-101392762D01*
X154939688Y-101392763D01*
X154932834Y-101393474D01*
X154926298Y-101395655D01*
X154926296Y-101395655D01*
X154909928Y-101401116D01*
X154765054Y-101449450D01*
X154614652Y-101542522D01*
X154489695Y-101667697D01*
X154458425Y-101718427D01*
X154456504Y-101721543D01*
X154403732Y-101769036D01*
X154333660Y-101780460D01*
X154268537Y-101752186D01*
X154240125Y-101718427D01*
X154207246Y-101661479D01*
X154155040Y-101571056D01*
X154134370Y-101548099D01*
X154031675Y-101434045D01*
X154031674Y-101434044D01*
X154027253Y-101429134D01*
X153872752Y-101316882D01*
X153866724Y-101314198D01*
X153866722Y-101314197D01*
X153704319Y-101241891D01*
X153704318Y-101241891D01*
X153698288Y-101239206D01*
X153573809Y-101212747D01*
X153511336Y-101179018D01*
X153496929Y-101152930D01*
X174205570Y-101152930D01*
X174224035Y-101387545D01*
X174225578Y-101397292D01*
X174280517Y-101626125D01*
X174283566Y-101635510D01*
X174373625Y-101852933D01*
X174378107Y-101861728D01*
X174489072Y-102042805D01*
X174499530Y-102052267D01*
X174508306Y-102048484D01*
X175395978Y-101160812D01*
X175403592Y-101146868D01*
X175403461Y-101145035D01*
X175399210Y-101138420D01*
X174511350Y-100250560D01*
X174498970Y-100243800D01*
X174491320Y-100249527D01*
X174378107Y-100434272D01*
X174373625Y-100443067D01*
X174283566Y-100660490D01*
X174280517Y-100669875D01*
X174225578Y-100898708D01*
X174224035Y-100908455D01*
X174205570Y-101143070D01*
X174205570Y-101152930D01*
X153496929Y-101152930D01*
X153477014Y-101116869D01*
X153481742Y-101046030D01*
X153524018Y-100988992D01*
X153590419Y-100963865D01*
X153600006Y-100963500D01*
X169847233Y-100963500D01*
X169858416Y-100964027D01*
X169865909Y-100965702D01*
X169873835Y-100965453D01*
X169873836Y-100965453D01*
X169933986Y-100963562D01*
X169937945Y-100963500D01*
X169965856Y-100963500D01*
X169969791Y-100963003D01*
X169969856Y-100962995D01*
X169981693Y-100962062D01*
X170013951Y-100961048D01*
X170017970Y-100960922D01*
X170025889Y-100960673D01*
X170045343Y-100955021D01*
X170064700Y-100951013D01*
X170076930Y-100949468D01*
X170076931Y-100949468D01*
X170084797Y-100948474D01*
X170092168Y-100945555D01*
X170092170Y-100945555D01*
X170125912Y-100932196D01*
X170137142Y-100928351D01*
X170171983Y-100918229D01*
X170171984Y-100918229D01*
X170179593Y-100916018D01*
X170186412Y-100911985D01*
X170186417Y-100911983D01*
X170197028Y-100905707D01*
X170214776Y-100897012D01*
X170233617Y-100889552D01*
X170269387Y-100863564D01*
X170279307Y-100857048D01*
X170310535Y-100838580D01*
X170310538Y-100838578D01*
X170317362Y-100834542D01*
X170331683Y-100820221D01*
X170346717Y-100807380D01*
X170363107Y-100795472D01*
X170391298Y-100761395D01*
X170399288Y-100752616D01*
X171272374Y-99879530D01*
X174863733Y-99879530D01*
X174867516Y-99888306D01*
X175755188Y-100775978D01*
X175769132Y-100783592D01*
X175770965Y-100783461D01*
X175777580Y-100779210D01*
X176665440Y-99891350D01*
X176672200Y-99878970D01*
X176666473Y-99871320D01*
X176481728Y-99758107D01*
X176472933Y-99753625D01*
X176255510Y-99663566D01*
X176246125Y-99660517D01*
X176017292Y-99605578D01*
X176007545Y-99604035D01*
X175772930Y-99585570D01*
X175763070Y-99585570D01*
X175528455Y-99604035D01*
X175518708Y-99605578D01*
X175289875Y-99660517D01*
X175280490Y-99663566D01*
X175063067Y-99753625D01*
X175054272Y-99758107D01*
X174873195Y-99869072D01*
X174863733Y-99879530D01*
X171272374Y-99879530D01*
X173933499Y-97218405D01*
X173995811Y-97184379D01*
X174022594Y-97181500D01*
X174259454Y-97181500D01*
X174327575Y-97201502D01*
X174371721Y-97250297D01*
X174373177Y-97253154D01*
X174375073Y-97257732D01*
X174377662Y-97261956D01*
X174377662Y-97261957D01*
X174470063Y-97412742D01*
X174503248Y-97466896D01*
X174506463Y-97470660D01*
X174506465Y-97470663D01*
X174629543Y-97614767D01*
X174662567Y-97653433D01*
X174666323Y-97656641D01*
X174816055Y-97784525D01*
X174849104Y-97812752D01*
X174853327Y-97815340D01*
X174853330Y-97815342D01*
X174922515Y-97857738D01*
X175058268Y-97940927D01*
X175202967Y-98000864D01*
X175280335Y-98032911D01*
X175280337Y-98032912D01*
X175284908Y-98034805D01*
X175367563Y-98054649D01*
X175518630Y-98090917D01*
X175518636Y-98090918D01*
X175523443Y-98092072D01*
X175768000Y-98111319D01*
X176012557Y-98092072D01*
X176017364Y-98090918D01*
X176017370Y-98090917D01*
X176168437Y-98054649D01*
X176251092Y-98034805D01*
X176255663Y-98032912D01*
X176255665Y-98032911D01*
X176333033Y-98000864D01*
X176477732Y-97940927D01*
X176613485Y-97857738D01*
X176682670Y-97815342D01*
X176682673Y-97815340D01*
X176686896Y-97812752D01*
X176719946Y-97784525D01*
X176869677Y-97656641D01*
X176873433Y-97653433D01*
X176906457Y-97614767D01*
X177029535Y-97470663D01*
X177029537Y-97470660D01*
X177032752Y-97466896D01*
X177160927Y-97257732D01*
X177243679Y-97057953D01*
X177252911Y-97035665D01*
X177252912Y-97035663D01*
X177254805Y-97031092D01*
X177297481Y-96853333D01*
X177332833Y-96791764D01*
X177395860Y-96759081D01*
X177466551Y-96765661D01*
G37*
%TD.AperFunction*%
%TA.AperFunction,Conductor*%
G36*
X177488121Y-85364002D02*
G01*
X177534614Y-85417658D01*
X177546000Y-85470000D01*
X177546000Y-86306849D01*
X177525998Y-86374970D01*
X177472342Y-86421463D01*
X177402068Y-86431567D01*
X177337488Y-86402073D01*
X177300476Y-86346725D01*
X177261868Y-86231003D01*
X177259550Y-86224055D01*
X177166478Y-86073652D01*
X177041303Y-85948695D01*
X177035072Y-85944854D01*
X176896968Y-85859725D01*
X176896966Y-85859724D01*
X176890738Y-85855885D01*
X176730254Y-85802655D01*
X176729389Y-85802368D01*
X176729387Y-85802368D01*
X176722861Y-85800203D01*
X176716025Y-85799503D01*
X176716022Y-85799502D01*
X176672969Y-85795091D01*
X176618400Y-85789500D01*
X174917600Y-85789500D01*
X174914354Y-85789837D01*
X174914350Y-85789837D01*
X174818693Y-85799762D01*
X174818689Y-85799763D01*
X174811835Y-85800474D01*
X174805299Y-85802655D01*
X174805297Y-85802655D01*
X174673195Y-85846728D01*
X174644055Y-85856450D01*
X174493652Y-85949522D01*
X174368695Y-86074697D01*
X174364855Y-86080927D01*
X174364854Y-86080928D01*
X174332980Y-86132638D01*
X174275885Y-86225262D01*
X174273581Y-86232209D01*
X174230947Y-86360748D01*
X174220203Y-86393139D01*
X174219503Y-86399975D01*
X174219502Y-86399978D01*
X174218651Y-86408285D01*
X174209500Y-86497600D01*
X174209500Y-87958406D01*
X174189498Y-88026527D01*
X174172595Y-88047501D01*
X173394079Y-88826016D01*
X172619247Y-89600848D01*
X172610961Y-89608388D01*
X172604482Y-89612500D01*
X172599057Y-89618277D01*
X172557857Y-89662151D01*
X172555102Y-89664993D01*
X172535365Y-89684730D01*
X172534249Y-89686169D01*
X172480045Y-89722081D01*
X172350054Y-89765450D01*
X172343830Y-89769301D01*
X172343829Y-89769302D01*
X172237752Y-89834945D01*
X172199652Y-89858522D01*
X172074695Y-89983697D01*
X172072094Y-89987916D01*
X172014970Y-90028417D01*
X171944047Y-90031649D01*
X171882635Y-89996024D01*
X171876078Y-89988470D01*
X171872478Y-89982652D01*
X171747303Y-89857695D01*
X171720266Y-89841029D01*
X171602968Y-89768725D01*
X171602966Y-89768724D01*
X171596738Y-89764885D01*
X171478906Y-89725802D01*
X171435389Y-89711368D01*
X171435387Y-89711368D01*
X171428861Y-89709203D01*
X171422025Y-89708503D01*
X171422022Y-89708502D01*
X171378969Y-89704091D01*
X171324400Y-89698500D01*
X170548600Y-89698500D01*
X170545354Y-89698837D01*
X170545350Y-89698837D01*
X170449692Y-89708762D01*
X170449688Y-89708763D01*
X170442834Y-89709474D01*
X170436301Y-89711654D01*
X170436290Y-89711656D01*
X170401643Y-89723216D01*
X170330693Y-89725802D01*
X170269609Y-89689618D01*
X170237784Y-89626154D01*
X170242173Y-89564026D01*
X170259632Y-89511389D01*
X170259632Y-89511387D01*
X170261797Y-89504861D01*
X170262980Y-89493322D01*
X170269558Y-89429115D01*
X170272500Y-89400400D01*
X170272500Y-88399600D01*
X170271885Y-88393671D01*
X170262238Y-88300692D01*
X170262237Y-88300688D01*
X170261526Y-88293834D01*
X170258410Y-88284492D01*
X170207868Y-88133002D01*
X170205550Y-88126054D01*
X170112478Y-87975652D01*
X169987303Y-87850695D01*
X169981072Y-87846854D01*
X169842968Y-87761725D01*
X169842966Y-87761724D01*
X169836738Y-87757885D01*
X169695887Y-87711167D01*
X169675389Y-87704368D01*
X169675387Y-87704368D01*
X169668861Y-87702203D01*
X169662025Y-87701503D01*
X169662022Y-87701502D01*
X169618969Y-87697091D01*
X169564400Y-87691500D01*
X168763600Y-87691500D01*
X168760354Y-87691837D01*
X168760350Y-87691837D01*
X168664692Y-87701762D01*
X168664688Y-87701763D01*
X168657834Y-87702474D01*
X168651298Y-87704655D01*
X168651296Y-87704655D01*
X168619171Y-87715373D01*
X168490054Y-87758450D01*
X168339652Y-87851522D01*
X168334479Y-87856704D01*
X168252862Y-87938463D01*
X168190579Y-87972542D01*
X168119759Y-87967539D01*
X168074671Y-87938618D01*
X167992171Y-87856261D01*
X167980760Y-87847249D01*
X167842757Y-87762184D01*
X167829576Y-87756037D01*
X167675290Y-87704862D01*
X167661914Y-87701995D01*
X167567562Y-87692328D01*
X167561145Y-87692000D01*
X167436115Y-87692000D01*
X167420876Y-87696475D01*
X167419671Y-87697865D01*
X167418000Y-87705548D01*
X167418000Y-89028000D01*
X167397998Y-89096121D01*
X167344342Y-89142614D01*
X167292000Y-89154000D01*
X166074116Y-89154000D01*
X166058877Y-89158475D01*
X166057672Y-89159865D01*
X166056001Y-89167548D01*
X166056001Y-89397095D01*
X166056338Y-89403614D01*
X166066257Y-89499206D01*
X166069149Y-89512600D01*
X166120588Y-89666784D01*
X166126761Y-89679962D01*
X166212063Y-89817807D01*
X166225646Y-89834945D01*
X166223831Y-89836384D01*
X166252544Y-89888870D01*
X166247535Y-89959690D01*
X166218621Y-90004764D01*
X166215876Y-90007514D01*
X166153595Y-90041596D01*
X166126700Y-90044500D01*
X162469197Y-90044500D01*
X162401076Y-90024498D01*
X162354583Y-89970842D01*
X162349674Y-89958377D01*
X162333867Y-89910998D01*
X162333866Y-89910996D01*
X162331550Y-89904054D01*
X162318845Y-89883522D01*
X162242332Y-89759880D01*
X162238478Y-89753652D01*
X162113303Y-89628695D01*
X162103706Y-89622779D01*
X161968968Y-89539725D01*
X161968966Y-89539724D01*
X161962738Y-89535885D01*
X161946569Y-89530522D01*
X161937570Y-89527537D01*
X161879209Y-89487107D01*
X161851972Y-89421543D01*
X161864505Y-89351661D01*
X161912829Y-89299649D01*
X161937359Y-89288421D01*
X161956993Y-89281871D01*
X161957003Y-89281867D01*
X161963946Y-89279550D01*
X162114348Y-89186478D01*
X162136997Y-89163790D01*
X162234134Y-89066483D01*
X162239305Y-89061303D01*
X162248430Y-89046500D01*
X162328275Y-88916968D01*
X162328276Y-88916966D01*
X162332115Y-88910738D01*
X162377303Y-88774500D01*
X162385632Y-88749389D01*
X162385632Y-88749387D01*
X162387797Y-88742861D01*
X162388692Y-88734131D01*
X162394257Y-88679813D01*
X162398500Y-88638400D01*
X162398500Y-88627885D01*
X166056000Y-88627885D01*
X166060475Y-88643124D01*
X166061865Y-88644329D01*
X166069548Y-88646000D01*
X166891885Y-88646000D01*
X166907124Y-88641525D01*
X166908329Y-88640135D01*
X166910000Y-88632452D01*
X166910000Y-87710116D01*
X166905525Y-87694877D01*
X166904135Y-87693672D01*
X166896452Y-87692001D01*
X166766905Y-87692001D01*
X166760386Y-87692338D01*
X166664794Y-87702257D01*
X166651400Y-87705149D01*
X166497216Y-87756588D01*
X166484038Y-87762761D01*
X166346193Y-87848063D01*
X166334792Y-87857099D01*
X166220261Y-87971829D01*
X166211249Y-87983240D01*
X166126184Y-88121243D01*
X166120037Y-88134424D01*
X166068862Y-88288710D01*
X166065995Y-88302086D01*
X166056328Y-88396438D01*
X166056000Y-88402855D01*
X166056000Y-88627885D01*
X162398500Y-88627885D01*
X162398500Y-87637600D01*
X162398070Y-87633458D01*
X162388238Y-87538692D01*
X162388237Y-87538688D01*
X162387526Y-87531834D01*
X162383089Y-87518533D01*
X162333868Y-87371002D01*
X162331550Y-87364054D01*
X162238478Y-87213652D01*
X162113303Y-87088695D01*
X162082494Y-87069704D01*
X161968968Y-86999725D01*
X161968966Y-86999724D01*
X161962738Y-86995885D01*
X161881793Y-86969037D01*
X161801389Y-86942368D01*
X161801387Y-86942368D01*
X161794861Y-86940203D01*
X161788025Y-86939503D01*
X161788022Y-86939502D01*
X161744969Y-86935091D01*
X161690400Y-86929500D01*
X160889600Y-86929500D01*
X160886354Y-86929837D01*
X160886350Y-86929837D01*
X160790692Y-86939762D01*
X160790688Y-86939763D01*
X160783834Y-86940474D01*
X160777298Y-86942655D01*
X160777296Y-86942655D01*
X160680455Y-86974964D01*
X160616054Y-86996450D01*
X160465652Y-87089522D01*
X160460479Y-87094704D01*
X160379216Y-87176109D01*
X160316934Y-87210188D01*
X160246114Y-87205185D01*
X160201025Y-87176264D01*
X160118483Y-87093866D01*
X160113303Y-87088695D01*
X160082494Y-87069704D01*
X159968968Y-86999725D01*
X159968966Y-86999724D01*
X159962738Y-86995885D01*
X159881793Y-86969037D01*
X159801389Y-86942368D01*
X159801387Y-86942368D01*
X159794861Y-86940203D01*
X159788025Y-86939503D01*
X159788022Y-86939502D01*
X159744969Y-86935091D01*
X159690400Y-86929500D01*
X158889600Y-86929500D01*
X158886354Y-86929837D01*
X158886350Y-86929837D01*
X158790692Y-86939762D01*
X158790688Y-86939763D01*
X158783834Y-86940474D01*
X158777298Y-86942655D01*
X158777296Y-86942655D01*
X158680455Y-86974964D01*
X158616054Y-86996450D01*
X158465652Y-87089522D01*
X158340695Y-87214697D01*
X158336855Y-87220927D01*
X158336854Y-87220928D01*
X158254185Y-87355042D01*
X158247885Y-87365262D01*
X158245581Y-87372209D01*
X158197048Y-87518533D01*
X158192203Y-87533139D01*
X158181500Y-87637600D01*
X158181500Y-88638400D01*
X158181837Y-88641646D01*
X158181837Y-88641650D01*
X158191741Y-88737097D01*
X158192474Y-88744166D01*
X158194655Y-88750702D01*
X158194655Y-88750704D01*
X158217966Y-88820574D01*
X158248450Y-88911946D01*
X158341522Y-89062348D01*
X158466697Y-89187305D01*
X158472927Y-89191145D01*
X158472928Y-89191146D01*
X158596616Y-89267389D01*
X158644110Y-89320162D01*
X158656500Y-89374649D01*
X158656500Y-89441219D01*
X158636498Y-89509340D01*
X158596803Y-89548363D01*
X158465652Y-89629522D01*
X158340695Y-89754697D01*
X158336855Y-89760927D01*
X158336854Y-89760928D01*
X158261796Y-89882695D01*
X158247885Y-89905262D01*
X158245581Y-89912209D01*
X158205965Y-90031649D01*
X158192203Y-90073139D01*
X158191503Y-90079975D01*
X158191502Y-90079978D01*
X158187606Y-90118010D01*
X158181500Y-90177600D01*
X158181500Y-90553500D01*
X158161498Y-90621621D01*
X158107842Y-90668114D01*
X158055500Y-90679500D01*
X157937643Y-90679500D01*
X157869522Y-90659498D01*
X157823029Y-90605842D01*
X157812925Y-90535568D01*
X157829189Y-90489361D01*
X157844648Y-90463221D01*
X157850893Y-90448790D01*
X157889939Y-90314395D01*
X157889899Y-90300294D01*
X157882630Y-90297000D01*
X154953122Y-90297000D01*
X154939591Y-90300973D01*
X154938456Y-90308871D01*
X154979107Y-90448790D01*
X154985352Y-90463221D01*
X155061911Y-90592677D01*
X155067871Y-90600360D01*
X155093820Y-90666444D01*
X155079922Y-90736067D01*
X155069579Y-90752161D01*
X155065547Y-90756193D01*
X154980855Y-90899399D01*
X154978644Y-90907010D01*
X154978643Y-90907012D01*
X154976467Y-90914502D01*
X154934438Y-91059169D01*
X154933934Y-91065574D01*
X154933933Y-91065579D01*
X154931693Y-91094042D01*
X154931500Y-91096498D01*
X154931500Y-91529502D01*
X154931693Y-91531950D01*
X154931693Y-91531958D01*
X154933795Y-91558659D01*
X154934438Y-91566831D01*
X154955156Y-91638144D01*
X154975590Y-91708477D01*
X154980855Y-91726601D01*
X155065547Y-91869807D01*
X155068229Y-91872489D01*
X155093502Y-91936861D01*
X155079600Y-92006484D01*
X155069428Y-92022312D01*
X155065547Y-92026193D01*
X154980855Y-92169399D01*
X154934438Y-92329169D01*
X154933934Y-92335574D01*
X154933933Y-92335579D01*
X154931693Y-92364042D01*
X154931500Y-92366498D01*
X154931500Y-92799502D01*
X154931693Y-92801950D01*
X154931693Y-92801958D01*
X154933479Y-92824642D01*
X154934438Y-92836831D01*
X154953147Y-92901229D01*
X154970084Y-92959525D01*
X154980855Y-92996601D01*
X155065547Y-93139807D01*
X155068229Y-93142489D01*
X155093502Y-93206861D01*
X155079600Y-93276484D01*
X155069428Y-93292312D01*
X155065547Y-93296193D01*
X154980855Y-93439399D01*
X154978644Y-93447010D01*
X154978643Y-93447012D01*
X154964971Y-93494073D01*
X154934438Y-93599169D01*
X154933934Y-93605574D01*
X154933933Y-93605579D01*
X154931693Y-93634042D01*
X154931500Y-93636498D01*
X154931500Y-94069502D01*
X154934438Y-94106831D01*
X154956958Y-94184345D01*
X154976045Y-94250043D01*
X154980855Y-94266601D01*
X155045624Y-94376119D01*
X155063083Y-94444933D01*
X155040566Y-94512264D01*
X154985222Y-94556733D01*
X154973776Y-94560299D01*
X154973834Y-94560474D01*
X154806054Y-94616450D01*
X154728471Y-94664460D01*
X154661874Y-94705671D01*
X154661870Y-94705674D01*
X154655652Y-94709522D01*
X154652294Y-94712886D01*
X154587460Y-94739128D01*
X154517696Y-94725957D01*
X154497831Y-94713215D01*
X154493303Y-94708695D01*
X154487072Y-94704854D01*
X154487071Y-94704853D01*
X154363384Y-94628611D01*
X154315890Y-94575838D01*
X154303500Y-94521351D01*
X154303500Y-91756767D01*
X154304027Y-91745584D01*
X154305702Y-91738091D01*
X154305440Y-91729738D01*
X154303562Y-91670001D01*
X154303500Y-91666043D01*
X154303500Y-91638144D01*
X154302996Y-91634153D01*
X154302063Y-91622311D01*
X154301779Y-91613253D01*
X154300674Y-91578111D01*
X154298462Y-91570497D01*
X154298461Y-91570492D01*
X154295023Y-91558659D01*
X154291012Y-91539295D01*
X154289467Y-91527064D01*
X154288474Y-91519203D01*
X154285557Y-91511836D01*
X154285556Y-91511831D01*
X154272198Y-91478092D01*
X154268354Y-91466865D01*
X154258230Y-91432022D01*
X154256018Y-91424407D01*
X154245707Y-91406972D01*
X154237012Y-91389224D01*
X154229552Y-91370383D01*
X154203564Y-91334613D01*
X154197048Y-91324693D01*
X154178578Y-91293463D01*
X154174542Y-91286638D01*
X154168936Y-91281031D01*
X154160220Y-91272315D01*
X154147379Y-91257281D01*
X154140131Y-91247305D01*
X154140130Y-91247304D01*
X154135472Y-91240893D01*
X154101407Y-91212712D01*
X154092626Y-91204722D01*
X153808647Y-90920742D01*
X153801113Y-90912463D01*
X153797000Y-90905982D01*
X153747347Y-90859355D01*
X153744506Y-90856601D01*
X153724770Y-90836865D01*
X153721573Y-90834385D01*
X153712551Y-90826680D01*
X153686100Y-90801841D01*
X153680321Y-90796414D01*
X153673375Y-90792595D01*
X153673372Y-90792593D01*
X153662566Y-90786652D01*
X153646047Y-90775801D01*
X153645583Y-90775441D01*
X153630041Y-90763386D01*
X153622772Y-90760241D01*
X153622768Y-90760238D01*
X153589463Y-90745826D01*
X153578813Y-90740609D01*
X153540060Y-90719305D01*
X153520437Y-90714267D01*
X153501734Y-90707863D01*
X153490420Y-90702967D01*
X153490419Y-90702967D01*
X153483145Y-90699819D01*
X153475322Y-90698580D01*
X153475312Y-90698577D01*
X153439476Y-90692901D01*
X153427856Y-90690495D01*
X153392711Y-90681472D01*
X153392710Y-90681472D01*
X153385030Y-90679500D01*
X153364776Y-90679500D01*
X153345065Y-90677949D01*
X153332886Y-90676020D01*
X153325057Y-90674780D01*
X153317165Y-90675526D01*
X153281039Y-90678941D01*
X153269181Y-90679500D01*
X152988224Y-90679500D01*
X152920103Y-90659498D01*
X152873610Y-90605842D01*
X152863506Y-90535568D01*
X152879769Y-90489364D01*
X152899145Y-90456601D01*
X152901415Y-90448790D01*
X152916656Y-90396326D01*
X152945562Y-90296831D01*
X152947139Y-90276803D01*
X152948307Y-90261958D01*
X152948307Y-90261950D01*
X152948500Y-90259502D01*
X152948500Y-89826498D01*
X152945562Y-89789169D01*
X152915220Y-89684730D01*
X152901357Y-89637012D01*
X152901356Y-89637010D01*
X152899145Y-89629399D01*
X152866735Y-89574596D01*
X152818491Y-89493020D01*
X152818489Y-89493017D01*
X152814453Y-89486193D01*
X152696807Y-89368547D01*
X152689983Y-89364511D01*
X152689980Y-89364509D01*
X152553601Y-89283855D01*
X152554342Y-89282602D01*
X152506419Y-89242725D01*
X152485059Y-89175018D01*
X152503696Y-89106511D01*
X152556412Y-89058955D01*
X152611034Y-89046500D01*
X152765487Y-89046500D01*
X152771939Y-89045128D01*
X152771944Y-89045128D01*
X152858888Y-89026647D01*
X152952288Y-89006794D01*
X152958315Y-89004111D01*
X152958323Y-89004108D01*
X153035544Y-88969727D01*
X153105911Y-88960293D01*
X153170208Y-88990400D01*
X153193936Y-89018530D01*
X153236522Y-89087348D01*
X153361697Y-89212305D01*
X153367927Y-89216145D01*
X153367928Y-89216146D01*
X153505090Y-89300694D01*
X153512262Y-89305115D01*
X153560154Y-89321000D01*
X153673611Y-89358632D01*
X153673613Y-89358632D01*
X153680139Y-89360797D01*
X153686975Y-89361497D01*
X153686978Y-89361498D01*
X153730031Y-89365909D01*
X153784600Y-89371500D01*
X154560400Y-89371500D01*
X154563646Y-89371163D01*
X154563650Y-89371163D01*
X154659308Y-89361238D01*
X154659312Y-89361237D01*
X154666166Y-89360526D01*
X154672702Y-89358345D01*
X154672704Y-89358345D01*
X154804806Y-89314272D01*
X154833946Y-89304550D01*
X154984348Y-89211478D01*
X155028202Y-89167548D01*
X155104131Y-89091486D01*
X155109305Y-89086303D01*
X155112102Y-89081765D01*
X155169353Y-89041176D01*
X155240276Y-89037946D01*
X155301687Y-89073572D01*
X155309062Y-89082068D01*
X155317101Y-89092210D01*
X155326416Y-89101509D01*
X155360497Y-89163790D01*
X155355496Y-89234611D01*
X155313000Y-89291484D01*
X155301540Y-89299138D01*
X155190323Y-89364911D01*
X155177896Y-89374551D01*
X155071551Y-89480896D01*
X155061911Y-89493322D01*
X154985352Y-89622779D01*
X154979107Y-89637210D01*
X154940061Y-89771605D01*
X154940101Y-89785706D01*
X154947370Y-89789000D01*
X156142885Y-89789000D01*
X156158124Y-89784525D01*
X156159329Y-89783135D01*
X156161000Y-89775452D01*
X156161000Y-89429115D01*
X156156525Y-89413876D01*
X156155135Y-89412671D01*
X156147452Y-89411000D01*
X156119500Y-89411000D01*
X156051379Y-89390998D01*
X156004886Y-89337342D01*
X155993500Y-89285000D01*
X155993500Y-89176885D01*
X156501500Y-89176885D01*
X156505975Y-89192124D01*
X156507365Y-89193329D01*
X156515048Y-89195000D01*
X156543000Y-89195000D01*
X156611121Y-89215002D01*
X156657614Y-89268658D01*
X156669000Y-89321000D01*
X156669000Y-89770885D01*
X156673475Y-89786124D01*
X156674865Y-89787329D01*
X156682548Y-89789000D01*
X157876878Y-89789000D01*
X157890409Y-89785027D01*
X157891544Y-89777129D01*
X157850893Y-89637210D01*
X157844648Y-89622779D01*
X157768089Y-89493322D01*
X157758449Y-89480896D01*
X157652104Y-89374551D01*
X157639678Y-89364911D01*
X157510221Y-89288352D01*
X157495790Y-89282107D01*
X157349935Y-89239731D01*
X157337334Y-89237430D01*
X157307563Y-89235087D01*
X157241222Y-89209802D01*
X157199082Y-89152664D01*
X157194523Y-89081814D01*
X157210189Y-89043360D01*
X157272814Y-88941762D01*
X157278963Y-88928576D01*
X157330138Y-88774290D01*
X157333005Y-88760914D01*
X157342672Y-88666562D01*
X157343000Y-88660146D01*
X157343000Y-88410115D01*
X157338525Y-88394876D01*
X157337135Y-88393671D01*
X157329452Y-88392000D01*
X156519615Y-88392000D01*
X156504376Y-88396475D01*
X156503171Y-88397865D01*
X156501500Y-88405548D01*
X156501500Y-89176885D01*
X155993500Y-89176885D01*
X155993500Y-87865885D01*
X156501500Y-87865885D01*
X156505975Y-87881124D01*
X156507365Y-87882329D01*
X156515048Y-87884000D01*
X157324884Y-87884000D01*
X157340123Y-87879525D01*
X157341328Y-87878135D01*
X157342999Y-87870452D01*
X157342999Y-87615905D01*
X157342662Y-87609386D01*
X157332743Y-87513794D01*
X157329851Y-87500400D01*
X157278412Y-87346216D01*
X157272239Y-87333038D01*
X157186937Y-87195193D01*
X157177901Y-87183792D01*
X157063171Y-87069261D01*
X157051760Y-87060249D01*
X156913757Y-86975184D01*
X156900576Y-86969037D01*
X156746290Y-86917862D01*
X156732914Y-86914995D01*
X156638562Y-86905328D01*
X156632145Y-86905000D01*
X156519615Y-86905000D01*
X156504376Y-86909475D01*
X156503171Y-86910865D01*
X156501500Y-86918548D01*
X156501500Y-87865885D01*
X155993500Y-87865885D01*
X155993500Y-86923116D01*
X155989025Y-86907877D01*
X155987635Y-86906672D01*
X155979952Y-86905001D01*
X155862905Y-86905001D01*
X155856386Y-86905338D01*
X155760794Y-86915257D01*
X155747400Y-86918149D01*
X155593216Y-86969588D01*
X155580038Y-86975761D01*
X155442193Y-87061063D01*
X155430792Y-87070099D01*
X155316262Y-87184828D01*
X155309206Y-87193762D01*
X155251288Y-87234823D01*
X155180365Y-87238053D01*
X155118954Y-87202426D01*
X155112154Y-87194593D01*
X155108478Y-87188652D01*
X154983303Y-87063695D01*
X154977072Y-87059854D01*
X154838968Y-86974725D01*
X154838966Y-86974724D01*
X154832738Y-86970885D01*
X154738121Y-86939502D01*
X154671389Y-86917368D01*
X154671387Y-86917368D01*
X154664861Y-86915203D01*
X154658025Y-86914503D01*
X154658022Y-86914502D01*
X154614969Y-86910091D01*
X154560400Y-86904500D01*
X153784600Y-86904500D01*
X153781354Y-86904837D01*
X153781350Y-86904837D01*
X153685692Y-86914762D01*
X153685688Y-86914763D01*
X153678834Y-86915474D01*
X153672298Y-86917655D01*
X153672296Y-86917655D01*
X153606034Y-86939762D01*
X153511054Y-86971450D01*
X153360652Y-87064522D01*
X153355479Y-87069704D01*
X153315071Y-87110183D01*
X153235695Y-87189697D01*
X153231853Y-87195929D01*
X153231852Y-87195931D01*
X153194037Y-87257277D01*
X153141265Y-87304770D01*
X153071193Y-87316192D01*
X153035530Y-87306267D01*
X152958323Y-87271892D01*
X152958315Y-87271889D01*
X152952288Y-87269206D01*
X152858887Y-87249353D01*
X152771944Y-87230872D01*
X152771939Y-87230872D01*
X152765487Y-87229500D01*
X152574513Y-87229500D01*
X152568061Y-87230872D01*
X152568056Y-87230872D01*
X152481113Y-87249353D01*
X152387712Y-87269206D01*
X152381682Y-87271891D01*
X152381681Y-87271891D01*
X152219278Y-87344197D01*
X152219276Y-87344198D01*
X152213248Y-87346882D01*
X152207907Y-87350762D01*
X152207906Y-87350763D01*
X152080329Y-87443454D01*
X152058747Y-87459134D01*
X152054332Y-87464037D01*
X152049420Y-87468460D01*
X152048295Y-87467211D01*
X151994986Y-87500051D01*
X151961800Y-87504500D01*
X150208767Y-87504500D01*
X150197584Y-87503973D01*
X150190091Y-87502298D01*
X150182165Y-87502547D01*
X150182164Y-87502547D01*
X150122014Y-87504438D01*
X150118055Y-87504500D01*
X150090144Y-87504500D01*
X150086210Y-87504997D01*
X150086209Y-87504997D01*
X150086144Y-87505005D01*
X150074307Y-87505938D01*
X150045792Y-87506834D01*
X150038029Y-87507078D01*
X150030110Y-87507327D01*
X150012454Y-87512456D01*
X150010658Y-87512978D01*
X149991306Y-87516986D01*
X149984235Y-87517880D01*
X149971203Y-87519526D01*
X149963834Y-87522443D01*
X149963832Y-87522444D01*
X149930097Y-87535800D01*
X149918869Y-87539645D01*
X149876407Y-87551982D01*
X149869585Y-87556016D01*
X149869579Y-87556019D01*
X149858968Y-87562294D01*
X149841218Y-87570990D01*
X149829756Y-87575528D01*
X149829751Y-87575531D01*
X149822383Y-87578448D01*
X149815968Y-87583109D01*
X149786625Y-87604427D01*
X149776707Y-87610943D01*
X149763737Y-87618614D01*
X149738637Y-87633458D01*
X149724313Y-87647782D01*
X149709281Y-87660621D01*
X149692893Y-87672528D01*
X149664712Y-87706593D01*
X149656722Y-87715373D01*
X148467747Y-88904348D01*
X148459461Y-88911888D01*
X148452982Y-88916000D01*
X148447557Y-88921777D01*
X148406357Y-88965651D01*
X148403602Y-88968493D01*
X148383865Y-88988230D01*
X148381385Y-88991427D01*
X148373682Y-89000447D01*
X148343414Y-89032679D01*
X148339595Y-89039625D01*
X148339593Y-89039628D01*
X148333652Y-89050434D01*
X148322801Y-89066953D01*
X148310386Y-89082959D01*
X148307241Y-89090228D01*
X148307238Y-89090232D01*
X148292826Y-89123537D01*
X148287609Y-89134187D01*
X148266305Y-89172940D01*
X148264334Y-89180615D01*
X148264334Y-89180616D01*
X148263944Y-89182134D01*
X148261631Y-89191146D01*
X148261267Y-89192562D01*
X148254863Y-89211266D01*
X148253104Y-89215332D01*
X148246819Y-89229855D01*
X148245580Y-89237678D01*
X148245577Y-89237688D01*
X148239901Y-89273524D01*
X148237495Y-89285144D01*
X148233771Y-89299649D01*
X148226500Y-89327970D01*
X148226500Y-89348224D01*
X148224949Y-89367934D01*
X148221780Y-89387943D01*
X148222526Y-89395835D01*
X148225941Y-89431961D01*
X148226500Y-89443819D01*
X148226500Y-90276803D01*
X148206498Y-90344924D01*
X148152842Y-90391417D01*
X148140377Y-90396326D01*
X148092998Y-90412133D01*
X148092996Y-90412134D01*
X148086054Y-90414450D01*
X148079830Y-90418301D01*
X148079829Y-90418302D01*
X148007241Y-90463221D01*
X147935652Y-90507522D01*
X147930479Y-90512704D01*
X147924742Y-90517251D01*
X147923402Y-90515560D01*
X147870431Y-90544543D01*
X147799611Y-90539538D01*
X147762672Y-90515843D01*
X147761917Y-90516799D01*
X147744760Y-90503249D01*
X147606757Y-90418184D01*
X147593576Y-90412037D01*
X147439290Y-90360862D01*
X147425914Y-90357995D01*
X147331562Y-90348328D01*
X147325145Y-90348000D01*
X147100115Y-90348000D01*
X147084876Y-90352475D01*
X147083671Y-90353865D01*
X147082000Y-90361548D01*
X147082000Y-91584000D01*
X147061998Y-91652121D01*
X147008342Y-91698614D01*
X146956000Y-91710000D01*
X143606116Y-91710000D01*
X143590877Y-91714475D01*
X143589672Y-91715865D01*
X143588001Y-91723548D01*
X143588001Y-91853095D01*
X143588338Y-91859614D01*
X143598257Y-91955206D01*
X143601149Y-91968600D01*
X143654745Y-92129249D01*
X143657329Y-92200199D01*
X143621145Y-92261283D01*
X143557681Y-92293107D01*
X143487086Y-92285568D01*
X143446126Y-92258220D01*
X143187122Y-91999216D01*
X143153096Y-91936904D01*
X143150907Y-91923291D01*
X143134232Y-91764635D01*
X143134232Y-91764633D01*
X143133542Y-91758072D01*
X143074527Y-91576444D01*
X143066108Y-91561861D01*
X143010684Y-91465865D01*
X142979040Y-91411056D01*
X142959373Y-91389213D01*
X142855675Y-91274045D01*
X142855674Y-91274044D01*
X142851253Y-91269134D01*
X142733918Y-91183885D01*
X143588000Y-91183885D01*
X143592475Y-91199124D01*
X143593865Y-91200329D01*
X143601548Y-91202000D01*
X144523885Y-91202000D01*
X144539124Y-91197525D01*
X144540329Y-91196135D01*
X144542000Y-91188452D01*
X144542000Y-91183885D01*
X145050000Y-91183885D01*
X145054475Y-91199124D01*
X145055865Y-91200329D01*
X145063548Y-91202000D01*
X146555885Y-91202000D01*
X146571124Y-91197525D01*
X146572329Y-91196135D01*
X146574000Y-91188452D01*
X146574000Y-90366116D01*
X146569525Y-90350877D01*
X146568135Y-90349672D01*
X146560452Y-90348001D01*
X146330905Y-90348001D01*
X146324386Y-90348338D01*
X146228794Y-90358257D01*
X146215400Y-90361149D01*
X146061216Y-90412588D01*
X146048038Y-90418761D01*
X145910193Y-90504063D01*
X145893055Y-90517646D01*
X145891704Y-90515942D01*
X145838786Y-90544896D01*
X145767966Y-90539893D01*
X145730606Y-90515926D01*
X145729917Y-90516799D01*
X145712760Y-90503249D01*
X145574757Y-90418184D01*
X145561576Y-90412037D01*
X145407290Y-90360862D01*
X145393914Y-90357995D01*
X145299562Y-90348328D01*
X145293145Y-90348000D01*
X145068115Y-90348000D01*
X145052876Y-90352475D01*
X145051671Y-90353865D01*
X145050000Y-90361548D01*
X145050000Y-91183885D01*
X144542000Y-91183885D01*
X144542000Y-90366116D01*
X144537525Y-90350877D01*
X144536135Y-90349672D01*
X144528452Y-90348001D01*
X144298905Y-90348001D01*
X144292386Y-90348338D01*
X144196794Y-90358257D01*
X144183400Y-90361149D01*
X144029216Y-90412588D01*
X144016038Y-90418761D01*
X143878193Y-90504063D01*
X143866792Y-90513099D01*
X143752261Y-90627829D01*
X143743249Y-90639240D01*
X143658184Y-90777243D01*
X143652037Y-90790424D01*
X143600862Y-90944710D01*
X143597995Y-90958086D01*
X143588328Y-91052438D01*
X143588000Y-91058855D01*
X143588000Y-91183885D01*
X142733918Y-91183885D01*
X142696752Y-91156882D01*
X142690724Y-91154198D01*
X142690722Y-91154197D01*
X142528319Y-91081891D01*
X142528318Y-91081891D01*
X142522288Y-91079206D01*
X142426545Y-91058855D01*
X142341944Y-91040872D01*
X142341939Y-91040872D01*
X142335487Y-91039500D01*
X142144513Y-91039500D01*
X142138061Y-91040872D01*
X142138056Y-91040872D01*
X142053455Y-91058855D01*
X141957712Y-91079206D01*
X141951682Y-91081891D01*
X141951681Y-91081891D01*
X141789278Y-91154197D01*
X141789276Y-91154198D01*
X141783248Y-91156882D01*
X141628747Y-91269134D01*
X141624326Y-91274044D01*
X141624325Y-91274045D01*
X141520628Y-91389213D01*
X141500960Y-91411056D01*
X141469316Y-91465865D01*
X141413893Y-91561861D01*
X141405473Y-91576444D01*
X141346458Y-91758072D01*
X141345768Y-91764633D01*
X141345768Y-91764635D01*
X141333611Y-91880303D01*
X141326496Y-91948000D01*
X141327186Y-91954565D01*
X141344360Y-92117962D01*
X141346458Y-92137928D01*
X141405473Y-92319556D01*
X141408776Y-92325278D01*
X141408777Y-92325279D01*
X141427786Y-92358203D01*
X141500960Y-92484944D01*
X141505378Y-92489851D01*
X141505379Y-92489852D01*
X141600696Y-92595712D01*
X141628747Y-92626866D01*
X141677037Y-92661951D01*
X141769084Y-92728827D01*
X141783248Y-92739118D01*
X141789276Y-92741802D01*
X141789278Y-92741803D01*
X141946329Y-92811726D01*
X141957712Y-92816794D01*
X142051113Y-92836647D01*
X142138056Y-92855128D01*
X142138061Y-92855128D01*
X142144513Y-92856500D01*
X142200406Y-92856500D01*
X142268527Y-92876502D01*
X142289497Y-92893401D01*
X143244359Y-93848264D01*
X143251888Y-93856538D01*
X143256000Y-93863018D01*
X143261777Y-93868443D01*
X143305651Y-93909643D01*
X143308493Y-93912398D01*
X143328230Y-93932135D01*
X143331427Y-93934615D01*
X143340447Y-93942318D01*
X143372679Y-93972586D01*
X143379625Y-93976405D01*
X143379628Y-93976407D01*
X143390434Y-93982348D01*
X143406953Y-93993199D01*
X143422959Y-94005614D01*
X143430228Y-94008759D01*
X143430232Y-94008762D01*
X143463537Y-94023174D01*
X143474187Y-94028391D01*
X143512940Y-94049695D01*
X143520615Y-94051666D01*
X143520616Y-94051666D01*
X143532562Y-94054733D01*
X143551267Y-94061137D01*
X143569855Y-94069181D01*
X143577681Y-94070421D01*
X143580594Y-94071267D01*
X143640429Y-94109481D01*
X143653960Y-94130249D01*
X143654450Y-94129946D01*
X143747522Y-94280348D01*
X143872697Y-94405305D01*
X143878927Y-94409145D01*
X143878928Y-94409146D01*
X144014051Y-94492437D01*
X144023262Y-94498115D01*
X144071953Y-94514265D01*
X144076168Y-94515663D01*
X144134527Y-94556094D01*
X144161764Y-94621658D01*
X144162500Y-94635256D01*
X144162500Y-94908233D01*
X144161973Y-94919416D01*
X144160298Y-94926909D01*
X144160547Y-94934835D01*
X144160547Y-94934836D01*
X144162438Y-94994986D01*
X144162500Y-94998945D01*
X144162500Y-95026856D01*
X144162997Y-95030790D01*
X144162997Y-95030791D01*
X144163005Y-95030856D01*
X144163938Y-95042693D01*
X144165327Y-95086889D01*
X144170978Y-95106339D01*
X144174987Y-95125700D01*
X144177526Y-95145797D01*
X144180445Y-95153168D01*
X144180445Y-95153170D01*
X144193804Y-95186912D01*
X144197649Y-95198142D01*
X144209982Y-95240593D01*
X144214015Y-95247412D01*
X144214017Y-95247417D01*
X144220293Y-95258028D01*
X144228988Y-95275776D01*
X144236448Y-95294617D01*
X144241110Y-95301033D01*
X144241110Y-95301034D01*
X144262436Y-95330387D01*
X144268952Y-95340307D01*
X144280722Y-95360208D01*
X144291458Y-95378362D01*
X144305779Y-95392683D01*
X144318619Y-95407716D01*
X144330528Y-95424107D01*
X144364605Y-95452298D01*
X144373384Y-95460288D01*
X144566595Y-95653499D01*
X144600621Y-95715811D01*
X144603500Y-95742594D01*
X144603500Y-96378400D01*
X144603837Y-96381646D01*
X144603837Y-96381650D01*
X144608202Y-96423715D01*
X144614474Y-96484166D01*
X144616655Y-96490702D01*
X144616655Y-96490704D01*
X144621751Y-96505978D01*
X144670450Y-96651946D01*
X144763522Y-96802348D01*
X144888697Y-96927305D01*
X144892916Y-96929906D01*
X144933417Y-96987030D01*
X144936649Y-97057953D01*
X144901024Y-97119365D01*
X144893470Y-97125922D01*
X144887652Y-97129522D01*
X144762695Y-97254697D01*
X144758855Y-97260927D01*
X144758854Y-97260928D01*
X144683455Y-97383248D01*
X144669885Y-97405262D01*
X144614203Y-97573139D01*
X144611908Y-97572378D01*
X144588835Y-97618144D01*
X144527122Y-97688144D01*
X144521880Y-97694090D01*
X144449215Y-97836704D01*
X144447485Y-97844443D01*
X144447484Y-97844446D01*
X144416028Y-97985168D01*
X144414298Y-97992909D01*
X144414547Y-98000834D01*
X144413801Y-98008728D01*
X144411859Y-98008544D01*
X144396619Y-98067200D01*
X144344449Y-98115354D01*
X144274527Y-98127659D01*
X144209052Y-98100208D01*
X144199440Y-98091535D01*
X143505652Y-97397747D01*
X143498112Y-97389461D01*
X143494000Y-97382982D01*
X143444348Y-97336356D01*
X143441507Y-97333602D01*
X143421770Y-97313865D01*
X143418573Y-97311385D01*
X143409551Y-97303680D01*
X143400530Y-97295209D01*
X143377321Y-97273414D01*
X143370375Y-97269595D01*
X143370372Y-97269593D01*
X143359566Y-97263652D01*
X143343047Y-97252801D01*
X143338813Y-97249517D01*
X143327041Y-97240386D01*
X143319772Y-97237241D01*
X143319768Y-97237238D01*
X143286463Y-97222826D01*
X143275813Y-97217609D01*
X143237060Y-97196305D01*
X143224060Y-97192967D01*
X143217438Y-97191267D01*
X143198734Y-97184863D01*
X143187420Y-97179967D01*
X143187419Y-97179967D01*
X143180145Y-97176819D01*
X143172322Y-97175580D01*
X143172312Y-97175577D01*
X143136476Y-97169901D01*
X143124856Y-97167495D01*
X143089711Y-97158472D01*
X143089710Y-97158472D01*
X143082030Y-97156500D01*
X143061776Y-97156500D01*
X143042065Y-97154949D01*
X143029886Y-97153020D01*
X143022057Y-97151780D01*
X142995346Y-97154305D01*
X142978039Y-97155941D01*
X142966181Y-97156500D01*
X142905004Y-97156500D01*
X142836883Y-97136498D01*
X142801791Y-97102771D01*
X142712136Y-96974730D01*
X142712134Y-96974727D01*
X142708977Y-96970219D01*
X142551781Y-96813023D01*
X142547273Y-96809866D01*
X142547270Y-96809864D01*
X142418775Y-96719891D01*
X142369677Y-96685512D01*
X142364695Y-96683189D01*
X142364690Y-96683186D01*
X142259627Y-96634195D01*
X142206342Y-96587278D01*
X142186881Y-96519001D01*
X142207423Y-96451041D01*
X142259627Y-96405805D01*
X142364690Y-96356814D01*
X142364695Y-96356811D01*
X142369677Y-96354488D01*
X142502389Y-96261562D01*
X142547270Y-96230136D01*
X142547273Y-96230134D01*
X142551781Y-96226977D01*
X142708977Y-96069781D01*
X142715592Y-96060335D01*
X142833331Y-95892185D01*
X142833332Y-95892183D01*
X142836488Y-95887676D01*
X142838811Y-95882694D01*
X142838814Y-95882689D01*
X142928117Y-95691178D01*
X142928118Y-95691177D01*
X142930440Y-95686196D01*
X142987978Y-95471463D01*
X143007353Y-95250000D01*
X142987978Y-95028537D01*
X142935544Y-94832851D01*
X142931863Y-94819114D01*
X142931862Y-94819112D01*
X142930440Y-94813804D01*
X142926801Y-94806000D01*
X142838814Y-94617311D01*
X142838811Y-94617306D01*
X142836488Y-94612324D01*
X142830697Y-94604053D01*
X142712136Y-94434730D01*
X142712134Y-94434727D01*
X142708977Y-94430219D01*
X142551781Y-94273023D01*
X142547273Y-94269866D01*
X142547270Y-94269864D01*
X142429639Y-94187498D01*
X142369677Y-94145512D01*
X142364695Y-94143189D01*
X142364690Y-94143186D01*
X142173178Y-94053883D01*
X142173177Y-94053882D01*
X142168196Y-94051560D01*
X142162888Y-94050138D01*
X142162886Y-94050137D01*
X142081747Y-94028396D01*
X141953463Y-93994022D01*
X141732000Y-93974647D01*
X141510537Y-93994022D01*
X141382253Y-94028396D01*
X141301114Y-94050137D01*
X141301112Y-94050138D01*
X141295804Y-94051560D01*
X141290823Y-94053882D01*
X141290822Y-94053883D01*
X141099311Y-94143186D01*
X141099306Y-94143189D01*
X141094324Y-94145512D01*
X141089817Y-94148668D01*
X141089815Y-94148669D01*
X140916730Y-94269864D01*
X140916727Y-94269866D01*
X140912219Y-94273023D01*
X140755023Y-94430219D01*
X140751866Y-94434727D01*
X140751864Y-94434730D01*
X140633303Y-94604053D01*
X140627512Y-94612324D01*
X140625189Y-94617306D01*
X140625186Y-94617311D01*
X140537199Y-94806000D01*
X140533560Y-94813804D01*
X140532138Y-94819112D01*
X140532137Y-94819114D01*
X140528456Y-94832851D01*
X140476022Y-95028537D01*
X140456647Y-95250000D01*
X140476022Y-95471463D01*
X140533560Y-95686196D01*
X140535882Y-95691177D01*
X140535883Y-95691178D01*
X140625186Y-95882689D01*
X140625189Y-95882694D01*
X140627512Y-95887676D01*
X140630668Y-95892183D01*
X140630669Y-95892185D01*
X140748409Y-96060335D01*
X140755023Y-96069781D01*
X140912219Y-96226977D01*
X140916727Y-96230134D01*
X140916730Y-96230136D01*
X140961611Y-96261562D01*
X141094323Y-96354488D01*
X141099305Y-96356811D01*
X141099310Y-96356814D01*
X141204373Y-96405805D01*
X141257658Y-96452722D01*
X141277119Y-96520999D01*
X141256577Y-96588959D01*
X141204373Y-96634195D01*
X141099311Y-96683186D01*
X141099306Y-96683189D01*
X141094324Y-96685512D01*
X141089817Y-96688668D01*
X141089815Y-96688669D01*
X140916730Y-96809864D01*
X140916727Y-96809866D01*
X140912219Y-96813023D01*
X140755023Y-96970219D01*
X140751866Y-96974727D01*
X140751864Y-96974730D01*
X140638593Y-97136498D01*
X140627512Y-97152324D01*
X140625189Y-97157306D01*
X140625186Y-97157311D01*
X140535883Y-97348822D01*
X140533560Y-97353804D01*
X140476022Y-97568537D01*
X140456647Y-97790000D01*
X140476022Y-98011463D01*
X140533560Y-98226196D01*
X140535882Y-98231177D01*
X140535883Y-98231178D01*
X140625186Y-98422689D01*
X140625189Y-98422694D01*
X140627512Y-98427676D01*
X140630668Y-98432183D01*
X140630669Y-98432185D01*
X140751861Y-98605265D01*
X140755023Y-98609781D01*
X140912219Y-98766977D01*
X140916727Y-98770134D01*
X140916730Y-98770136D01*
X140945910Y-98790568D01*
X141094323Y-98894488D01*
X141099305Y-98896811D01*
X141099310Y-98896814D01*
X141204373Y-98945805D01*
X141257658Y-98992722D01*
X141277119Y-99060999D01*
X141256577Y-99128959D01*
X141204373Y-99174195D01*
X141099311Y-99223186D01*
X141099306Y-99223189D01*
X141094324Y-99225512D01*
X141089817Y-99228668D01*
X141089815Y-99228669D01*
X140916730Y-99349864D01*
X140916727Y-99349866D01*
X140912219Y-99353023D01*
X140755023Y-99510219D01*
X140751866Y-99514727D01*
X140751864Y-99514730D01*
X140638593Y-99676498D01*
X140627512Y-99692324D01*
X140625189Y-99697306D01*
X140625186Y-99697311D01*
X140536124Y-99888306D01*
X140533560Y-99893804D01*
X140476022Y-100108537D01*
X140456647Y-100330000D01*
X140476022Y-100551463D01*
X140490964Y-100607226D01*
X140531565Y-100758749D01*
X140533560Y-100766196D01*
X140535882Y-100771177D01*
X140535883Y-100771178D01*
X140625186Y-100962689D01*
X140625189Y-100962694D01*
X140627512Y-100967676D01*
X140630668Y-100972183D01*
X140630669Y-100972185D01*
X140751700Y-101145035D01*
X140755023Y-101149781D01*
X140912219Y-101306977D01*
X140916727Y-101310134D01*
X140916730Y-101310136D01*
X140931907Y-101320763D01*
X141094323Y-101434488D01*
X141099305Y-101436811D01*
X141099310Y-101436814D01*
X141290822Y-101526117D01*
X141295804Y-101528440D01*
X141301112Y-101529862D01*
X141301114Y-101529863D01*
X141330937Y-101537854D01*
X141510537Y-101585978D01*
X141732000Y-101605353D01*
X141953463Y-101585978D01*
X142133063Y-101537854D01*
X142162886Y-101529863D01*
X142162888Y-101529862D01*
X142168196Y-101528440D01*
X142173178Y-101526117D01*
X142364690Y-101436814D01*
X142364695Y-101436811D01*
X142369677Y-101434488D01*
X142532093Y-101320763D01*
X142547270Y-101310136D01*
X142547273Y-101310134D01*
X142551781Y-101306977D01*
X142708977Y-101149781D01*
X142712301Y-101145035D01*
X142801791Y-101017229D01*
X142857248Y-100972901D01*
X142905004Y-100963500D01*
X153231994Y-100963500D01*
X153300115Y-100983502D01*
X153346608Y-101037158D01*
X153356712Y-101107432D01*
X153327218Y-101172012D01*
X153267492Y-101210396D01*
X153258190Y-101212747D01*
X153133712Y-101239206D01*
X153127682Y-101241891D01*
X153127681Y-101241891D01*
X152965278Y-101314197D01*
X152965276Y-101314198D01*
X152959248Y-101316882D01*
X152804747Y-101429134D01*
X152800326Y-101434044D01*
X152800325Y-101434045D01*
X152697631Y-101548099D01*
X152676960Y-101571056D01*
X152624754Y-101661479D01*
X152595111Y-101712823D01*
X152581473Y-101736444D01*
X152522458Y-101918072D01*
X152521768Y-101924633D01*
X152521768Y-101924635D01*
X152509348Y-102042805D01*
X152502496Y-102108000D01*
X152522458Y-102297928D01*
X152557134Y-102404650D01*
X152571403Y-102448564D01*
X152573431Y-102519531D01*
X152536768Y-102580329D01*
X152473056Y-102611655D01*
X152451570Y-102613500D01*
X151453866Y-102613500D01*
X151391684Y-102620255D01*
X151255295Y-102671385D01*
X151138739Y-102758739D01*
X151051385Y-102875295D01*
X151000255Y-103011684D01*
X150993500Y-103073866D01*
X150993500Y-104670134D01*
X151000255Y-104732316D01*
X151051385Y-104868705D01*
X151056770Y-104875890D01*
X151056771Y-104875892D01*
X151109640Y-104946435D01*
X151134488Y-105012942D01*
X151119435Y-105082324D01*
X151109640Y-105097565D01*
X151056771Y-105168108D01*
X151051385Y-105175295D01*
X151000255Y-105311684D01*
X150997415Y-105310619D01*
X150969238Y-105359949D01*
X150906285Y-105392773D01*
X150835579Y-105386352D01*
X150825742Y-105381601D01*
X150824752Y-105380882D01*
X150818723Y-105378198D01*
X150818720Y-105378196D01*
X150656319Y-105305891D01*
X150656318Y-105305891D01*
X150650288Y-105303206D01*
X150556888Y-105283353D01*
X150469944Y-105264872D01*
X150469939Y-105264872D01*
X150463487Y-105263500D01*
X150272513Y-105263500D01*
X150266061Y-105264872D01*
X150266056Y-105264872D01*
X150179113Y-105283353D01*
X150085712Y-105303206D01*
X150079682Y-105305891D01*
X150079681Y-105305891D01*
X149917278Y-105378197D01*
X149917276Y-105378198D01*
X149911248Y-105380882D01*
X149905907Y-105384762D01*
X149905906Y-105384763D01*
X149867730Y-105412500D01*
X149756747Y-105493134D01*
X149752332Y-105498037D01*
X149747420Y-105502460D01*
X149746295Y-105501211D01*
X149692986Y-105534051D01*
X149659800Y-105538500D01*
X147836500Y-105538500D01*
X147768379Y-105518498D01*
X147721886Y-105464842D01*
X147710500Y-105412500D01*
X147710500Y-104223866D01*
X147703745Y-104161684D01*
X147652615Y-104025295D01*
X147565261Y-103908739D01*
X147448705Y-103821385D01*
X147312316Y-103770255D01*
X147250134Y-103763500D01*
X145153866Y-103763500D01*
X145091684Y-103770255D01*
X144955295Y-103821385D01*
X144838739Y-103908739D01*
X144751385Y-104025295D01*
X144700255Y-104161684D01*
X144693500Y-104223866D01*
X144693500Y-104650500D01*
X144673498Y-104718621D01*
X144619842Y-104765114D01*
X144567500Y-104776500D01*
X142905004Y-104776500D01*
X142836883Y-104756498D01*
X142801791Y-104722771D01*
X142712136Y-104594730D01*
X142712134Y-104594727D01*
X142708977Y-104590219D01*
X142551781Y-104433023D01*
X142547273Y-104429866D01*
X142547270Y-104429864D01*
X142456747Y-104366479D01*
X142369677Y-104305512D01*
X142364695Y-104303189D01*
X142364690Y-104303186D01*
X142173178Y-104213883D01*
X142173177Y-104213882D01*
X142168196Y-104211560D01*
X142162888Y-104210138D01*
X142162886Y-104210137D01*
X142093712Y-104191602D01*
X141953463Y-104154022D01*
X141732000Y-104134647D01*
X141510537Y-104154022D01*
X141370288Y-104191602D01*
X141301114Y-104210137D01*
X141301112Y-104210138D01*
X141295804Y-104211560D01*
X141290823Y-104213882D01*
X141290822Y-104213883D01*
X141099311Y-104303186D01*
X141099306Y-104303189D01*
X141094324Y-104305512D01*
X141089817Y-104308668D01*
X141089815Y-104308669D01*
X140916730Y-104429864D01*
X140916727Y-104429866D01*
X140912219Y-104433023D01*
X140755023Y-104590219D01*
X140751866Y-104594727D01*
X140751864Y-104594730D01*
X140638593Y-104756498D01*
X140627512Y-104772324D01*
X140625189Y-104777306D01*
X140625186Y-104777311D01*
X140539215Y-104961676D01*
X140533560Y-104973804D01*
X140476022Y-105188537D01*
X140456647Y-105410000D01*
X140476022Y-105631463D01*
X140509768Y-105757402D01*
X140518000Y-105788124D01*
X140533560Y-105846196D01*
X140535882Y-105851177D01*
X140535883Y-105851178D01*
X140625186Y-106042689D01*
X140625189Y-106042694D01*
X140627512Y-106047676D01*
X140630668Y-106052183D01*
X140630669Y-106052185D01*
X140676164Y-106117158D01*
X140755023Y-106229781D01*
X140912219Y-106386977D01*
X140916727Y-106390134D01*
X140916730Y-106390136D01*
X140992495Y-106443187D01*
X141094323Y-106514488D01*
X141099305Y-106516811D01*
X141099310Y-106516814D01*
X141290822Y-106606117D01*
X141295804Y-106608440D01*
X141301112Y-106609862D01*
X141301114Y-106609863D01*
X141366949Y-106627503D01*
X141510537Y-106665978D01*
X141732000Y-106685353D01*
X141953463Y-106665978D01*
X142097051Y-106627503D01*
X142162886Y-106609863D01*
X142162888Y-106609862D01*
X142168196Y-106608440D01*
X142173178Y-106606117D01*
X142364690Y-106516814D01*
X142364695Y-106516811D01*
X142369677Y-106514488D01*
X142471505Y-106443187D01*
X142547270Y-106390136D01*
X142547273Y-106390134D01*
X142551781Y-106386977D01*
X142708977Y-106229781D01*
X142787837Y-106117158D01*
X142801791Y-106097229D01*
X142857248Y-106052901D01*
X142905004Y-106043500D01*
X144567500Y-106043500D01*
X144635621Y-106063502D01*
X144682114Y-106117158D01*
X144693500Y-106169500D01*
X144693500Y-106732405D01*
X144673498Y-106800526D01*
X144656595Y-106821500D01*
X143944500Y-107533595D01*
X143882188Y-107567621D01*
X143855405Y-107570500D01*
X135950595Y-107570500D01*
X135882474Y-107550498D01*
X135861499Y-107533595D01*
X135290404Y-106962499D01*
X135256379Y-106900187D01*
X135253500Y-106873404D01*
X135253500Y-105985515D01*
X135273502Y-105917394D01*
X135327158Y-105870901D01*
X135397432Y-105860797D01*
X135462012Y-105890291D01*
X135493694Y-105932264D01*
X135509288Y-105965705D01*
X135545186Y-106042689D01*
X135545189Y-106042694D01*
X135547512Y-106047676D01*
X135550668Y-106052183D01*
X135550669Y-106052185D01*
X135596164Y-106117158D01*
X135675023Y-106229781D01*
X135832219Y-106386977D01*
X135836727Y-106390134D01*
X135836730Y-106390136D01*
X135912495Y-106443187D01*
X136014323Y-106514488D01*
X136019305Y-106516811D01*
X136019310Y-106516814D01*
X136210822Y-106606117D01*
X136215804Y-106608440D01*
X136221112Y-106609862D01*
X136221114Y-106609863D01*
X136286949Y-106627503D01*
X136430537Y-106665978D01*
X136652000Y-106685353D01*
X136873463Y-106665978D01*
X137017051Y-106627503D01*
X137082886Y-106609863D01*
X137082888Y-106609862D01*
X137088196Y-106608440D01*
X137093178Y-106606117D01*
X137284690Y-106516814D01*
X137284695Y-106516811D01*
X137289677Y-106514488D01*
X137391505Y-106443187D01*
X137467270Y-106390136D01*
X137467273Y-106390134D01*
X137471781Y-106386977D01*
X137628977Y-106229781D01*
X137707837Y-106117158D01*
X137753331Y-106052185D01*
X137753332Y-106052183D01*
X137756488Y-106047676D01*
X137758811Y-106042694D01*
X137758814Y-106042689D01*
X137848117Y-105851178D01*
X137848118Y-105851177D01*
X137850440Y-105846196D01*
X137866001Y-105788124D01*
X137874232Y-105757402D01*
X137907978Y-105631463D01*
X137927353Y-105410000D01*
X137907978Y-105188537D01*
X137850440Y-104973804D01*
X137844785Y-104961676D01*
X137758814Y-104777311D01*
X137758811Y-104777306D01*
X137756488Y-104772324D01*
X137745407Y-104756498D01*
X137632136Y-104594730D01*
X137632134Y-104594727D01*
X137628977Y-104590219D01*
X137471781Y-104433023D01*
X137467273Y-104429866D01*
X137467270Y-104429864D01*
X137376747Y-104366479D01*
X137289677Y-104305512D01*
X137284695Y-104303189D01*
X137284690Y-104303186D01*
X137093178Y-104213883D01*
X137093177Y-104213882D01*
X137088196Y-104211560D01*
X137082888Y-104210138D01*
X137082886Y-104210137D01*
X137013712Y-104191602D01*
X136873463Y-104154022D01*
X136652000Y-104134647D01*
X136430537Y-104154022D01*
X136290288Y-104191602D01*
X136221114Y-104210137D01*
X136221112Y-104210138D01*
X136215804Y-104211560D01*
X136210823Y-104213882D01*
X136210822Y-104213883D01*
X136019311Y-104303186D01*
X136019306Y-104303189D01*
X136014324Y-104305512D01*
X136009817Y-104308668D01*
X136009815Y-104308669D01*
X135836730Y-104429864D01*
X135836727Y-104429866D01*
X135832219Y-104433023D01*
X135675023Y-104590219D01*
X135671866Y-104594727D01*
X135671864Y-104594730D01*
X135558593Y-104756498D01*
X135547512Y-104772324D01*
X135545189Y-104777306D01*
X135545186Y-104777311D01*
X135493695Y-104887735D01*
X135446778Y-104941020D01*
X135378500Y-104960481D01*
X135310541Y-104939939D01*
X135264475Y-104885916D01*
X135253500Y-104834485D01*
X135253500Y-100905515D01*
X135273502Y-100837394D01*
X135327158Y-100790901D01*
X135397432Y-100780797D01*
X135462012Y-100810291D01*
X135493695Y-100852265D01*
X135545186Y-100962689D01*
X135545189Y-100962694D01*
X135547512Y-100967676D01*
X135550668Y-100972183D01*
X135550669Y-100972185D01*
X135671700Y-101145035D01*
X135675023Y-101149781D01*
X135832219Y-101306977D01*
X135836727Y-101310134D01*
X135836730Y-101310136D01*
X135851907Y-101320763D01*
X136014323Y-101434488D01*
X136019305Y-101436811D01*
X136019310Y-101436814D01*
X136210822Y-101526117D01*
X136215804Y-101528440D01*
X136221112Y-101529862D01*
X136221114Y-101529863D01*
X136250937Y-101537854D01*
X136430537Y-101585978D01*
X136652000Y-101605353D01*
X136873463Y-101585978D01*
X137053063Y-101537854D01*
X137082886Y-101529863D01*
X137082888Y-101529862D01*
X137088196Y-101528440D01*
X137093178Y-101526117D01*
X137284690Y-101436814D01*
X137284695Y-101436811D01*
X137289677Y-101434488D01*
X137452093Y-101320763D01*
X137467270Y-101310136D01*
X137467273Y-101310134D01*
X137471781Y-101306977D01*
X137628977Y-101149781D01*
X137632301Y-101145035D01*
X137753331Y-100972185D01*
X137753332Y-100972183D01*
X137756488Y-100967676D01*
X137758811Y-100962694D01*
X137758814Y-100962689D01*
X137848117Y-100771178D01*
X137848118Y-100771177D01*
X137850440Y-100766196D01*
X137852436Y-100758749D01*
X137893036Y-100607226D01*
X137907978Y-100551463D01*
X137927353Y-100330000D01*
X137907978Y-100108537D01*
X137850440Y-99893804D01*
X137847876Y-99888306D01*
X137758814Y-99697311D01*
X137758811Y-99697306D01*
X137756488Y-99692324D01*
X137745407Y-99676498D01*
X137632136Y-99514730D01*
X137632134Y-99514727D01*
X137628977Y-99510219D01*
X137471781Y-99353023D01*
X137467273Y-99349866D01*
X137467270Y-99349864D01*
X137335883Y-99257866D01*
X137289677Y-99225512D01*
X137284695Y-99223189D01*
X137284690Y-99223186D01*
X137179627Y-99174195D01*
X137126342Y-99127278D01*
X137106881Y-99059001D01*
X137127423Y-98991041D01*
X137179627Y-98945805D01*
X137284690Y-98896814D01*
X137284695Y-98896811D01*
X137289677Y-98894488D01*
X137438090Y-98790568D01*
X137467270Y-98770136D01*
X137467273Y-98770134D01*
X137471781Y-98766977D01*
X137628977Y-98609781D01*
X137632140Y-98605265D01*
X137753331Y-98432185D01*
X137753332Y-98432183D01*
X137756488Y-98427676D01*
X137758811Y-98422694D01*
X137758814Y-98422689D01*
X137848117Y-98231178D01*
X137848118Y-98231177D01*
X137850440Y-98226196D01*
X137907978Y-98011463D01*
X137927353Y-97790000D01*
X137907978Y-97568537D01*
X137850440Y-97353804D01*
X137848117Y-97348822D01*
X137758814Y-97157311D01*
X137758811Y-97157306D01*
X137756488Y-97152324D01*
X137745407Y-97136498D01*
X137632136Y-96974730D01*
X137632134Y-96974727D01*
X137628977Y-96970219D01*
X137471781Y-96813023D01*
X137467273Y-96809866D01*
X137467270Y-96809864D01*
X137338775Y-96719891D01*
X137289677Y-96685512D01*
X137284695Y-96683189D01*
X137284690Y-96683186D01*
X137179627Y-96634195D01*
X137126342Y-96587278D01*
X137106881Y-96519001D01*
X137127423Y-96451041D01*
X137179627Y-96405805D01*
X137284690Y-96356814D01*
X137284695Y-96356811D01*
X137289677Y-96354488D01*
X137422389Y-96261562D01*
X137467270Y-96230136D01*
X137467273Y-96230134D01*
X137471781Y-96226977D01*
X137628977Y-96069781D01*
X137635592Y-96060335D01*
X137753331Y-95892185D01*
X137753332Y-95892183D01*
X137756488Y-95887676D01*
X137758811Y-95882694D01*
X137758814Y-95882689D01*
X137848117Y-95691178D01*
X137848118Y-95691177D01*
X137850440Y-95686196D01*
X137907978Y-95471463D01*
X137927353Y-95250000D01*
X137907978Y-95028537D01*
X137855544Y-94832851D01*
X137851863Y-94819114D01*
X137851862Y-94819112D01*
X137850440Y-94813804D01*
X137846801Y-94806000D01*
X137758814Y-94617311D01*
X137758811Y-94617306D01*
X137756488Y-94612324D01*
X137750697Y-94604053D01*
X137632136Y-94434730D01*
X137632134Y-94434727D01*
X137628977Y-94430219D01*
X137471781Y-94273023D01*
X137467273Y-94269866D01*
X137467270Y-94269864D01*
X137349639Y-94187498D01*
X137289677Y-94145512D01*
X137284695Y-94143189D01*
X137284690Y-94143186D01*
X137093178Y-94053883D01*
X137093177Y-94053882D01*
X137088196Y-94051560D01*
X137082888Y-94050138D01*
X137082886Y-94050137D01*
X137001747Y-94028396D01*
X136873463Y-93994022D01*
X136652000Y-93974647D01*
X136430537Y-93994022D01*
X136302253Y-94028396D01*
X136221114Y-94050137D01*
X136221112Y-94050138D01*
X136215804Y-94051560D01*
X136210823Y-94053882D01*
X136210822Y-94053883D01*
X136019311Y-94143186D01*
X136019306Y-94143189D01*
X136014324Y-94145512D01*
X136009817Y-94148668D01*
X136009815Y-94148669D01*
X135836730Y-94269864D01*
X135836727Y-94269866D01*
X135832219Y-94273023D01*
X135675023Y-94430219D01*
X135671866Y-94434727D01*
X135671864Y-94434730D01*
X135553303Y-94604053D01*
X135547512Y-94612324D01*
X135545189Y-94617306D01*
X135545186Y-94617311D01*
X135518526Y-94674485D01*
X135503984Y-94705671D01*
X135493695Y-94727735D01*
X135446778Y-94781020D01*
X135378500Y-94800481D01*
X135310541Y-94779939D01*
X135264475Y-94725916D01*
X135253500Y-94674485D01*
X135253500Y-88470767D01*
X135254027Y-88459584D01*
X135255702Y-88452091D01*
X135253562Y-88384000D01*
X135253500Y-88380043D01*
X135253500Y-88352144D01*
X135252996Y-88348153D01*
X135252064Y-88336320D01*
X135250674Y-88292111D01*
X135248462Y-88284497D01*
X135248461Y-88284492D01*
X135245023Y-88272659D01*
X135241012Y-88253295D01*
X135240925Y-88252602D01*
X135238474Y-88233203D01*
X135235557Y-88225836D01*
X135235556Y-88225831D01*
X135222198Y-88192092D01*
X135218354Y-88180865D01*
X135208230Y-88146022D01*
X135206018Y-88138407D01*
X135195707Y-88120972D01*
X135187012Y-88103224D01*
X135179552Y-88084383D01*
X135153564Y-88048613D01*
X135147048Y-88038693D01*
X135128580Y-88007465D01*
X135128578Y-88007462D01*
X135124542Y-88000638D01*
X135110221Y-87986317D01*
X135097380Y-87971283D01*
X135090131Y-87961306D01*
X135085472Y-87954893D01*
X135079368Y-87949843D01*
X135079363Y-87949838D01*
X135051402Y-87926707D01*
X135042621Y-87918717D01*
X134107647Y-86983742D01*
X134100113Y-86975463D01*
X134096000Y-86968982D01*
X134046348Y-86922356D01*
X134043507Y-86919602D01*
X134023770Y-86899865D01*
X134020573Y-86897385D01*
X134011551Y-86889680D01*
X133979321Y-86859414D01*
X133972375Y-86855595D01*
X133972372Y-86855593D01*
X133961566Y-86849652D01*
X133945047Y-86838801D01*
X133944583Y-86838441D01*
X133929041Y-86826386D01*
X133921772Y-86823241D01*
X133921768Y-86823238D01*
X133888463Y-86808826D01*
X133877813Y-86803609D01*
X133839060Y-86782305D01*
X133819437Y-86777267D01*
X133800734Y-86770863D01*
X133789420Y-86765967D01*
X133789419Y-86765967D01*
X133782145Y-86762819D01*
X133774322Y-86761580D01*
X133774312Y-86761577D01*
X133738476Y-86755901D01*
X133726856Y-86753495D01*
X133691711Y-86744472D01*
X133691710Y-86744472D01*
X133684030Y-86742500D01*
X133663776Y-86742500D01*
X133644065Y-86740949D01*
X133631886Y-86739020D01*
X133624057Y-86737780D01*
X133616165Y-86738526D01*
X133580039Y-86741941D01*
X133568181Y-86742500D01*
X133056500Y-86742500D01*
X132988379Y-86722498D01*
X132941886Y-86668842D01*
X132930500Y-86616500D01*
X132930500Y-86477866D01*
X132923745Y-86415684D01*
X132872615Y-86279295D01*
X132785261Y-86162739D01*
X132668705Y-86075385D01*
X132532316Y-86024255D01*
X132470134Y-86017500D01*
X130673866Y-86017500D01*
X130611684Y-86024255D01*
X130475295Y-86075385D01*
X130358739Y-86162739D01*
X130271385Y-86279295D01*
X130268233Y-86287703D01*
X130226919Y-86397907D01*
X130184277Y-86454671D01*
X130117716Y-86479371D01*
X130048367Y-86464163D01*
X130015743Y-86438476D01*
X129965151Y-86382875D01*
X129965142Y-86382866D01*
X129961670Y-86379051D01*
X129957619Y-86375852D01*
X129957615Y-86375848D01*
X129790414Y-86243800D01*
X129790410Y-86243798D01*
X129786359Y-86240598D01*
X129771163Y-86232209D01*
X129734136Y-86211769D01*
X129590789Y-86132638D01*
X129585920Y-86130914D01*
X129585916Y-86130912D01*
X129385087Y-86059795D01*
X129385083Y-86059794D01*
X129380212Y-86058069D01*
X129375119Y-86057162D01*
X129375116Y-86057161D01*
X129165373Y-86019800D01*
X129165367Y-86019799D01*
X129160284Y-86018894D01*
X129086452Y-86017992D01*
X128942081Y-86016228D01*
X128942079Y-86016228D01*
X128936911Y-86016165D01*
X128716091Y-86049955D01*
X128503756Y-86119357D01*
X128305607Y-86222507D01*
X128301474Y-86225610D01*
X128301471Y-86225612D01*
X128131100Y-86353530D01*
X128126965Y-86356635D01*
X128101541Y-86383240D01*
X127992256Y-86497600D01*
X127972629Y-86518138D01*
X127865201Y-86675621D01*
X127810293Y-86720621D01*
X127739768Y-86728792D01*
X127676021Y-86697538D01*
X127655324Y-86673054D01*
X127574822Y-86548617D01*
X127574820Y-86548614D01*
X127572014Y-86544277D01*
X127421670Y-86379051D01*
X127417619Y-86375852D01*
X127417615Y-86375848D01*
X127250414Y-86243800D01*
X127250410Y-86243798D01*
X127246359Y-86240598D01*
X127231163Y-86232209D01*
X127194136Y-86211769D01*
X127050789Y-86132638D01*
X127045920Y-86130914D01*
X127045916Y-86130912D01*
X126845087Y-86059795D01*
X126845083Y-86059794D01*
X126840212Y-86058069D01*
X126835119Y-86057162D01*
X126835116Y-86057161D01*
X126625373Y-86019800D01*
X126625367Y-86019799D01*
X126620284Y-86018894D01*
X126546452Y-86017992D01*
X126402081Y-86016228D01*
X126402079Y-86016228D01*
X126396911Y-86016165D01*
X126176091Y-86049955D01*
X125963756Y-86119357D01*
X125765607Y-86222507D01*
X125761474Y-86225610D01*
X125761471Y-86225612D01*
X125591100Y-86353530D01*
X125586965Y-86356635D01*
X125561541Y-86383240D01*
X125452256Y-86497600D01*
X125432629Y-86518138D01*
X125325201Y-86675621D01*
X125270293Y-86720621D01*
X125199768Y-86728792D01*
X125136021Y-86697538D01*
X125115324Y-86673054D01*
X125034822Y-86548617D01*
X125034820Y-86548614D01*
X125032014Y-86544277D01*
X124881670Y-86379051D01*
X124877619Y-86375852D01*
X124877615Y-86375848D01*
X124710414Y-86243800D01*
X124710410Y-86243798D01*
X124706359Y-86240598D01*
X124691163Y-86232209D01*
X124654136Y-86211769D01*
X124510789Y-86132638D01*
X124505920Y-86130914D01*
X124505916Y-86130912D01*
X124305087Y-86059795D01*
X124305083Y-86059794D01*
X124300212Y-86058069D01*
X124295119Y-86057162D01*
X124295116Y-86057161D01*
X124085373Y-86019800D01*
X124085367Y-86019799D01*
X124080284Y-86018894D01*
X124006452Y-86017992D01*
X123862081Y-86016228D01*
X123862079Y-86016228D01*
X123856911Y-86016165D01*
X123636091Y-86049955D01*
X123423756Y-86119357D01*
X123225607Y-86222507D01*
X123221474Y-86225610D01*
X123221471Y-86225612D01*
X123051100Y-86353530D01*
X123046965Y-86356635D01*
X123021541Y-86383240D01*
X122912256Y-86497600D01*
X122892629Y-86518138D01*
X122785201Y-86675621D01*
X122730293Y-86720621D01*
X122659768Y-86728792D01*
X122596021Y-86697538D01*
X122575324Y-86673054D01*
X122494822Y-86548617D01*
X122494820Y-86548614D01*
X122492014Y-86544277D01*
X122341670Y-86379051D01*
X122337619Y-86375852D01*
X122337615Y-86375848D01*
X122170414Y-86243800D01*
X122170410Y-86243798D01*
X122166359Y-86240598D01*
X122151163Y-86232209D01*
X122114136Y-86211769D01*
X121970789Y-86132638D01*
X121965920Y-86130914D01*
X121965916Y-86130912D01*
X121765087Y-86059795D01*
X121765083Y-86059794D01*
X121760212Y-86058069D01*
X121755119Y-86057162D01*
X121755116Y-86057161D01*
X121545373Y-86019800D01*
X121545367Y-86019799D01*
X121540284Y-86018894D01*
X121466452Y-86017992D01*
X121322081Y-86016228D01*
X121322079Y-86016228D01*
X121316911Y-86016165D01*
X121096091Y-86049955D01*
X120883756Y-86119357D01*
X120685607Y-86222507D01*
X120681474Y-86225610D01*
X120681471Y-86225612D01*
X120511100Y-86353530D01*
X120506965Y-86356635D01*
X120481541Y-86383240D01*
X120372256Y-86497600D01*
X120352629Y-86518138D01*
X120349720Y-86522403D01*
X120349714Y-86522411D01*
X120337404Y-86540457D01*
X120245204Y-86675618D01*
X120244898Y-86676066D01*
X120189987Y-86721069D01*
X120119462Y-86729240D01*
X120055715Y-86697986D01*
X120035018Y-86673502D01*
X119954426Y-86548926D01*
X119948136Y-86540757D01*
X119804806Y-86383240D01*
X119797273Y-86376215D01*
X119630139Y-86244222D01*
X119621552Y-86238517D01*
X119435117Y-86135599D01*
X119425705Y-86131369D01*
X119224959Y-86060280D01*
X119214988Y-86057646D01*
X119143837Y-86044972D01*
X119130540Y-86046432D01*
X119126000Y-86060989D01*
X119126000Y-87504000D01*
X119105998Y-87572121D01*
X119052342Y-87618614D01*
X119000000Y-87630000D01*
X117555225Y-87630000D01*
X117541694Y-87633973D01*
X117540257Y-87643966D01*
X117570565Y-87778446D01*
X117573645Y-87788275D01*
X117653770Y-87985603D01*
X117658413Y-87994794D01*
X117769694Y-88176388D01*
X117775777Y-88184699D01*
X117915213Y-88345667D01*
X117922580Y-88352883D01*
X118086434Y-88488916D01*
X118094876Y-88494828D01*
X118171686Y-88539712D01*
X118220409Y-88591351D01*
X118233480Y-88661134D01*
X118206748Y-88726906D01*
X118148701Y-88767784D01*
X118108115Y-88774500D01*
X117934768Y-88774500D01*
X117923585Y-88773973D01*
X117916092Y-88772298D01*
X117908166Y-88772547D01*
X117908165Y-88772547D01*
X117848002Y-88774438D01*
X117844044Y-88774500D01*
X117816144Y-88774500D01*
X117812154Y-88775004D01*
X117800320Y-88775936D01*
X117756111Y-88777326D01*
X117748495Y-88779539D01*
X117748493Y-88779539D01*
X117736652Y-88782979D01*
X117717293Y-88786988D01*
X117715983Y-88787154D01*
X117697203Y-88789526D01*
X117689837Y-88792442D01*
X117689831Y-88792444D01*
X117656098Y-88805800D01*
X117644868Y-88809645D01*
X117610017Y-88819770D01*
X117602407Y-88821981D01*
X117595584Y-88826016D01*
X117584966Y-88832295D01*
X117567213Y-88840992D01*
X117565001Y-88841868D01*
X117548383Y-88848448D01*
X117523875Y-88866254D01*
X117512612Y-88874437D01*
X117502695Y-88880951D01*
X117464638Y-88903458D01*
X117450317Y-88917779D01*
X117435284Y-88930619D01*
X117418893Y-88942528D01*
X117411543Y-88951413D01*
X117390712Y-88976593D01*
X117382722Y-88985374D01*
X117011741Y-89356354D01*
X117003463Y-89363887D01*
X116996982Y-89368000D01*
X116991555Y-89373779D01*
X116991553Y-89373781D01*
X116959653Y-89407752D01*
X116898440Y-89443718D01*
X116867802Y-89447500D01*
X116855866Y-89447500D01*
X116793684Y-89454255D01*
X116657295Y-89505385D01*
X116540739Y-89592739D01*
X116540161Y-89591968D01*
X116484783Y-89622208D01*
X116413968Y-89617143D01*
X116357132Y-89574596D01*
X116332321Y-89508076D01*
X116332000Y-89499087D01*
X116332000Y-87110183D01*
X117536389Y-87110183D01*
X117537912Y-87118607D01*
X117550292Y-87122000D01*
X118599885Y-87122000D01*
X118615124Y-87117525D01*
X118616329Y-87116135D01*
X118618000Y-87108452D01*
X118618000Y-86059102D01*
X118614082Y-86045758D01*
X118599806Y-86043771D01*
X118561324Y-86049660D01*
X118551288Y-86052051D01*
X118348868Y-86118212D01*
X118339359Y-86122209D01*
X118150463Y-86220542D01*
X118141738Y-86226036D01*
X117971433Y-86353905D01*
X117963726Y-86360748D01*
X117816590Y-86514717D01*
X117810104Y-86522727D01*
X117690098Y-86698649D01*
X117685000Y-86707623D01*
X117595338Y-86900783D01*
X117591775Y-86910470D01*
X117536389Y-87110183D01*
X116332000Y-87110183D01*
X116332000Y-85470000D01*
X116352002Y-85401879D01*
X116405658Y-85355386D01*
X116458000Y-85344000D01*
X177420000Y-85344000D01*
X177488121Y-85364002D01*
G37*
%TD.AperFunction*%
%TA.AperFunction,Conductor*%
G36*
X120493145Y-92757861D02*
G01*
X120504817Y-92771330D01*
X120540739Y-92819261D01*
X120657295Y-92906615D01*
X120674095Y-92912913D01*
X120690908Y-92919216D01*
X120747672Y-92961859D01*
X120772615Y-93033239D01*
X120773327Y-93055889D01*
X120778978Y-93075339D01*
X120782987Y-93094700D01*
X120785526Y-93114797D01*
X120788445Y-93122168D01*
X120788445Y-93122170D01*
X120801804Y-93155912D01*
X120805649Y-93167142D01*
X120813941Y-93195684D01*
X120817982Y-93209593D01*
X120822015Y-93216412D01*
X120822017Y-93216417D01*
X120828293Y-93227028D01*
X120836988Y-93244776D01*
X120844448Y-93263617D01*
X120849110Y-93270033D01*
X120849110Y-93270034D01*
X120870436Y-93299387D01*
X120876952Y-93309307D01*
X120894123Y-93338341D01*
X120899458Y-93347362D01*
X120913779Y-93361683D01*
X120926619Y-93376716D01*
X120938528Y-93393107D01*
X120944632Y-93398157D01*
X120944637Y-93398162D01*
X120964267Y-93414401D01*
X121004006Y-93473235D01*
X121009262Y-93498315D01*
X121010588Y-93510931D01*
X121021824Y-93617834D01*
X121026458Y-93661928D01*
X121085473Y-93843556D01*
X121088776Y-93849278D01*
X121088777Y-93849279D01*
X121105353Y-93877989D01*
X121180960Y-94008944D01*
X121185378Y-94013851D01*
X121185379Y-94013852D01*
X121300136Y-94141303D01*
X121308747Y-94150866D01*
X121392513Y-94211726D01*
X121457564Y-94258988D01*
X121463248Y-94263118D01*
X121469276Y-94265802D01*
X121469278Y-94265803D01*
X121615660Y-94330976D01*
X121637712Y-94340794D01*
X121716453Y-94357531D01*
X121818056Y-94379128D01*
X121818061Y-94379128D01*
X121824513Y-94380500D01*
X122015487Y-94380500D01*
X122021939Y-94379128D01*
X122021944Y-94379128D01*
X122123547Y-94357531D01*
X122202288Y-94340794D01*
X122224340Y-94330976D01*
X122370722Y-94265803D01*
X122370724Y-94265802D01*
X122376752Y-94263118D01*
X122382437Y-94258988D01*
X122447487Y-94211726D01*
X122531253Y-94150866D01*
X122539864Y-94141303D01*
X122654621Y-94013852D01*
X122654622Y-94013851D01*
X122659040Y-94008944D01*
X122732864Y-93881077D01*
X122784246Y-93832084D01*
X122853960Y-93818648D01*
X122919871Y-93845034D01*
X122931078Y-93854982D01*
X124893179Y-95817084D01*
X126837595Y-97761500D01*
X126871621Y-97823812D01*
X126874500Y-97850595D01*
X126874500Y-99373476D01*
X126854498Y-99441597D01*
X126842142Y-99457779D01*
X126768960Y-99539056D01*
X126673473Y-99704444D01*
X126614458Y-99886072D01*
X126613768Y-99892633D01*
X126613768Y-99892635D01*
X126595186Y-100069435D01*
X126594496Y-100076000D01*
X126595186Y-100082565D01*
X126612863Y-100250749D01*
X126614458Y-100265928D01*
X126673473Y-100447556D01*
X126768960Y-100612944D01*
X126773378Y-100617851D01*
X126773379Y-100617852D01*
X126813203Y-100662081D01*
X126896747Y-100754866D01*
X126936285Y-100783592D01*
X127030805Y-100852265D01*
X127051248Y-100867118D01*
X127057276Y-100869802D01*
X127057278Y-100869803D01*
X127219681Y-100942109D01*
X127225712Y-100944794D01*
X127316346Y-100964059D01*
X127406056Y-100983128D01*
X127406061Y-100983128D01*
X127412513Y-100984500D01*
X127603487Y-100984500D01*
X127609939Y-100983128D01*
X127609944Y-100983128D01*
X127699654Y-100964059D01*
X127790288Y-100944794D01*
X127796319Y-100942109D01*
X127958722Y-100869803D01*
X127958724Y-100869802D01*
X127964752Y-100867118D01*
X127985196Y-100852265D01*
X128079715Y-100783592D01*
X128119253Y-100754866D01*
X128202797Y-100662081D01*
X128242621Y-100617852D01*
X128242622Y-100617851D01*
X128247040Y-100612944D01*
X128342527Y-100447556D01*
X128401542Y-100265928D01*
X128401682Y-100264599D01*
X128434482Y-100203844D01*
X128496632Y-100169523D01*
X128567471Y-100174252D01*
X128624508Y-100216528D01*
X128646276Y-100264192D01*
X128646458Y-100265928D01*
X128705473Y-100447556D01*
X128800960Y-100612944D01*
X128805378Y-100617851D01*
X128805379Y-100617852D01*
X128845203Y-100662081D01*
X128928747Y-100754866D01*
X128968285Y-100783592D01*
X129062805Y-100852265D01*
X129083248Y-100867118D01*
X129089276Y-100869802D01*
X129089278Y-100869803D01*
X129251681Y-100942109D01*
X129257712Y-100944794D01*
X129348346Y-100964059D01*
X129438056Y-100983128D01*
X129438061Y-100983128D01*
X129444513Y-100984500D01*
X129635487Y-100984500D01*
X129641939Y-100983128D01*
X129641944Y-100983128D01*
X129731654Y-100964059D01*
X129822288Y-100944794D01*
X129828319Y-100942109D01*
X129990722Y-100869803D01*
X129990724Y-100869802D01*
X129996752Y-100867118D01*
X130017196Y-100852265D01*
X130111715Y-100783592D01*
X130151253Y-100754866D01*
X130234797Y-100662081D01*
X130274621Y-100617852D01*
X130274622Y-100617851D01*
X130279040Y-100612944D01*
X130323270Y-100536336D01*
X130374651Y-100487344D01*
X130444365Y-100473908D01*
X130448517Y-100474545D01*
X130454053Y-100475127D01*
X130460513Y-100476500D01*
X130651487Y-100476500D01*
X130657939Y-100475128D01*
X130657944Y-100475128D01*
X130744888Y-100456647D01*
X130838288Y-100436794D01*
X130901928Y-100408460D01*
X131006722Y-100361803D01*
X131006724Y-100361802D01*
X131012752Y-100359118D01*
X131167253Y-100246866D01*
X131275864Y-100126241D01*
X131336310Y-100089001D01*
X131407293Y-100090353D01*
X131466278Y-100129866D01*
X131494536Y-100194997D01*
X131495500Y-100210551D01*
X131495500Y-100354134D01*
X131502255Y-100416316D01*
X131553385Y-100552705D01*
X131640739Y-100669261D01*
X131688660Y-100705176D01*
X131731173Y-100762033D01*
X131736199Y-100832851D01*
X131702139Y-100895145D01*
X131688670Y-100906817D01*
X131640739Y-100942739D01*
X131553385Y-101059295D01*
X131502255Y-101195684D01*
X131495500Y-101257866D01*
X131495500Y-102354134D01*
X131502255Y-102416316D01*
X131553385Y-102552705D01*
X131640739Y-102669261D01*
X131688660Y-102705176D01*
X131731173Y-102762033D01*
X131736199Y-102832851D01*
X131702139Y-102895145D01*
X131688670Y-102906817D01*
X131640739Y-102942739D01*
X131553385Y-103059295D01*
X131502255Y-103195684D01*
X131495500Y-103257866D01*
X131495500Y-104354134D01*
X131495869Y-104357529D01*
X131495869Y-104357533D01*
X131497986Y-104377021D01*
X131485457Y-104446904D01*
X131437136Y-104498919D01*
X131368364Y-104516553D01*
X131300976Y-104494206D01*
X131283627Y-104479723D01*
X131250809Y-104446904D01*
X131059647Y-104255742D01*
X131052113Y-104247463D01*
X131048000Y-104240982D01*
X130998348Y-104194356D01*
X130995507Y-104191602D01*
X130975770Y-104171865D01*
X130972573Y-104169385D01*
X130963551Y-104161680D01*
X130959958Y-104158306D01*
X130931321Y-104131414D01*
X130924375Y-104127595D01*
X130924372Y-104127593D01*
X130913566Y-104121652D01*
X130897047Y-104110801D01*
X130896583Y-104110441D01*
X130881041Y-104098386D01*
X130873772Y-104095241D01*
X130873768Y-104095238D01*
X130840463Y-104080826D01*
X130829813Y-104075609D01*
X130791060Y-104054305D01*
X130771437Y-104049267D01*
X130752734Y-104042863D01*
X130741420Y-104037967D01*
X130741419Y-104037967D01*
X130734145Y-104034819D01*
X130726322Y-104033580D01*
X130726312Y-104033577D01*
X130690476Y-104027901D01*
X130678856Y-104025495D01*
X130643711Y-104016472D01*
X130643710Y-104016472D01*
X130636030Y-104014500D01*
X130615776Y-104014500D01*
X130596065Y-104012949D01*
X130583886Y-104011020D01*
X130576057Y-104009780D01*
X130568165Y-104010526D01*
X130532039Y-104013941D01*
X130520181Y-104014500D01*
X129346594Y-104014500D01*
X129278473Y-103994498D01*
X129257499Y-103977595D01*
X128963122Y-103683218D01*
X128929096Y-103620906D01*
X128926907Y-103607293D01*
X128922934Y-103569486D01*
X128912526Y-103470460D01*
X128910232Y-103448635D01*
X128910232Y-103448633D01*
X128909542Y-103442072D01*
X128850527Y-103260444D01*
X128847078Y-103254469D01*
X128758341Y-103100774D01*
X128755040Y-103095056D01*
X128735961Y-103073866D01*
X128631675Y-102958045D01*
X128631674Y-102958044D01*
X128627253Y-102953134D01*
X128472752Y-102840882D01*
X128466724Y-102838198D01*
X128466722Y-102838197D01*
X128304319Y-102765891D01*
X128304318Y-102765891D01*
X128298288Y-102763206D01*
X128204887Y-102743353D01*
X128117944Y-102724872D01*
X128117939Y-102724872D01*
X128111487Y-102723500D01*
X127920513Y-102723500D01*
X127914061Y-102724872D01*
X127914056Y-102724872D01*
X127827113Y-102743353D01*
X127733712Y-102763206D01*
X127727682Y-102765891D01*
X127727681Y-102765891D01*
X127565278Y-102838197D01*
X127565276Y-102838198D01*
X127559248Y-102840882D01*
X127404747Y-102953134D01*
X127400326Y-102958044D01*
X127400325Y-102958045D01*
X127296040Y-103073866D01*
X127276960Y-103095056D01*
X127273659Y-103100774D01*
X127184923Y-103254469D01*
X127181473Y-103260444D01*
X127122458Y-103442072D01*
X127121768Y-103448633D01*
X127121768Y-103448635D01*
X127109082Y-103569341D01*
X127102496Y-103632000D01*
X127103186Y-103638565D01*
X127118379Y-103783115D01*
X127122458Y-103821928D01*
X127181473Y-104003556D01*
X127184776Y-104009278D01*
X127184777Y-104009279D01*
X127207864Y-104049267D01*
X127276960Y-104168944D01*
X127281378Y-104173851D01*
X127281379Y-104173852D01*
X127336936Y-104235554D01*
X127404747Y-104310866D01*
X127481967Y-104366970D01*
X127554356Y-104419564D01*
X127597710Y-104475787D01*
X127603785Y-104546523D01*
X127570653Y-104609314D01*
X127508833Y-104644226D01*
X127480295Y-104647500D01*
X126855866Y-104647500D01*
X126793684Y-104654255D01*
X126657295Y-104705385D01*
X126540739Y-104792739D01*
X126504824Y-104840660D01*
X126447967Y-104883173D01*
X126377149Y-104888199D01*
X126314855Y-104854139D01*
X126303183Y-104840670D01*
X126267261Y-104792739D01*
X126260081Y-104787358D01*
X126259477Y-104786754D01*
X126225451Y-104724442D01*
X126230516Y-104653627D01*
X126239453Y-104634659D01*
X126257967Y-104602593D01*
X126310527Y-104511556D01*
X126369542Y-104329928D01*
X126371138Y-104314749D01*
X126388814Y-104146565D01*
X126389504Y-104140000D01*
X126385159Y-104098661D01*
X126370232Y-103956635D01*
X126370232Y-103956633D01*
X126369542Y-103950072D01*
X126310527Y-103768444D01*
X126215040Y-103603056D01*
X126198882Y-103585110D01*
X126091675Y-103466045D01*
X126091674Y-103466044D01*
X126087253Y-103461134D01*
X125932752Y-103348882D01*
X125926724Y-103346198D01*
X125926722Y-103346197D01*
X125764319Y-103273891D01*
X125764318Y-103273891D01*
X125758288Y-103271206D01*
X125639050Y-103245861D01*
X125577944Y-103232872D01*
X125577939Y-103232872D01*
X125571487Y-103231500D01*
X125380513Y-103231500D01*
X125374061Y-103232872D01*
X125374056Y-103232872D01*
X125312950Y-103245861D01*
X125193712Y-103271206D01*
X125187682Y-103273891D01*
X125187681Y-103273891D01*
X125025278Y-103346197D01*
X125025276Y-103346198D01*
X125019248Y-103348882D01*
X125013907Y-103352762D01*
X125013906Y-103352763D01*
X124939839Y-103406576D01*
X124864747Y-103461134D01*
X124860332Y-103466037D01*
X124855420Y-103470460D01*
X124854295Y-103469211D01*
X124800986Y-103502051D01*
X124767800Y-103506500D01*
X118442767Y-103506500D01*
X118431584Y-103505973D01*
X118424091Y-103504298D01*
X118416165Y-103504547D01*
X118416164Y-103504547D01*
X118356014Y-103506438D01*
X118352055Y-103506500D01*
X118324144Y-103506500D01*
X118320210Y-103506997D01*
X118320209Y-103506997D01*
X118320144Y-103507005D01*
X118308307Y-103507938D01*
X118276049Y-103508952D01*
X118272030Y-103509078D01*
X118264111Y-103509327D01*
X118244657Y-103514979D01*
X118225300Y-103518987D01*
X118213070Y-103520532D01*
X118213069Y-103520532D01*
X118205203Y-103521526D01*
X118197832Y-103524445D01*
X118197830Y-103524445D01*
X118164088Y-103537804D01*
X118152858Y-103541649D01*
X118118017Y-103551771D01*
X118118016Y-103551771D01*
X118110407Y-103553982D01*
X118103588Y-103558015D01*
X118103583Y-103558017D01*
X118092972Y-103564293D01*
X118075224Y-103572988D01*
X118056383Y-103580448D01*
X118049967Y-103585110D01*
X118049966Y-103585110D01*
X118020613Y-103606436D01*
X118010693Y-103612952D01*
X117979465Y-103631420D01*
X117979462Y-103631422D01*
X117972638Y-103635458D01*
X117958317Y-103649779D01*
X117943284Y-103662619D01*
X117926893Y-103674528D01*
X117921843Y-103680632D01*
X117921838Y-103680637D01*
X117898707Y-103708598D01*
X117890717Y-103717379D01*
X117011742Y-104596353D01*
X117003462Y-104603887D01*
X116996982Y-104608000D01*
X116991553Y-104613781D01*
X116985749Y-104618583D01*
X116920512Y-104646594D01*
X116905431Y-104647500D01*
X116855866Y-104647500D01*
X116793684Y-104654255D01*
X116657295Y-104705385D01*
X116540739Y-104792739D01*
X116540161Y-104791968D01*
X116484783Y-104822208D01*
X116413968Y-104817143D01*
X116357132Y-104774596D01*
X116332321Y-104708076D01*
X116332000Y-104699087D01*
X116332000Y-92912913D01*
X116352002Y-92844792D01*
X116405658Y-92798299D01*
X116475932Y-92788195D01*
X116539066Y-92817029D01*
X116540739Y-92819261D01*
X116657295Y-92906615D01*
X116793684Y-92957745D01*
X116855866Y-92964500D01*
X117952134Y-92964500D01*
X118014316Y-92957745D01*
X118150705Y-92906615D01*
X118267261Y-92819261D01*
X118303176Y-92771340D01*
X118360033Y-92728827D01*
X118430851Y-92723801D01*
X118493145Y-92757861D01*
X118504817Y-92771330D01*
X118540739Y-92819261D01*
X118657295Y-92906615D01*
X118793684Y-92957745D01*
X118855866Y-92964500D01*
X119952134Y-92964500D01*
X120014316Y-92957745D01*
X120150705Y-92906615D01*
X120267261Y-92819261D01*
X120303176Y-92771340D01*
X120360033Y-92728827D01*
X120430851Y-92723801D01*
X120493145Y-92757861D01*
G37*
%TD.AperFunction*%
%TA.AperFunction,Conductor*%
G36*
X177466551Y-92165661D02*
G01*
X177522462Y-92209416D01*
X177546000Y-92282747D01*
X177546000Y-96213253D01*
X177525998Y-96281374D01*
X177472342Y-96327867D01*
X177402068Y-96337971D01*
X177337488Y-96308477D01*
X177297481Y-96242667D01*
X177288117Y-96203662D01*
X177254805Y-96064908D01*
X177247776Y-96047937D01*
X177199936Y-95932444D01*
X177160927Y-95838268D01*
X177032752Y-95629104D01*
X177014206Y-95607389D01*
X176876641Y-95446323D01*
X176873433Y-95442567D01*
X176819496Y-95396500D01*
X176690663Y-95286465D01*
X176690660Y-95286463D01*
X176686896Y-95283248D01*
X176682673Y-95280660D01*
X176682670Y-95280658D01*
X176556823Y-95203540D01*
X176477732Y-95155073D01*
X176331490Y-95094497D01*
X176255665Y-95063089D01*
X176255663Y-95063088D01*
X176251092Y-95061195D01*
X176124450Y-95030791D01*
X176017370Y-95005083D01*
X176017364Y-95005082D01*
X176012557Y-95003928D01*
X175768000Y-94984681D01*
X175523443Y-95003928D01*
X175518636Y-95005082D01*
X175518630Y-95005083D01*
X175411550Y-95030791D01*
X175284908Y-95061195D01*
X175280337Y-95063088D01*
X175280335Y-95063089D01*
X175204510Y-95094497D01*
X175058268Y-95155073D01*
X174979177Y-95203540D01*
X174853330Y-95280658D01*
X174853327Y-95280660D01*
X174849104Y-95283248D01*
X174845340Y-95286463D01*
X174845337Y-95286465D01*
X174716504Y-95396500D01*
X174662567Y-95442567D01*
X174659359Y-95446323D01*
X174521795Y-95607389D01*
X174503248Y-95629104D01*
X174500660Y-95633327D01*
X174500658Y-95633330D01*
X174465209Y-95691178D01*
X174375073Y-95838268D01*
X174373180Y-95842839D01*
X174371721Y-95845703D01*
X174322973Y-95897318D01*
X174259454Y-95914500D01*
X173786768Y-95914500D01*
X173775585Y-95913973D01*
X173768092Y-95912298D01*
X173760166Y-95912547D01*
X173760165Y-95912547D01*
X173700002Y-95914438D01*
X173696044Y-95914500D01*
X173668144Y-95914500D01*
X173664154Y-95915004D01*
X173652320Y-95915936D01*
X173608111Y-95917326D01*
X173600497Y-95919538D01*
X173600492Y-95919539D01*
X173588659Y-95922977D01*
X173569296Y-95926988D01*
X173549203Y-95929526D01*
X173541836Y-95932443D01*
X173541831Y-95932444D01*
X173508092Y-95945802D01*
X173496865Y-95949646D01*
X173454407Y-95961982D01*
X173447581Y-95966019D01*
X173436972Y-95972293D01*
X173419224Y-95980988D01*
X173400383Y-95988448D01*
X173393967Y-95993110D01*
X173393966Y-95993110D01*
X173364613Y-96014436D01*
X173354693Y-96020952D01*
X173323465Y-96039420D01*
X173323462Y-96039422D01*
X173316638Y-96043458D01*
X173302317Y-96057779D01*
X173287284Y-96070619D01*
X173270893Y-96082528D01*
X173265842Y-96088634D01*
X173242702Y-96116605D01*
X173234712Y-96125384D01*
X169700500Y-99659595D01*
X169638188Y-99693621D01*
X169611405Y-99696500D01*
X168711594Y-99696500D01*
X168643473Y-99676498D01*
X168596980Y-99622842D01*
X168586876Y-99552568D01*
X168616370Y-99487988D01*
X168622499Y-99481405D01*
X173403747Y-94700157D01*
X173412037Y-94692613D01*
X173418518Y-94688500D01*
X173436585Y-94669261D01*
X173465158Y-94638833D01*
X173467913Y-94635991D01*
X173487634Y-94616270D01*
X173490112Y-94613075D01*
X173497818Y-94604053D01*
X173522658Y-94577601D01*
X173528086Y-94571821D01*
X173534473Y-94560203D01*
X173537846Y-94554068D01*
X173548699Y-94537545D01*
X173556253Y-94527806D01*
X173561113Y-94521541D01*
X173578676Y-94480957D01*
X173583883Y-94470327D01*
X173605195Y-94431560D01*
X173607166Y-94423883D01*
X173607168Y-94423878D01*
X173610232Y-94411942D01*
X173616638Y-94393230D01*
X173621533Y-94381919D01*
X173624681Y-94374645D01*
X173625921Y-94366817D01*
X173625923Y-94366810D01*
X173631599Y-94330976D01*
X173634005Y-94319356D01*
X173643028Y-94284211D01*
X173643028Y-94284210D01*
X173645000Y-94276530D01*
X173645000Y-94256276D01*
X173646551Y-94236565D01*
X173648480Y-94224385D01*
X173649720Y-94216557D01*
X173649177Y-94210814D01*
X173671011Y-94144267D01*
X173708512Y-94108541D01*
X173823348Y-94037478D01*
X173948305Y-93912303D01*
X173982375Y-93857032D01*
X174037275Y-93767968D01*
X174037276Y-93767966D01*
X174041115Y-93761738D01*
X174066955Y-93683833D01*
X174107386Y-93625473D01*
X174172950Y-93598236D01*
X174186548Y-93597500D01*
X174673233Y-93597500D01*
X174684416Y-93598027D01*
X174691909Y-93599702D01*
X174699835Y-93599453D01*
X174699836Y-93599453D01*
X174759986Y-93597562D01*
X174763945Y-93597500D01*
X174791856Y-93597500D01*
X174795791Y-93597003D01*
X174795856Y-93596995D01*
X174807693Y-93596062D01*
X174839951Y-93595048D01*
X174843970Y-93594922D01*
X174851889Y-93594673D01*
X174871343Y-93589021D01*
X174890700Y-93585013D01*
X174902930Y-93583468D01*
X174902931Y-93583468D01*
X174910797Y-93582474D01*
X174918168Y-93579555D01*
X174918170Y-93579555D01*
X174951912Y-93566196D01*
X174963142Y-93562351D01*
X174997983Y-93552229D01*
X174997984Y-93552229D01*
X175005593Y-93550018D01*
X175012412Y-93545985D01*
X175012417Y-93545983D01*
X175023028Y-93539707D01*
X175040776Y-93531012D01*
X175059617Y-93523552D01*
X175086701Y-93503875D01*
X175095387Y-93497564D01*
X175105307Y-93491048D01*
X175136535Y-93472580D01*
X175136538Y-93472578D01*
X175143362Y-93468542D01*
X175149248Y-93462656D01*
X175149517Y-93462509D01*
X175155228Y-93458079D01*
X175155943Y-93459000D01*
X175211560Y-93428630D01*
X175277281Y-93431918D01*
X175280330Y-93432909D01*
X175284908Y-93434805D01*
X175359131Y-93452624D01*
X175518630Y-93490917D01*
X175518636Y-93490918D01*
X175523443Y-93492072D01*
X175768000Y-93511319D01*
X176012557Y-93492072D01*
X176017364Y-93490918D01*
X176017370Y-93490917D01*
X176168437Y-93454649D01*
X176251092Y-93434805D01*
X176255663Y-93432912D01*
X176255665Y-93432911D01*
X176367241Y-93386694D01*
X176477732Y-93340927D01*
X176618820Y-93254469D01*
X176682670Y-93215342D01*
X176682673Y-93215340D01*
X176686896Y-93212752D01*
X176693794Y-93206861D01*
X176869677Y-93056641D01*
X176873433Y-93053433D01*
X176879382Y-93046468D01*
X177029535Y-92870663D01*
X177029537Y-92870660D01*
X177032752Y-92866896D01*
X177039964Y-92855128D01*
X177099823Y-92757445D01*
X177160927Y-92657732D01*
X177234867Y-92479226D01*
X177252911Y-92435665D01*
X177252912Y-92435663D01*
X177254805Y-92431092D01*
X177297481Y-92253333D01*
X177332833Y-92191764D01*
X177395860Y-92159081D01*
X177466551Y-92165661D01*
G37*
%TD.AperFunction*%
%TA.AperFunction,Conductor*%
G36*
X133357526Y-88029502D02*
G01*
X133378501Y-88046405D01*
X133949596Y-88617501D01*
X133983621Y-88679813D01*
X133986500Y-88706596D01*
X133986500Y-92671953D01*
X133966498Y-92740074D01*
X133912842Y-92786567D01*
X133854024Y-92797705D01*
X133852134Y-92797500D01*
X132500342Y-92797500D01*
X132432221Y-92777498D01*
X132385728Y-92723842D01*
X132375624Y-92653568D01*
X132382360Y-92627270D01*
X132402478Y-92573605D01*
X132406105Y-92558351D01*
X132411631Y-92507486D01*
X132412000Y-92500672D01*
X132412000Y-91478115D01*
X132407525Y-91462876D01*
X132406135Y-91461671D01*
X132398452Y-91460000D01*
X131676115Y-91460000D01*
X131660876Y-91464475D01*
X131659671Y-91465865D01*
X131658000Y-91473548D01*
X131658000Y-92877732D01*
X131637998Y-92945853D01*
X131632826Y-92953297D01*
X131624430Y-92964500D01*
X131553385Y-93059295D01*
X131502255Y-93195684D01*
X131495500Y-93257866D01*
X131495500Y-94354134D01*
X131502255Y-94416316D01*
X131553385Y-94552705D01*
X131640739Y-94669261D01*
X131688660Y-94705176D01*
X131731173Y-94762033D01*
X131736199Y-94832851D01*
X131702139Y-94895145D01*
X131688670Y-94906817D01*
X131640739Y-94942739D01*
X131553385Y-95059295D01*
X131502255Y-95195684D01*
X131495500Y-95257866D01*
X131495500Y-96354134D01*
X131502255Y-96416316D01*
X131553385Y-96552705D01*
X131640739Y-96669261D01*
X131688660Y-96705176D01*
X131731173Y-96762033D01*
X131736199Y-96832851D01*
X131702139Y-96895145D01*
X131688670Y-96906817D01*
X131640739Y-96942739D01*
X131553385Y-97059295D01*
X131502255Y-97195684D01*
X131495500Y-97257866D01*
X131495500Y-98354134D01*
X131502255Y-98416316D01*
X131553385Y-98552705D01*
X131640739Y-98669261D01*
X131688660Y-98705176D01*
X131731173Y-98762033D01*
X131736199Y-98832851D01*
X131702139Y-98895145D01*
X131688670Y-98906817D01*
X131640739Y-98942739D01*
X131553385Y-99059295D01*
X131550233Y-99067703D01*
X131545923Y-99075575D01*
X131543692Y-99074354D01*
X131509136Y-99120362D01*
X131442576Y-99145067D01*
X131373226Y-99129865D01*
X131324669Y-99082375D01*
X131319846Y-99074022D01*
X131295040Y-99031056D01*
X131221863Y-98949785D01*
X131191147Y-98885779D01*
X131189500Y-98865476D01*
X131189500Y-96835789D01*
X131190027Y-96824606D01*
X131191702Y-96817113D01*
X131191275Y-96803509D01*
X131189562Y-96749023D01*
X131189500Y-96745065D01*
X131189500Y-96717166D01*
X131188996Y-96713175D01*
X131188063Y-96701333D01*
X131187916Y-96696629D01*
X131186674Y-96657133D01*
X131184462Y-96649519D01*
X131184461Y-96649514D01*
X131181023Y-96637681D01*
X131177012Y-96618317D01*
X131175467Y-96606086D01*
X131174474Y-96598225D01*
X131171557Y-96590858D01*
X131171556Y-96590853D01*
X131158198Y-96557114D01*
X131154354Y-96545887D01*
X131151701Y-96536757D01*
X131142018Y-96503429D01*
X131131707Y-96485994D01*
X131123012Y-96468246D01*
X131115552Y-96449405D01*
X131089564Y-96413635D01*
X131083048Y-96403715D01*
X131064580Y-96372487D01*
X131064578Y-96372484D01*
X131060542Y-96365660D01*
X131046221Y-96351339D01*
X131033380Y-96336305D01*
X131026131Y-96326328D01*
X131021472Y-96319915D01*
X130987395Y-96291724D01*
X130978616Y-96283734D01*
X130264609Y-95569727D01*
X130230583Y-95507415D01*
X130235648Y-95436600D01*
X130278195Y-95379764D01*
X130318029Y-95361687D01*
X130317548Y-95360208D01*
X130323832Y-95358166D01*
X130330288Y-95356794D01*
X130367319Y-95340307D01*
X130498722Y-95281803D01*
X130498724Y-95281802D01*
X130504752Y-95279118D01*
X130522033Y-95266563D01*
X130568251Y-95232983D01*
X130659253Y-95166866D01*
X130667543Y-95157659D01*
X130782621Y-95029852D01*
X130782622Y-95029851D01*
X130787040Y-95024944D01*
X130855235Y-94906827D01*
X130879223Y-94865279D01*
X130879224Y-94865278D01*
X130882527Y-94859556D01*
X130941542Y-94677928D01*
X130946726Y-94628611D01*
X130960814Y-94494565D01*
X130961504Y-94488000D01*
X130955040Y-94426500D01*
X130942232Y-94304635D01*
X130942232Y-94304633D01*
X130941542Y-94298072D01*
X130882527Y-94116444D01*
X130854000Y-94067033D01*
X130823295Y-94013852D01*
X130787040Y-93951056D01*
X130770004Y-93932135D01*
X130663675Y-93814045D01*
X130663674Y-93814044D01*
X130659253Y-93809134D01*
X130549191Y-93729169D01*
X130510094Y-93700763D01*
X130510093Y-93700762D01*
X130504752Y-93696882D01*
X130498724Y-93694198D01*
X130498722Y-93694197D01*
X130336319Y-93621891D01*
X130336318Y-93621891D01*
X130330288Y-93619206D01*
X130232428Y-93598405D01*
X130149944Y-93580872D01*
X130149939Y-93580872D01*
X130143487Y-93579500D01*
X130087594Y-93579500D01*
X130019473Y-93559498D01*
X129998499Y-93542595D01*
X129635499Y-93179595D01*
X129601473Y-93117283D01*
X129606538Y-93046468D01*
X129649085Y-92989632D01*
X129715605Y-92964821D01*
X129724594Y-92964500D01*
X129952134Y-92964500D01*
X130014316Y-92957745D01*
X130150705Y-92906615D01*
X130267261Y-92819261D01*
X130303487Y-92770925D01*
X130360345Y-92728411D01*
X130431164Y-92723385D01*
X130493457Y-92757445D01*
X130505138Y-92770925D01*
X130535717Y-92811726D01*
X130548276Y-92824285D01*
X130650351Y-92900786D01*
X130665946Y-92909324D01*
X130786394Y-92954478D01*
X130801649Y-92958105D01*
X130852514Y-92963631D01*
X130859328Y-92964000D01*
X131131885Y-92964000D01*
X131147124Y-92959525D01*
X131148329Y-92958135D01*
X131150000Y-92950452D01*
X131150000Y-90933885D01*
X131658000Y-90933885D01*
X131662475Y-90949124D01*
X131663865Y-90950329D01*
X131671548Y-90952000D01*
X132393884Y-90952000D01*
X132409123Y-90947525D01*
X132410328Y-90946135D01*
X132411999Y-90938452D01*
X132411999Y-89911331D01*
X132411629Y-89904510D01*
X132406105Y-89853648D01*
X132402479Y-89838396D01*
X132357324Y-89717946D01*
X132348786Y-89702351D01*
X132272285Y-89600276D01*
X132259724Y-89587715D01*
X132157649Y-89511214D01*
X132142054Y-89502676D01*
X132021606Y-89457522D01*
X132006351Y-89453895D01*
X131955486Y-89448369D01*
X131948672Y-89448000D01*
X131676115Y-89448000D01*
X131660876Y-89452475D01*
X131659671Y-89453865D01*
X131658000Y-89461548D01*
X131658000Y-90933885D01*
X131150000Y-90933885D01*
X131150000Y-89466116D01*
X131145525Y-89450877D01*
X131144135Y-89449672D01*
X131136452Y-89448001D01*
X130859331Y-89448001D01*
X130852510Y-89448371D01*
X130801648Y-89453895D01*
X130786396Y-89457521D01*
X130665946Y-89502676D01*
X130650351Y-89511214D01*
X130548276Y-89587715D01*
X130535717Y-89600274D01*
X130505138Y-89641075D01*
X130448278Y-89683589D01*
X130377460Y-89688614D01*
X130315166Y-89654554D01*
X130303486Y-89641074D01*
X130294209Y-89628695D01*
X130267261Y-89592739D01*
X130150705Y-89505385D01*
X130014316Y-89454255D01*
X129952134Y-89447500D01*
X128855866Y-89447500D01*
X128793684Y-89454255D01*
X128657295Y-89505385D01*
X128540739Y-89592739D01*
X128504824Y-89640660D01*
X128447967Y-89683173D01*
X128377149Y-89688199D01*
X128314855Y-89654139D01*
X128303183Y-89640670D01*
X128267261Y-89592739D01*
X128150705Y-89505385D01*
X128014316Y-89454255D01*
X127952134Y-89447500D01*
X126971595Y-89447500D01*
X126903474Y-89427498D01*
X126882500Y-89410595D01*
X126423318Y-88951413D01*
X126389292Y-88889101D01*
X126394357Y-88818286D01*
X126436904Y-88761450D01*
X126503424Y-88736639D01*
X126517024Y-88736403D01*
X126533698Y-88737015D01*
X126548674Y-88737564D01*
X126548678Y-88737564D01*
X126553837Y-88737753D01*
X126558957Y-88737097D01*
X126558959Y-88737097D01*
X126770288Y-88710025D01*
X126770289Y-88710025D01*
X126775416Y-88709368D01*
X126780369Y-88707882D01*
X126984429Y-88646661D01*
X126984434Y-88646659D01*
X126989384Y-88645174D01*
X127189994Y-88546896D01*
X127371860Y-88417173D01*
X127392631Y-88396475D01*
X127466124Y-88323238D01*
X127530096Y-88259489D01*
X127577844Y-88193041D01*
X127660453Y-88078077D01*
X127661776Y-88079028D01*
X127708645Y-88035857D01*
X127778580Y-88023625D01*
X127844026Y-88051144D01*
X127871875Y-88082994D01*
X127931987Y-88181088D01*
X128078250Y-88349938D01*
X128250126Y-88492632D01*
X128443000Y-88605338D01*
X128447825Y-88607180D01*
X128447826Y-88607181D01*
X128514004Y-88632452D01*
X128651692Y-88685030D01*
X128656760Y-88686061D01*
X128656763Y-88686062D01*
X128757692Y-88706596D01*
X128870597Y-88729567D01*
X128875772Y-88729757D01*
X128875774Y-88729757D01*
X129088673Y-88737564D01*
X129088677Y-88737564D01*
X129093837Y-88737753D01*
X129098957Y-88737097D01*
X129098959Y-88737097D01*
X129310288Y-88710025D01*
X129310289Y-88710025D01*
X129315416Y-88709368D01*
X129320369Y-88707882D01*
X129524429Y-88646661D01*
X129524434Y-88646659D01*
X129529384Y-88645174D01*
X129729994Y-88546896D01*
X129911860Y-88417173D01*
X130020091Y-88309319D01*
X130082462Y-88275404D01*
X130153268Y-88280592D01*
X130210030Y-88323238D01*
X130227012Y-88354341D01*
X130247921Y-88410115D01*
X130271385Y-88472705D01*
X130358739Y-88589261D01*
X130475295Y-88676615D01*
X130611684Y-88727745D01*
X130673866Y-88734500D01*
X132470134Y-88734500D01*
X132532316Y-88727745D01*
X132668705Y-88676615D01*
X132785261Y-88589261D01*
X132872615Y-88472705D01*
X132923745Y-88336316D01*
X132930500Y-88274134D01*
X132930500Y-88135500D01*
X132950502Y-88067379D01*
X133004158Y-88020886D01*
X133056500Y-88009500D01*
X133289405Y-88009500D01*
X133357526Y-88029502D01*
G37*
%TD.AperFunction*%
%TA.AperFunction,Conductor*%
G36*
X167360121Y-94762002D02*
G01*
X167406614Y-94815658D01*
X167418000Y-94868000D01*
X167418000Y-96185884D01*
X167422475Y-96201123D01*
X167423865Y-96202328D01*
X167431548Y-96203999D01*
X167561095Y-96203999D01*
X167567614Y-96203662D01*
X167663206Y-96193743D01*
X167676600Y-96190851D01*
X167830784Y-96139412D01*
X167843962Y-96133239D01*
X167981807Y-96047937D01*
X167993208Y-96038901D01*
X168074430Y-95957538D01*
X168136713Y-95923459D01*
X168207533Y-95928462D01*
X168252620Y-95957383D01*
X168335512Y-96040130D01*
X168335517Y-96040134D01*
X168340697Y-96045305D01*
X168346927Y-96049145D01*
X168346928Y-96049146D01*
X168484288Y-96133816D01*
X168491262Y-96138115D01*
X168571005Y-96164564D01*
X168652611Y-96191632D01*
X168652613Y-96191632D01*
X168659139Y-96193797D01*
X168665975Y-96194497D01*
X168665978Y-96194498D01*
X168709031Y-96198909D01*
X168763600Y-96204500D01*
X169564400Y-96204500D01*
X169567646Y-96204163D01*
X169567650Y-96204163D01*
X169663308Y-96194238D01*
X169663312Y-96194237D01*
X169670166Y-96193526D01*
X169676702Y-96191345D01*
X169676704Y-96191345D01*
X169836460Y-96138046D01*
X169907409Y-96135462D01*
X169968493Y-96171645D01*
X170000318Y-96235110D01*
X169992779Y-96305705D01*
X169965432Y-96346664D01*
X168662418Y-97649677D01*
X167414500Y-98897595D01*
X167352188Y-98931621D01*
X167325405Y-98934500D01*
X151037597Y-98934500D01*
X150969476Y-98914498D01*
X150922983Y-98860842D01*
X150912879Y-98790568D01*
X150918004Y-98768833D01*
X150920260Y-98762033D01*
X150957797Y-98648861D01*
X150968500Y-98544400D01*
X150968500Y-97543600D01*
X150968163Y-97540350D01*
X150958238Y-97444692D01*
X150958237Y-97444688D01*
X150957526Y-97437834D01*
X150951200Y-97418871D01*
X150903868Y-97277002D01*
X150901550Y-97270054D01*
X150808478Y-97119652D01*
X150693651Y-97005025D01*
X150659572Y-96942743D01*
X150664575Y-96871922D01*
X150707072Y-96815050D01*
X150773571Y-96790181D01*
X150848785Y-96808592D01*
X150873666Y-96823929D01*
X150990288Y-96895816D01*
X150997262Y-96900115D01*
X151061109Y-96921292D01*
X151158611Y-96953632D01*
X151158613Y-96953632D01*
X151165139Y-96955797D01*
X151171975Y-96956497D01*
X151171978Y-96956498D01*
X151215031Y-96960909D01*
X151269600Y-96966500D01*
X152070400Y-96966500D01*
X152073646Y-96966163D01*
X152073650Y-96966163D01*
X152169308Y-96956238D01*
X152169312Y-96956237D01*
X152176166Y-96955526D01*
X152182702Y-96953345D01*
X152182704Y-96953345D01*
X152335254Y-96902450D01*
X152343946Y-96899550D01*
X152494348Y-96806478D01*
X152580784Y-96719891D01*
X152643066Y-96685812D01*
X152713886Y-96690815D01*
X152758975Y-96719736D01*
X152798389Y-96759081D01*
X152846697Y-96807305D01*
X152852927Y-96811145D01*
X152852928Y-96811146D01*
X152990288Y-96895816D01*
X152997262Y-96900115D01*
X153061109Y-96921292D01*
X153158611Y-96953632D01*
X153158613Y-96953632D01*
X153165139Y-96955797D01*
X153171975Y-96956497D01*
X153171978Y-96956498D01*
X153215031Y-96960909D01*
X153269600Y-96966500D01*
X154070400Y-96966500D01*
X154073646Y-96966163D01*
X154073650Y-96966163D01*
X154169308Y-96956238D01*
X154169312Y-96956237D01*
X154176166Y-96955526D01*
X154182702Y-96953345D01*
X154182704Y-96953345D01*
X154335254Y-96902450D01*
X154343946Y-96899550D01*
X154421529Y-96851540D01*
X154488126Y-96810329D01*
X154488130Y-96810326D01*
X154494348Y-96806478D01*
X154497706Y-96803114D01*
X154562540Y-96776872D01*
X154632304Y-96790043D01*
X154652169Y-96802785D01*
X154656697Y-96807305D01*
X154731368Y-96853333D01*
X154800288Y-96895816D01*
X154807262Y-96900115D01*
X154871109Y-96921292D01*
X154968611Y-96953632D01*
X154968613Y-96953632D01*
X154975139Y-96955797D01*
X154981975Y-96956497D01*
X154981978Y-96956498D01*
X155025031Y-96960909D01*
X155079600Y-96966500D01*
X155880400Y-96966500D01*
X155883646Y-96966163D01*
X155883650Y-96966163D01*
X155979308Y-96956238D01*
X155979312Y-96956237D01*
X155986166Y-96955526D01*
X155992702Y-96953345D01*
X155992704Y-96953345D01*
X156145254Y-96902450D01*
X156153946Y-96899550D01*
X156304348Y-96806478D01*
X156390784Y-96719891D01*
X156453066Y-96685812D01*
X156523886Y-96690815D01*
X156568975Y-96719736D01*
X156608389Y-96759081D01*
X156656697Y-96807305D01*
X156662927Y-96811145D01*
X156662928Y-96811146D01*
X156800288Y-96895816D01*
X156807262Y-96900115D01*
X156871109Y-96921292D01*
X156968611Y-96953632D01*
X156968613Y-96953632D01*
X156975139Y-96955797D01*
X156981975Y-96956497D01*
X156981978Y-96956498D01*
X157025031Y-96960909D01*
X157079600Y-96966500D01*
X157880400Y-96966500D01*
X157883646Y-96966163D01*
X157883650Y-96966163D01*
X157979308Y-96956238D01*
X157979312Y-96956237D01*
X157986166Y-96955526D01*
X157992702Y-96953345D01*
X157992704Y-96953345D01*
X158145254Y-96902450D01*
X158153946Y-96899550D01*
X158231529Y-96851540D01*
X158298126Y-96810329D01*
X158298130Y-96810326D01*
X158304348Y-96806478D01*
X158307706Y-96803114D01*
X158372540Y-96776872D01*
X158442304Y-96790043D01*
X158462169Y-96802785D01*
X158466697Y-96807305D01*
X158541368Y-96853333D01*
X158610288Y-96895816D01*
X158617262Y-96900115D01*
X158681109Y-96921292D01*
X158778611Y-96953632D01*
X158778613Y-96953632D01*
X158785139Y-96955797D01*
X158791975Y-96956497D01*
X158791978Y-96956498D01*
X158835031Y-96960909D01*
X158889600Y-96966500D01*
X159690400Y-96966500D01*
X159693646Y-96966163D01*
X159693650Y-96966163D01*
X159789308Y-96956238D01*
X159789312Y-96956237D01*
X159796166Y-96955526D01*
X159802702Y-96953345D01*
X159802704Y-96953345D01*
X159955254Y-96902450D01*
X159963946Y-96899550D01*
X160114348Y-96806478D01*
X160200784Y-96719891D01*
X160263066Y-96685812D01*
X160333886Y-96690815D01*
X160378975Y-96719736D01*
X160418389Y-96759081D01*
X160466697Y-96807305D01*
X160472927Y-96811145D01*
X160472928Y-96811146D01*
X160610288Y-96895816D01*
X160617262Y-96900115D01*
X160681109Y-96921292D01*
X160778611Y-96953632D01*
X160778613Y-96953632D01*
X160785139Y-96955797D01*
X160791975Y-96956497D01*
X160791978Y-96956498D01*
X160835031Y-96960909D01*
X160889600Y-96966500D01*
X161690400Y-96966500D01*
X161693646Y-96966163D01*
X161693650Y-96966163D01*
X161789308Y-96956238D01*
X161789312Y-96956237D01*
X161796166Y-96955526D01*
X161802702Y-96953345D01*
X161802704Y-96953345D01*
X161955254Y-96902450D01*
X161963946Y-96899550D01*
X162041529Y-96851540D01*
X162108126Y-96810329D01*
X162108130Y-96810326D01*
X162114348Y-96806478D01*
X162117706Y-96803114D01*
X162182540Y-96776872D01*
X162252304Y-96790043D01*
X162272169Y-96802785D01*
X162276697Y-96807305D01*
X162351368Y-96853333D01*
X162420288Y-96895816D01*
X162427262Y-96900115D01*
X162491109Y-96921292D01*
X162588611Y-96953632D01*
X162588613Y-96953632D01*
X162595139Y-96955797D01*
X162601975Y-96956497D01*
X162601978Y-96956498D01*
X162645031Y-96960909D01*
X162699600Y-96966500D01*
X163500400Y-96966500D01*
X163503646Y-96966163D01*
X163503650Y-96966163D01*
X163599308Y-96956238D01*
X163599312Y-96956237D01*
X163606166Y-96955526D01*
X163612702Y-96953345D01*
X163612704Y-96953345D01*
X163765254Y-96902450D01*
X163773946Y-96899550D01*
X163924348Y-96806478D01*
X163950097Y-96780684D01*
X164011138Y-96719537D01*
X164073421Y-96685458D01*
X164144241Y-96690461D01*
X164189329Y-96719382D01*
X164271829Y-96801739D01*
X164283240Y-96810751D01*
X164421243Y-96895816D01*
X164434424Y-96901963D01*
X164588710Y-96953138D01*
X164602086Y-96956005D01*
X164696438Y-96965672D01*
X164702854Y-96966000D01*
X164827885Y-96966000D01*
X164843124Y-96961525D01*
X164844329Y-96960135D01*
X164846000Y-96952452D01*
X164846000Y-95630000D01*
X164866002Y-95561879D01*
X164919658Y-95515386D01*
X164972000Y-95504000D01*
X165228000Y-95504000D01*
X165296121Y-95524002D01*
X165342614Y-95577658D01*
X165354000Y-95630000D01*
X165354000Y-96947884D01*
X165358475Y-96963123D01*
X165359865Y-96964328D01*
X165367548Y-96965999D01*
X165497095Y-96965999D01*
X165503614Y-96965662D01*
X165599206Y-96955743D01*
X165612600Y-96952851D01*
X165766784Y-96901412D01*
X165779962Y-96895239D01*
X165917807Y-96809937D01*
X165929208Y-96800901D01*
X166043739Y-96686171D01*
X166052751Y-96674760D01*
X166137816Y-96536757D01*
X166143963Y-96523576D01*
X166195138Y-96369290D01*
X166198005Y-96355914D01*
X166207672Y-96261562D01*
X166208000Y-96255146D01*
X166208000Y-96188604D01*
X166228002Y-96120483D01*
X166281658Y-96073990D01*
X166351932Y-96063886D01*
X166400116Y-96081344D01*
X166485243Y-96133816D01*
X166498424Y-96139963D01*
X166652710Y-96191138D01*
X166666086Y-96194005D01*
X166760438Y-96203672D01*
X166766854Y-96204000D01*
X166891885Y-96204000D01*
X166907124Y-96199525D01*
X166908329Y-96198135D01*
X166910000Y-96190452D01*
X166910000Y-94868000D01*
X166930002Y-94799879D01*
X166983658Y-94753386D01*
X167036000Y-94742000D01*
X167292000Y-94742000D01*
X167360121Y-94762002D01*
G37*
%TD.AperFunction*%
%TD*%
M02*
