%TF.GenerationSoftware,KiCad,Pcbnew,(6.0.0)*%
%TF.CreationDate,2022-01-02T18:39:14+01:00*%
%TF.ProjectId,esp-door-phone-monitor-v2,6573702d-646f-46f7-922d-70686f6e652d,rev?*%
%TF.SameCoordinates,Original*%
%TF.FileFunction,Legend,Bot*%
%TF.FilePolarity,Positive*%
%FSLAX46Y46*%
G04 Gerber Fmt 4.6, Leading zero omitted, Abs format (unit mm)*
G04 Created by KiCad (PCBNEW (6.0.0)) date 2022-01-02 18:39:14*
%MOMM*%
%LPD*%
G01*
G04 APERTURE LIST*
%ADD10C,0.150000*%
%ADD11C,0.254000*%
%ADD12C,0.120000*%
%ADD13C,0.200000*%
G04 APERTURE END LIST*
D10*
%TO.C,R6*%
X125928380Y-98893333D02*
X125452190Y-98560000D01*
X125928380Y-98321904D02*
X124928380Y-98321904D01*
X124928380Y-98702857D01*
X124976000Y-98798095D01*
X125023619Y-98845714D01*
X125118857Y-98893333D01*
X125261714Y-98893333D01*
X125356952Y-98845714D01*
X125404571Y-98798095D01*
X125452190Y-98702857D01*
X125452190Y-98321904D01*
X124928380Y-99750476D02*
X124928380Y-99560000D01*
X124976000Y-99464761D01*
X125023619Y-99417142D01*
X125166476Y-99321904D01*
X125356952Y-99274285D01*
X125737904Y-99274285D01*
X125833142Y-99321904D01*
X125880761Y-99369523D01*
X125928380Y-99464761D01*
X125928380Y-99655238D01*
X125880761Y-99750476D01*
X125833142Y-99798095D01*
X125737904Y-99845714D01*
X125499809Y-99845714D01*
X125404571Y-99798095D01*
X125356952Y-99750476D01*
X125309333Y-99655238D01*
X125309333Y-99464761D01*
X125356952Y-99369523D01*
X125404571Y-99321904D01*
X125499809Y-99274285D01*
D11*
%TO.C,Q3*%
X139887476Y-99955047D02*
X139827000Y-99834095D01*
X139706047Y-99713142D01*
X139524619Y-99531714D01*
X139464142Y-99410761D01*
X139464142Y-99289809D01*
X139766523Y-99350285D02*
X139706047Y-99229333D01*
X139585095Y-99108380D01*
X139343190Y-99047904D01*
X138919857Y-99047904D01*
X138677952Y-99108380D01*
X138557000Y-99229333D01*
X138496523Y-99350285D01*
X138496523Y-99592190D01*
X138557000Y-99713142D01*
X138677952Y-99834095D01*
X138919857Y-99894571D01*
X139343190Y-99894571D01*
X139585095Y-99834095D01*
X139706047Y-99713142D01*
X139766523Y-99592190D01*
X139766523Y-99350285D01*
X138496523Y-100317904D02*
X138496523Y-101104095D01*
X138980333Y-100680761D01*
X138980333Y-100862190D01*
X139040809Y-100983142D01*
X139101285Y-101043619D01*
X139222238Y-101104095D01*
X139524619Y-101104095D01*
X139645571Y-101043619D01*
X139706047Y-100983142D01*
X139766523Y-100862190D01*
X139766523Y-100499333D01*
X139706047Y-100378380D01*
X139645571Y-100317904D01*
D10*
%TO.C,R5*%
X119832380Y-99401333D02*
X119356190Y-99068000D01*
X119832380Y-98829904D02*
X118832380Y-98829904D01*
X118832380Y-99210857D01*
X118880000Y-99306095D01*
X118927619Y-99353714D01*
X119022857Y-99401333D01*
X119165714Y-99401333D01*
X119260952Y-99353714D01*
X119308571Y-99306095D01*
X119356190Y-99210857D01*
X119356190Y-98829904D01*
X118832380Y-100306095D02*
X118832380Y-99829904D01*
X119308571Y-99782285D01*
X119260952Y-99829904D01*
X119213333Y-99925142D01*
X119213333Y-100163238D01*
X119260952Y-100258476D01*
X119308571Y-100306095D01*
X119403809Y-100353714D01*
X119641904Y-100353714D01*
X119737142Y-100306095D01*
X119784761Y-100258476D01*
X119832380Y-100163238D01*
X119832380Y-99925142D01*
X119784761Y-99829904D01*
X119737142Y-99782285D01*
%TO.C,R3*%
X117800380Y-99401333D02*
X117324190Y-99068000D01*
X117800380Y-98829904D02*
X116800380Y-98829904D01*
X116800380Y-99210857D01*
X116848000Y-99306095D01*
X116895619Y-99353714D01*
X116990857Y-99401333D01*
X117133714Y-99401333D01*
X117228952Y-99353714D01*
X117276571Y-99306095D01*
X117324190Y-99210857D01*
X117324190Y-98829904D01*
X116800380Y-99734666D02*
X116800380Y-100353714D01*
X117181333Y-100020380D01*
X117181333Y-100163238D01*
X117228952Y-100258476D01*
X117276571Y-100306095D01*
X117371809Y-100353714D01*
X117609904Y-100353714D01*
X117705142Y-100306095D01*
X117752761Y-100258476D01*
X117800380Y-100163238D01*
X117800380Y-99877523D01*
X117752761Y-99782285D01*
X117705142Y-99734666D01*
D11*
%TO.C,Q1*%
X129727476Y-98939047D02*
X129667000Y-98818095D01*
X129546047Y-98697142D01*
X129364619Y-98515714D01*
X129304142Y-98394761D01*
X129304142Y-98273809D01*
X129606523Y-98334285D02*
X129546047Y-98213333D01*
X129425095Y-98092380D01*
X129183190Y-98031904D01*
X128759857Y-98031904D01*
X128517952Y-98092380D01*
X128397000Y-98213333D01*
X128336523Y-98334285D01*
X128336523Y-98576190D01*
X128397000Y-98697142D01*
X128517952Y-98818095D01*
X128759857Y-98878571D01*
X129183190Y-98878571D01*
X129425095Y-98818095D01*
X129546047Y-98697142D01*
X129606523Y-98576190D01*
X129606523Y-98334285D01*
X129606523Y-100088095D02*
X129606523Y-99362380D01*
X129606523Y-99725238D02*
X128336523Y-99725238D01*
X128517952Y-99604285D01*
X128638904Y-99483333D01*
X128699380Y-99362380D01*
%TO.C,Q2*%
X131759476Y-98939047D02*
X131699000Y-98818095D01*
X131578047Y-98697142D01*
X131396619Y-98515714D01*
X131336142Y-98394761D01*
X131336142Y-98273809D01*
X131638523Y-98334285D02*
X131578047Y-98213333D01*
X131457095Y-98092380D01*
X131215190Y-98031904D01*
X130791857Y-98031904D01*
X130549952Y-98092380D01*
X130429000Y-98213333D01*
X130368523Y-98334285D01*
X130368523Y-98576190D01*
X130429000Y-98697142D01*
X130549952Y-98818095D01*
X130791857Y-98878571D01*
X131215190Y-98878571D01*
X131457095Y-98818095D01*
X131578047Y-98697142D01*
X131638523Y-98576190D01*
X131638523Y-98334285D01*
X130489476Y-99362380D02*
X130429000Y-99422857D01*
X130368523Y-99543809D01*
X130368523Y-99846190D01*
X130429000Y-99967142D01*
X130489476Y-100027619D01*
X130610428Y-100088095D01*
X130731380Y-100088095D01*
X130912809Y-100027619D01*
X131638523Y-99301904D01*
X131638523Y-100088095D01*
D10*
%TO.C,R8*%
X127960380Y-98893333D02*
X127484190Y-98560000D01*
X127960380Y-98321904D02*
X126960380Y-98321904D01*
X126960380Y-98702857D01*
X127008000Y-98798095D01*
X127055619Y-98845714D01*
X127150857Y-98893333D01*
X127293714Y-98893333D01*
X127388952Y-98845714D01*
X127436571Y-98798095D01*
X127484190Y-98702857D01*
X127484190Y-98321904D01*
X127388952Y-99464761D02*
X127341333Y-99369523D01*
X127293714Y-99321904D01*
X127198476Y-99274285D01*
X127150857Y-99274285D01*
X127055619Y-99321904D01*
X127008000Y-99369523D01*
X126960380Y-99464761D01*
X126960380Y-99655238D01*
X127008000Y-99750476D01*
X127055619Y-99798095D01*
X127150857Y-99845714D01*
X127198476Y-99845714D01*
X127293714Y-99798095D01*
X127341333Y-99750476D01*
X127388952Y-99655238D01*
X127388952Y-99464761D01*
X127436571Y-99369523D01*
X127484190Y-99321904D01*
X127579428Y-99274285D01*
X127769904Y-99274285D01*
X127865142Y-99321904D01*
X127912761Y-99369523D01*
X127960380Y-99464761D01*
X127960380Y-99655238D01*
X127912761Y-99750476D01*
X127865142Y-99798095D01*
X127769904Y-99845714D01*
X127579428Y-99845714D01*
X127484190Y-99798095D01*
X127436571Y-99750476D01*
X127388952Y-99655238D01*
%TO.C,D4*%
X139930095Y-105608380D02*
X139930095Y-104608380D01*
X139692000Y-104608380D01*
X139549142Y-104656000D01*
X139453904Y-104751238D01*
X139406285Y-104846476D01*
X139358666Y-105036952D01*
X139358666Y-105179809D01*
X139406285Y-105370285D01*
X139453904Y-105465523D01*
X139549142Y-105560761D01*
X139692000Y-105608380D01*
X139930095Y-105608380D01*
X138501523Y-104941714D02*
X138501523Y-105608380D01*
X138739619Y-104560761D02*
X138977714Y-105275047D01*
X138358666Y-105275047D01*
%TO.C,R25*%
X120214380Y-95369142D02*
X119738190Y-95035809D01*
X120214380Y-94797714D02*
X119214380Y-94797714D01*
X119214380Y-95178666D01*
X119262000Y-95273904D01*
X119309619Y-95321523D01*
X119404857Y-95369142D01*
X119547714Y-95369142D01*
X119642952Y-95321523D01*
X119690571Y-95273904D01*
X119738190Y-95178666D01*
X119738190Y-94797714D01*
X119309619Y-95750095D02*
X119262000Y-95797714D01*
X119214380Y-95892952D01*
X119214380Y-96131047D01*
X119262000Y-96226285D01*
X119309619Y-96273904D01*
X119404857Y-96321523D01*
X119500095Y-96321523D01*
X119642952Y-96273904D01*
X120214380Y-95702476D01*
X120214380Y-96321523D01*
X119214380Y-97226285D02*
X119214380Y-96750095D01*
X119690571Y-96702476D01*
X119642952Y-96750095D01*
X119595333Y-96845333D01*
X119595333Y-97083428D01*
X119642952Y-97178666D01*
X119690571Y-97226285D01*
X119785809Y-97273904D01*
X120023904Y-97273904D01*
X120119142Y-97226285D01*
X120166761Y-97178666D01*
X120214380Y-97083428D01*
X120214380Y-96845333D01*
X120166761Y-96750095D01*
X120119142Y-96702476D01*
%TO.C,R24*%
X139834857Y-93416380D02*
X140168190Y-92940190D01*
X140406285Y-93416380D02*
X140406285Y-92416380D01*
X140025333Y-92416380D01*
X139930095Y-92464000D01*
X139882476Y-92511619D01*
X139834857Y-92606857D01*
X139834857Y-92749714D01*
X139882476Y-92844952D01*
X139930095Y-92892571D01*
X140025333Y-92940190D01*
X140406285Y-92940190D01*
X139453904Y-92511619D02*
X139406285Y-92464000D01*
X139311047Y-92416380D01*
X139072952Y-92416380D01*
X138977714Y-92464000D01*
X138930095Y-92511619D01*
X138882476Y-92606857D01*
X138882476Y-92702095D01*
X138930095Y-92844952D01*
X139501523Y-93416380D01*
X138882476Y-93416380D01*
X138025333Y-92749714D02*
X138025333Y-93416380D01*
X138263428Y-92368761D02*
X138501523Y-93083047D01*
X137882476Y-93083047D01*
%TO.C,R7*%
X123896380Y-99401333D02*
X123420190Y-99068000D01*
X123896380Y-98829904D02*
X122896380Y-98829904D01*
X122896380Y-99210857D01*
X122944000Y-99306095D01*
X122991619Y-99353714D01*
X123086857Y-99401333D01*
X123229714Y-99401333D01*
X123324952Y-99353714D01*
X123372571Y-99306095D01*
X123420190Y-99210857D01*
X123420190Y-98829904D01*
X122896380Y-99734666D02*
X122896380Y-100401333D01*
X123896380Y-99972761D01*
%TO.C,R4*%
X121864380Y-99401333D02*
X121388190Y-99068000D01*
X121864380Y-98829904D02*
X120864380Y-98829904D01*
X120864380Y-99210857D01*
X120912000Y-99306095D01*
X120959619Y-99353714D01*
X121054857Y-99401333D01*
X121197714Y-99401333D01*
X121292952Y-99353714D01*
X121340571Y-99306095D01*
X121388190Y-99210857D01*
X121388190Y-98829904D01*
X121197714Y-100258476D02*
X121864380Y-100258476D01*
X120816761Y-100020380D02*
X121531047Y-99782285D01*
X121531047Y-100401333D01*
D12*
%TO.C,R6*%
X126211000Y-96239064D02*
X126211000Y-95784936D01*
X124741000Y-96239064D02*
X124741000Y-95784936D01*
D13*
%TO.C,Q3*%
X137717000Y-99776000D02*
X137717000Y-100376000D01*
X140667000Y-99776000D02*
X137717000Y-99776000D01*
X140667000Y-100376000D02*
X140667000Y-99776000D01*
X137717000Y-100376000D02*
X140667000Y-100376000D01*
X137692000Y-98226000D02*
X137692000Y-99426000D01*
D12*
%TO.C,R5*%
X120115000Y-102843064D02*
X120115000Y-102388936D01*
X118645000Y-102843064D02*
X118645000Y-102388936D01*
%TO.C,R3*%
X118083000Y-102388936D02*
X118083000Y-102843064D01*
X116613000Y-102388936D02*
X116613000Y-102843064D01*
D13*
%TO.C,Q1*%
X127942000Y-102416000D02*
X125042000Y-102416000D01*
X124992000Y-100966000D02*
X124992000Y-102066000D01*
X125042000Y-102416000D02*
X125042000Y-102816000D01*
X127942000Y-102816000D02*
X127942000Y-102416000D01*
X125042000Y-102816000D02*
X127942000Y-102816000D01*
%TO.C,Q2*%
X128598000Y-102416000D02*
X128598000Y-102816000D01*
X128598000Y-102816000D02*
X131498000Y-102816000D01*
X131498000Y-102416000D02*
X128598000Y-102416000D01*
X131498000Y-102816000D02*
X131498000Y-102416000D01*
X128548000Y-100966000D02*
X128548000Y-102066000D01*
D12*
%TO.C,R8*%
X126773000Y-96239064D02*
X126773000Y-95784936D01*
X128243000Y-96239064D02*
X128243000Y-95784936D01*
%TO.C,D4*%
X137332000Y-102164000D02*
X140192000Y-102164000D01*
X140192000Y-104084000D02*
X137332000Y-104084000D01*
X137332000Y-104084000D02*
X137332000Y-102164000D01*
%TO.C,R25*%
X122147000Y-95784936D02*
X122147000Y-96239064D01*
X120677000Y-95784936D02*
X120677000Y-96239064D01*
%TO.C,R24*%
X138457000Y-95784936D02*
X138457000Y-96239064D01*
X139927000Y-95784936D02*
X139927000Y-96239064D01*
%TO.C,R7*%
X124179000Y-102859064D02*
X124179000Y-102404936D01*
X122709000Y-102859064D02*
X122709000Y-102404936D01*
%TO.C,R4*%
X120677000Y-102388936D02*
X120677000Y-102843064D01*
X122147000Y-102388936D02*
X122147000Y-102843064D01*
%TD*%
M02*
