%TF.GenerationSoftware,KiCad,Pcbnew,(6.0.0)*%
%TF.CreationDate,2022-01-02T18:39:14+01:00*%
%TF.ProjectId,esp-door-phone-monitor-v2,6573702d-646f-46f7-922d-70686f6e652d,rev?*%
%TF.SameCoordinates,Original*%
%TF.FileFunction,Paste,Top*%
%TF.FilePolarity,Positive*%
%FSLAX46Y46*%
G04 Gerber Fmt 4.6, Leading zero omitted, Abs format (unit mm)*
G04 Created by KiCad (PCBNEW (6.0.0)) date 2022-01-02 18:39:14*
%MOMM*%
%LPD*%
G01*
G04 APERTURE LIST*
G04 Aperture macros list*
%AMRoundRect*
0 Rectangle with rounded corners*
0 $1 Rounding radius*
0 $2 $3 $4 $5 $6 $7 $8 $9 X,Y pos of 4 corners*
0 Add a 4 corners polygon primitive as box body*
4,1,4,$2,$3,$4,$5,$6,$7,$8,$9,$2,$3,0*
0 Add four circle primitives for the rounded corners*
1,1,$1+$1,$2,$3*
1,1,$1+$1,$4,$5*
1,1,$1+$1,$6,$7*
1,1,$1+$1,$8,$9*
0 Add four rect primitives between the rounded corners*
20,1,$1+$1,$2,$3,$4,$5,0*
20,1,$1+$1,$4,$5,$6,$7,0*
20,1,$1+$1,$6,$7,$8,$9,0*
20,1,$1+$1,$8,$9,$2,$3,0*%
G04 Aperture macros list end*
%ADD10RoundRect,0.250000X0.350000X0.450000X-0.350000X0.450000X-0.350000X-0.450000X0.350000X-0.450000X0*%
%ADD11RoundRect,0.250000X-0.325000X-0.450000X0.325000X-0.450000X0.325000X0.450000X-0.325000X0.450000X0*%
%ADD12RoundRect,0.250000X-0.550000X1.050000X-0.550000X-1.050000X0.550000X-1.050000X0.550000X1.050000X0*%
%ADD13RoundRect,0.250000X-0.450000X0.350000X-0.450000X-0.350000X0.450000X-0.350000X0.450000X0.350000X0*%
%ADD14RoundRect,0.250000X-0.337500X-0.475000X0.337500X-0.475000X0.337500X0.475000X-0.337500X0.475000X0*%
%ADD15RoundRect,0.250000X-0.350000X-0.450000X0.350000X-0.450000X0.350000X0.450000X-0.350000X0.450000X0*%
%ADD16RoundRect,0.250000X-0.450000X0.325000X-0.450000X-0.325000X0.450000X-0.325000X0.450000X0.325000X0*%
%ADD17RoundRect,0.250000X0.450000X-0.350000X0.450000X0.350000X-0.450000X0.350000X-0.450000X-0.350000X0*%
%ADD18R,2.000000X1.500000*%
%ADD19R,2.000000X3.800000*%
%ADD20RoundRect,0.250000X0.337500X0.475000X-0.337500X0.475000X-0.337500X-0.475000X0.337500X-0.475000X0*%
%ADD21RoundRect,0.150000X0.825000X0.150000X-0.825000X0.150000X-0.825000X-0.150000X0.825000X-0.150000X0*%
%ADD22R,1.000000X2.500000*%
%ADD23R,1.800000X1.000000*%
G04 APERTURE END LIST*
D10*
%TO.C,R15*%
X161290000Y-90678000D03*
X159290000Y-90678000D03*
%TD*%
D11*
%TO.C,D2*%
X147835000Y-98044000D03*
X149885000Y-98044000D03*
%TD*%
D12*
%TO.C,C1*%
X156464000Y-105896000D03*
X156464000Y-109496000D03*
%TD*%
D13*
%TO.C,R21*%
X148860000Y-91456000D03*
X148860000Y-93456000D03*
%TD*%
D11*
%TO.C,D1*%
X147835000Y-95758000D03*
X149885000Y-95758000D03*
%TD*%
D14*
%TO.C,C5*%
X150854500Y-110744000D03*
X152929500Y-110744000D03*
%TD*%
D10*
%TO.C,R13*%
X165100000Y-93218000D03*
X163100000Y-93218000D03*
%TD*%
%TO.C,R18*%
X161290000Y-95758000D03*
X159290000Y-95758000D03*
%TD*%
D14*
%TO.C,C8*%
X154172500Y-88138000D03*
X156247500Y-88138000D03*
%TD*%
D15*
%TO.C,R14*%
X163100000Y-95758000D03*
X165100000Y-95758000D03*
%TD*%
D16*
%TO.C,D3*%
X145812000Y-96003000D03*
X145812000Y-98053000D03*
%TD*%
D17*
%TO.C,R22*%
X146828000Y-93456000D03*
X146828000Y-91456000D03*
%TD*%
D10*
%TO.C,R20*%
X153670000Y-95758000D03*
X151670000Y-95758000D03*
%TD*%
D17*
%TO.C,R23*%
X144796000Y-93456000D03*
X144796000Y-91456000D03*
%TD*%
D10*
%TO.C,R10*%
X169164000Y-94996000D03*
X167164000Y-94996000D03*
%TD*%
%TO.C,R16*%
X161290000Y-93218000D03*
X159290000Y-93218000D03*
%TD*%
D18*
%TO.C,U2*%
X152502000Y-108472000D03*
D19*
X146202000Y-106172000D03*
D18*
X152502000Y-106172000D03*
X152502000Y-103872000D03*
%TD*%
D10*
%TO.C,R12*%
X169164000Y-92964000D03*
X167164000Y-92964000D03*
%TD*%
%TO.C,R17*%
X161290000Y-88138000D03*
X159290000Y-88138000D03*
%TD*%
D14*
%TO.C,C2*%
X155426500Y-102616000D03*
X157501500Y-102616000D03*
%TD*%
D20*
%TO.C,C6*%
X173011500Y-90932000D03*
X170936500Y-90932000D03*
%TD*%
D10*
%TO.C,R19*%
X157480000Y-95758000D03*
X155480000Y-95758000D03*
%TD*%
D21*
%TO.C,U1*%
X156415000Y-93853000D03*
X156415000Y-92583000D03*
X156415000Y-91313000D03*
X156415000Y-90043000D03*
X151465000Y-90043000D03*
X151465000Y-91313000D03*
X151465000Y-92583000D03*
X151465000Y-93853000D03*
%TD*%
D10*
%TO.C,R11*%
X169164000Y-90932000D03*
X167164000Y-90932000D03*
%TD*%
D20*
%TO.C,C7*%
X173011500Y-92964000D03*
X170936500Y-92964000D03*
%TD*%
D10*
%TO.C,R9*%
X169164000Y-88900000D03*
X167164000Y-88900000D03*
%TD*%
D22*
%TO.C,U3*%
X117404000Y-106406000D03*
X119404000Y-106406000D03*
X121404000Y-106406000D03*
X123404000Y-106406000D03*
X125404000Y-106406000D03*
X127404000Y-106406000D03*
X129404000Y-106406000D03*
X131404000Y-106406000D03*
D23*
X132904000Y-103806000D03*
X132904000Y-101806000D03*
X132904000Y-99806000D03*
X132904000Y-97806000D03*
X132904000Y-95806000D03*
X132904000Y-93806000D03*
D22*
X131404000Y-91206000D03*
X129404000Y-91206000D03*
X127404000Y-91206000D03*
X125404000Y-91206000D03*
X123404000Y-91206000D03*
X121404000Y-91206000D03*
X119404000Y-91206000D03*
X117404000Y-91206000D03*
%TD*%
M02*
