%TF.GenerationSoftware,KiCad,Pcbnew,(6.0.0)*%
%TF.CreationDate,2022-01-02T18:39:14+01:00*%
%TF.ProjectId,esp-door-phone-monitor-v2,6573702d-646f-46f7-922d-70686f6e652d,rev?*%
%TF.SameCoordinates,Original*%
%TF.FileFunction,Copper,L2,Bot*%
%TF.FilePolarity,Positive*%
%FSLAX46Y46*%
G04 Gerber Fmt 4.6, Leading zero omitted, Abs format (unit mm)*
G04 Created by KiCad (PCBNEW (6.0.0)) date 2022-01-02 18:39:14*
%MOMM*%
%LPD*%
G01*
G04 APERTURE LIST*
G04 Aperture macros list*
%AMRoundRect*
0 Rectangle with rounded corners*
0 $1 Rounding radius*
0 $2 $3 $4 $5 $6 $7 $8 $9 X,Y pos of 4 corners*
0 Add a 4 corners polygon primitive as box body*
4,1,4,$2,$3,$4,$5,$6,$7,$8,$9,$2,$3,0*
0 Add four circle primitives for the rounded corners*
1,1,$1+$1,$2,$3*
1,1,$1+$1,$4,$5*
1,1,$1+$1,$6,$7*
1,1,$1+$1,$8,$9*
0 Add four rect primitives between the rounded corners*
20,1,$1+$1,$2,$3,$4,$5,0*
20,1,$1+$1,$4,$5,$6,$7,0*
20,1,$1+$1,$6,$7,$8,$9,0*
20,1,$1+$1,$8,$9,$2,$3,0*%
G04 Aperture macros list end*
%TA.AperFunction,ComponentPad*%
%ADD10RoundRect,0.250001X0.799999X-0.799999X0.799999X0.799999X-0.799999X0.799999X-0.799999X-0.799999X0*%
%TD*%
%TA.AperFunction,ComponentPad*%
%ADD11C,2.100000*%
%TD*%
%TA.AperFunction,ComponentPad*%
%ADD12C,1.524000*%
%TD*%
%TA.AperFunction,ComponentPad*%
%ADD13RoundRect,0.250001X-0.799999X0.799999X-0.799999X-0.799999X0.799999X-0.799999X0.799999X0.799999X0*%
%TD*%
%TA.AperFunction,ComponentPad*%
%ADD14R,1.700000X1.700000*%
%TD*%
%TA.AperFunction,ComponentPad*%
%ADD15O,1.700000X1.700000*%
%TD*%
%TA.AperFunction,SMDPad,CuDef*%
%ADD16RoundRect,0.250000X0.450000X-0.350000X0.450000X0.350000X-0.450000X0.350000X-0.450000X-0.350000X0*%
%TD*%
%TA.AperFunction,SMDPad,CuDef*%
%ADD17R,0.600000X1.200000*%
%TD*%
%TA.AperFunction,SMDPad,CuDef*%
%ADD18RoundRect,0.250000X-0.450000X0.350000X-0.450000X-0.350000X0.450000X-0.350000X0.450000X0.350000X0*%
%TD*%
%TA.AperFunction,SMDPad,CuDef*%
%ADD19R,0.600000X1.100000*%
%TD*%
%TA.AperFunction,SMDPad,CuDef*%
%ADD20RoundRect,0.250000X-0.325000X-0.450000X0.325000X-0.450000X0.325000X0.450000X-0.325000X0.450000X0*%
%TD*%
%TA.AperFunction,ViaPad*%
%ADD21C,0.800000*%
%TD*%
%TA.AperFunction,Conductor*%
%ADD22C,0.250000*%
%TD*%
G04 APERTURE END LIST*
D10*
%TO.P,J2,1,Pin_1*%
%TO.N,+12V*%
X175768000Y-110236000D03*
D11*
%TO.P,J2,2,Pin_2*%
%TO.N,GND*%
X175768000Y-105636000D03*
%TD*%
D12*
%TO.P,K1,1*%
%TO.N,VDD*%
X141732000Y-105410000D03*
%TO.P,K1,3*%
%TO.N,SPEAKER_GND_OUT*%
X141732000Y-100330000D03*
%TO.P,K1,4*%
%TO.N,SPEAKER_GND*%
X141732000Y-97790000D03*
%TO.P,K1,5*%
%TO.N,unconnected-(K1-Pad5)*%
X141732000Y-95250000D03*
%TO.P,K1,6*%
%TO.N,unconnected-(K1-Pad6)*%
X136652000Y-95250000D03*
%TO.P,K1,7*%
%TO.N,unconnected-(K1-Pad7)*%
X136652000Y-97790000D03*
%TO.P,K1,8*%
%TO.N,unconnected-(K1-Pad8)*%
X136652000Y-100330000D03*
%TO.P,K1,10*%
%TO.N,Net-(D4-Pad1)*%
X136652000Y-105410000D03*
%TD*%
D13*
%TO.P,J1,1,Pin_1*%
%TO.N,SPEAKER_INPUT*%
X175768000Y-87348000D03*
D11*
%TO.P,J1,2,Pin_2*%
%TO.N,SPEAKER_GND*%
X175768000Y-91948000D03*
%TO.P,J1,3,Pin_3*%
%TO.N,SPEAKER_GND_OUT*%
X175768000Y-96548000D03*
%TO.P,J1,4,Pin_4*%
%TO.N,GND*%
X175768000Y-101148000D03*
%TD*%
D14*
%TO.P,J3,1,Pin_1*%
%TO.N,VDD*%
X131572000Y-87376000D03*
D15*
%TO.P,J3,2,Pin_2*%
%TO.N,ESP_RXD*%
X129032000Y-87376000D03*
%TO.P,J3,3,Pin_3*%
%TO.N,ESP_TXD*%
X126492000Y-87376000D03*
%TO.P,J3,4,Pin_4*%
%TO.N,PGM_DTR*%
X123952000Y-87376000D03*
%TO.P,J3,5,Pin_5*%
%TO.N,PGM_RTS*%
X121412000Y-87376000D03*
%TO.P,J3,6,Pin_6*%
%TO.N,GND*%
X118872000Y-87376000D03*
%TD*%
D16*
%TO.P,R6,1*%
%TO.N,VDD*%
X125476000Y-97012000D03*
%TO.P,R6,2*%
%TO.N,ESP_GPIO0*%
X125476000Y-95012000D03*
%TD*%
D17*
%TO.P,Q3,1*%
%TO.N,Net-(Q3-Pad1)*%
X138242000Y-98826000D03*
%TO.P,Q3,2*%
%TO.N,GND*%
X140142000Y-98826000D03*
%TO.P,Q3,3*%
%TO.N,Net-(D4-Pad1)*%
X139192000Y-101326000D03*
%TD*%
D16*
%TO.P,R5,1*%
%TO.N,Net-(R5-Pad1)*%
X119380000Y-103616000D03*
%TO.P,R5,2*%
%TO.N,GND*%
X119380000Y-101616000D03*
%TD*%
D18*
%TO.P,R3,1*%
%TO.N,VDD*%
X117348000Y-101616000D03*
%TO.P,R3,2*%
%TO.N,ESP_~{RST}*%
X117348000Y-103616000D03*
%TD*%
D19*
%TO.P,Q1,1*%
%TO.N,Net-(Q1-Pad1)*%
X125542000Y-101516000D03*
%TO.P,Q1,2*%
%TO.N,PGM_RTS*%
X127442000Y-101516000D03*
%TO.P,Q1,3*%
%TO.N,ESP_~{RST}*%
X126492000Y-103716000D03*
%TD*%
%TO.P,Q2,1*%
%TO.N,Net-(Q2-Pad1)*%
X129098000Y-101516000D03*
%TO.P,Q2,2*%
%TO.N,PGM_DTR*%
X130998000Y-101516000D03*
%TO.P,Q2,3*%
%TO.N,ESP_GPIO0*%
X130048000Y-103716000D03*
%TD*%
D16*
%TO.P,R8,1*%
%TO.N,VDD*%
X127508000Y-97012000D03*
%TO.P,R8,2*%
%TO.N,Net-(R8-Pad2)*%
X127508000Y-95012000D03*
%TD*%
D20*
%TO.P,D4,1,K*%
%TO.N,Net-(D4-Pad1)*%
X138167000Y-103124000D03*
%TO.P,D4,2,A*%
%TO.N,VDD*%
X140217000Y-103124000D03*
%TD*%
D18*
%TO.P,R25,1*%
%TO.N,ESP_MUTE_CTRL*%
X121412000Y-95012000D03*
%TO.P,R25,2*%
%TO.N,GND*%
X121412000Y-97012000D03*
%TD*%
%TO.P,R24,1*%
%TO.N,ESP_MUTE_CTRL*%
X139192000Y-95012000D03*
%TO.P,R24,2*%
%TO.N,Net-(Q3-Pad1)*%
X139192000Y-97012000D03*
%TD*%
D16*
%TO.P,R7,1*%
%TO.N,Net-(R7-Pad1)*%
X123444000Y-103632000D03*
%TO.P,R7,2*%
%TO.N,GND*%
X123444000Y-101632000D03*
%TD*%
D18*
%TO.P,R4,1*%
%TO.N,VDD*%
X121412000Y-101616000D03*
%TO.P,R4,2*%
%TO.N,ESP_EN*%
X121412000Y-103616000D03*
%TD*%
D21*
%TO.N,VDD*%
X128016000Y-103632000D03*
X150368000Y-106172000D03*
X164100000Y-94488000D03*
X152670000Y-88138000D03*
%TO.N,GND*%
X123952000Y-110236000D03*
X131064000Y-95504000D03*
X149352000Y-104648000D03*
X132588000Y-89916000D03*
X160020000Y-108204000D03*
X169672000Y-105664000D03*
X139700000Y-88392000D03*
X149352000Y-103632000D03*
X123444000Y-96012000D03*
X171196000Y-97536000D03*
X165100000Y-98044000D03*
X149352000Y-108712000D03*
X117856000Y-96012000D03*
X172212000Y-87376000D03*
X149352000Y-107696000D03*
X154432000Y-107696000D03*
%TO.N,+12V*%
X153416000Y-102108000D03*
%TO.N,ESP_EN*%
X121404000Y-106406000D03*
%TO.N,Net-(R5-Pad1)*%
X119404000Y-106406000D03*
%TO.N,ESP_GPIO0*%
X126246003Y-94412375D03*
X129540000Y-100076000D03*
%TO.N,Net-(R7-Pad1)*%
X123404000Y-106406000D03*
%TO.N,Net-(R8-Pad2)*%
X130048000Y-94488000D03*
%TO.N,ESP_RINGING_SENSE*%
X124304498Y-92456000D03*
X142240000Y-91948000D03*
%TO.N,ESP_MUTE_CTRL*%
X121920000Y-93472000D03*
%TO.N,ESP_RXD*%
X120304498Y-90424000D03*
%TO.N,ESP_TXD*%
X118869052Y-89357518D03*
%TO.N,PGM_RTS*%
X127508000Y-100076000D03*
%TO.N,ESP_~{RST}*%
X125476000Y-104140000D03*
X117404000Y-106406000D03*
%TO.N,PGM_DTR*%
X130556000Y-99568000D03*
%TD*%
D22*
%TO.N,VDD*%
X141732000Y-105410000D02*
X140217000Y-103895000D01*
X154956000Y-85852000D02*
X152670000Y-88138000D01*
X125476000Y-97012000D02*
X126508000Y-97012000D01*
X126508000Y-97012000D02*
X126492000Y-97028000D01*
X140217000Y-103895000D02*
X140217000Y-103124000D01*
X126492000Y-102616000D02*
X127000000Y-102616000D01*
X126492000Y-97028000D02*
X126492000Y-102616000D01*
X164100000Y-86868000D02*
X163084000Y-85852000D01*
X118364000Y-102616000D02*
X121412000Y-102616000D01*
X126508000Y-97012000D02*
X127508000Y-97012000D01*
X121412000Y-102616000D02*
X121412000Y-101616000D01*
X127000000Y-102616000D02*
X128016000Y-103632000D01*
X121412000Y-102616000D02*
X126492000Y-102616000D01*
X150368000Y-106172000D02*
X150368000Y-90440000D01*
X117364000Y-101616000D02*
X118364000Y-102616000D01*
X164100000Y-94488000D02*
X164100000Y-86868000D01*
X163084000Y-85852000D02*
X154956000Y-85852000D01*
X150368000Y-90440000D02*
X152670000Y-88138000D01*
X117348000Y-101616000D02*
X117364000Y-101616000D01*
%TO.N,+12V*%
X162560000Y-104140000D02*
X168656000Y-110236000D01*
X155448000Y-104140000D02*
X162560000Y-104140000D01*
X153416000Y-102108000D02*
X155448000Y-104140000D01*
X168656000Y-110236000D02*
X175768000Y-110236000D01*
%TO.N,ESP_EN*%
X121412000Y-106398000D02*
X121404000Y-106406000D01*
X121412000Y-103616000D02*
X121412000Y-106398000D01*
%TO.N,Net-(R5-Pad1)*%
X119380000Y-103616000D02*
X119380000Y-106382000D01*
X119380000Y-106382000D02*
X119404000Y-106406000D01*
%TO.N,ESP_GPIO0*%
X130048000Y-100584000D02*
X129540000Y-100076000D01*
X126075625Y-94412375D02*
X125476000Y-95012000D01*
X126246003Y-94412375D02*
X126075625Y-94412375D01*
X130048000Y-103716000D02*
X130048000Y-100584000D01*
%TO.N,Net-(R7-Pad1)*%
X123444000Y-106366000D02*
X123404000Y-106406000D01*
X123444000Y-103632000D02*
X123444000Y-106366000D01*
%TO.N,Net-(R8-Pad2)*%
X128032000Y-94488000D02*
X127508000Y-95012000D01*
X130048000Y-94488000D02*
X128032000Y-94488000D01*
%TO.N,ESP_RINGING_SENSE*%
X124968000Y-91948000D02*
X124460000Y-92456000D01*
X142240000Y-91948000D02*
X124968000Y-91948000D01*
X124460000Y-92456000D02*
X124304498Y-92456000D01*
%TO.N,ESP_MUTE_CTRL*%
X139192000Y-94488000D02*
X138176000Y-93472000D01*
X121920000Y-94504000D02*
X121412000Y-95012000D01*
X138176000Y-93472000D02*
X121920000Y-93472000D01*
X139192000Y-95012000D02*
X139192000Y-94488000D01*
X121920000Y-93472000D02*
X121920000Y-94504000D01*
%TO.N,ESP_RXD*%
X125984000Y-90424000D02*
X120304498Y-90424000D01*
X129032000Y-87376000D02*
X125984000Y-90424000D01*
%TO.N,ESP_TXD*%
X124460000Y-89408000D02*
X118872000Y-89408000D01*
X126492000Y-87376000D02*
X124460000Y-89408000D01*
X118872000Y-89360466D02*
X118869052Y-89357518D01*
X118872000Y-89408000D02*
X118872000Y-89360466D01*
%TO.N,PGM_RTS*%
X127442000Y-100142000D02*
X127508000Y-100076000D01*
X127442000Y-101516000D02*
X127442000Y-100142000D01*
%TO.N,ESP_~{RST}*%
X117348000Y-106350000D02*
X117404000Y-106406000D01*
X125900000Y-103716000D02*
X125476000Y-104140000D01*
X126492000Y-103716000D02*
X125900000Y-103716000D01*
X117348000Y-103616000D02*
X117348000Y-106350000D01*
%TO.N,PGM_DTR*%
X130998000Y-101516000D02*
X130998000Y-100010000D01*
X130998000Y-100010000D02*
X130556000Y-99568000D01*
%TO.N,Net-(D4-Pad1)*%
X138167000Y-103124000D02*
X138167000Y-102351000D01*
X138167000Y-103895000D02*
X138167000Y-103124000D01*
X138167000Y-102351000D02*
X139192000Y-101326000D01*
X136652000Y-105410000D02*
X138167000Y-103895000D01*
%TO.N,Net-(Q3-Pad1)*%
X138242000Y-98826000D02*
X139192000Y-97876000D01*
X139192000Y-97876000D02*
X139192000Y-97012000D01*
%TD*%
%TA.AperFunction,Conductor*%
%TO.N,GND*%
G36*
X154332026Y-85364002D02*
G01*
X154378519Y-85417658D01*
X154388623Y-85487932D01*
X154359129Y-85552512D01*
X154353000Y-85559095D01*
X152719500Y-87192595D01*
X152657188Y-87226621D01*
X152630405Y-87229500D01*
X152574513Y-87229500D01*
X152568061Y-87230872D01*
X152568056Y-87230872D01*
X152481113Y-87249353D01*
X152387712Y-87269206D01*
X152381682Y-87271891D01*
X152381681Y-87271891D01*
X152219278Y-87344197D01*
X152219276Y-87344198D01*
X152213248Y-87346882D01*
X152058747Y-87459134D01*
X152054326Y-87464044D01*
X152054325Y-87464045D01*
X152018350Y-87504000D01*
X151930960Y-87601056D01*
X151835473Y-87766444D01*
X151776458Y-87948072D01*
X151775768Y-87954633D01*
X151775768Y-87954635D01*
X151759093Y-88113293D01*
X151732080Y-88178950D01*
X151722878Y-88189218D01*
X150828690Y-89083405D01*
X149975747Y-89936348D01*
X149967461Y-89943888D01*
X149960982Y-89948000D01*
X149955557Y-89953777D01*
X149914357Y-89997651D01*
X149911602Y-90000493D01*
X149891865Y-90020230D01*
X149889385Y-90023427D01*
X149881682Y-90032447D01*
X149851414Y-90064679D01*
X149847595Y-90071625D01*
X149847593Y-90071628D01*
X149841652Y-90082434D01*
X149830801Y-90098953D01*
X149818386Y-90114959D01*
X149815241Y-90122228D01*
X149815238Y-90122232D01*
X149800826Y-90155537D01*
X149795609Y-90166187D01*
X149774305Y-90204940D01*
X149772334Y-90212615D01*
X149772334Y-90212616D01*
X149769267Y-90224562D01*
X149762863Y-90243266D01*
X149754819Y-90261855D01*
X149753580Y-90269678D01*
X149753577Y-90269688D01*
X149747901Y-90305524D01*
X149745495Y-90317144D01*
X149736472Y-90352289D01*
X149734500Y-90359970D01*
X149734500Y-90380224D01*
X149732949Y-90399934D01*
X149729780Y-90419943D01*
X149733680Y-90461195D01*
X149733941Y-90463961D01*
X149734500Y-90475819D01*
X149734500Y-105469476D01*
X149714498Y-105537597D01*
X149702142Y-105553779D01*
X149628960Y-105635056D01*
X149533473Y-105800444D01*
X149474458Y-105982072D01*
X149473768Y-105988633D01*
X149473768Y-105988635D01*
X149468293Y-106040726D01*
X149454496Y-106172000D01*
X149455186Y-106178565D01*
X149462594Y-106249044D01*
X149474458Y-106361928D01*
X149533473Y-106543556D01*
X149536776Y-106549278D01*
X149536777Y-106549279D01*
X149553640Y-106578486D01*
X149628960Y-106708944D01*
X149633378Y-106713851D01*
X149633379Y-106713852D01*
X149656963Y-106740045D01*
X149756747Y-106850866D01*
X149911248Y-106963118D01*
X149917276Y-106965802D01*
X149917278Y-106965803D01*
X150062310Y-107030375D01*
X150085712Y-107040794D01*
X150179113Y-107060647D01*
X150266056Y-107079128D01*
X150266061Y-107079128D01*
X150272513Y-107080500D01*
X150463487Y-107080500D01*
X150469939Y-107079128D01*
X150469944Y-107079128D01*
X150556888Y-107060647D01*
X150650288Y-107040794D01*
X150673690Y-107030375D01*
X150818722Y-106965803D01*
X150818724Y-106965802D01*
X150824752Y-106963118D01*
X150979253Y-106850866D01*
X151079037Y-106740045D01*
X151102621Y-106713852D01*
X151102622Y-106713851D01*
X151107040Y-106708944D01*
X151182360Y-106578486D01*
X151199223Y-106549279D01*
X151199224Y-106549278D01*
X151202527Y-106543556D01*
X151261542Y-106361928D01*
X151273407Y-106249044D01*
X151280814Y-106178565D01*
X151281504Y-106172000D01*
X151267707Y-106040726D01*
X151262232Y-105988635D01*
X151262232Y-105988633D01*
X151261542Y-105982072D01*
X151202527Y-105800444D01*
X151107040Y-105635056D01*
X151033863Y-105553785D01*
X151003147Y-105489779D01*
X151001500Y-105469476D01*
X151001500Y-101152930D01*
X174205570Y-101152930D01*
X174224035Y-101387545D01*
X174225578Y-101397292D01*
X174280517Y-101626125D01*
X174283566Y-101635510D01*
X174373625Y-101852933D01*
X174378107Y-101861728D01*
X174489072Y-102042805D01*
X174499530Y-102052267D01*
X174508306Y-102048484D01*
X175395978Y-101160812D01*
X175403592Y-101146868D01*
X175403461Y-101145035D01*
X175399210Y-101138420D01*
X174511350Y-100250560D01*
X174498970Y-100243800D01*
X174491320Y-100249527D01*
X174378107Y-100434272D01*
X174373625Y-100443067D01*
X174283566Y-100660490D01*
X174280517Y-100669875D01*
X174225578Y-100898708D01*
X174224035Y-100908455D01*
X174205570Y-101143070D01*
X174205570Y-101152930D01*
X151001500Y-101152930D01*
X151001500Y-99879530D01*
X174863733Y-99879530D01*
X174867516Y-99888306D01*
X175755188Y-100775978D01*
X175769132Y-100783592D01*
X175770965Y-100783461D01*
X175777580Y-100779210D01*
X176665440Y-99891350D01*
X176672200Y-99878970D01*
X176666473Y-99871320D01*
X176481728Y-99758107D01*
X176472933Y-99753625D01*
X176255510Y-99663566D01*
X176246125Y-99660517D01*
X176017292Y-99605578D01*
X176007545Y-99604035D01*
X175772930Y-99585570D01*
X175763070Y-99585570D01*
X175528455Y-99604035D01*
X175518708Y-99605578D01*
X175289875Y-99660517D01*
X175280490Y-99663566D01*
X175063067Y-99753625D01*
X175054272Y-99758107D01*
X174873195Y-99869072D01*
X174863733Y-99879530D01*
X151001500Y-99879530D01*
X151001500Y-90754594D01*
X151021502Y-90686473D01*
X151038405Y-90665499D01*
X152620499Y-89083405D01*
X152682811Y-89049379D01*
X152709594Y-89046500D01*
X152765487Y-89046500D01*
X152771939Y-89045128D01*
X152771944Y-89045128D01*
X152858888Y-89026647D01*
X152952288Y-89006794D01*
X152958319Y-89004109D01*
X153120722Y-88931803D01*
X153120724Y-88931802D01*
X153126752Y-88929118D01*
X153281253Y-88816866D01*
X153285675Y-88811955D01*
X153404621Y-88679852D01*
X153404622Y-88679851D01*
X153409040Y-88674944D01*
X153504527Y-88509556D01*
X153563542Y-88327928D01*
X153565353Y-88310703D01*
X153580907Y-88162707D01*
X153607920Y-88097050D01*
X153617122Y-88086782D01*
X155181499Y-86522405D01*
X155243811Y-86488379D01*
X155270594Y-86485500D01*
X162769405Y-86485500D01*
X162837526Y-86505502D01*
X162858501Y-86522405D01*
X163429596Y-87093501D01*
X163463621Y-87155813D01*
X163466500Y-87182596D01*
X163466500Y-93785476D01*
X163446498Y-93853597D01*
X163434142Y-93869779D01*
X163360960Y-93951056D01*
X163303755Y-94050137D01*
X163271792Y-94105500D01*
X163265473Y-94116444D01*
X163206458Y-94298072D01*
X163205768Y-94304633D01*
X163205768Y-94304635D01*
X163192569Y-94430219D01*
X163186496Y-94488000D01*
X163187186Y-94494565D01*
X163199151Y-94608402D01*
X163206458Y-94677928D01*
X163265473Y-94859556D01*
X163360960Y-95024944D01*
X163365378Y-95029851D01*
X163365379Y-95029852D01*
X163480350Y-95157540D01*
X163488747Y-95166866D01*
X163643248Y-95279118D01*
X163649276Y-95281802D01*
X163649278Y-95281803D01*
X163811681Y-95354109D01*
X163817712Y-95356794D01*
X163911113Y-95376647D01*
X163998056Y-95395128D01*
X163998061Y-95395128D01*
X164004513Y-95396500D01*
X164195487Y-95396500D01*
X164201939Y-95395128D01*
X164201944Y-95395128D01*
X164288887Y-95376647D01*
X164382288Y-95356794D01*
X164388319Y-95354109D01*
X164550722Y-95281803D01*
X164550724Y-95281802D01*
X164556752Y-95279118D01*
X164711253Y-95166866D01*
X164719650Y-95157540D01*
X164834621Y-95029852D01*
X164834622Y-95029851D01*
X164839040Y-95024944D01*
X164934527Y-94859556D01*
X164993542Y-94677928D01*
X165000850Y-94608402D01*
X165012814Y-94494565D01*
X165013504Y-94488000D01*
X165007431Y-94430219D01*
X164994232Y-94304635D01*
X164994232Y-94304633D01*
X164993542Y-94298072D01*
X164934527Y-94116444D01*
X164928209Y-94105500D01*
X164896245Y-94050137D01*
X164839040Y-93951056D01*
X164765863Y-93869785D01*
X164735147Y-93805779D01*
X164733500Y-93785476D01*
X164733500Y-86946767D01*
X164734027Y-86935584D01*
X164735702Y-86928091D01*
X164733562Y-86860000D01*
X164733500Y-86856043D01*
X164733500Y-86828144D01*
X164732996Y-86824153D01*
X164732063Y-86812311D01*
X164730923Y-86776036D01*
X164730674Y-86768111D01*
X164728462Y-86760497D01*
X164728461Y-86760492D01*
X164725023Y-86748659D01*
X164721012Y-86729295D01*
X164720949Y-86728792D01*
X164718474Y-86709203D01*
X164715557Y-86701836D01*
X164715556Y-86701831D01*
X164702198Y-86668092D01*
X164698354Y-86656865D01*
X164688230Y-86622022D01*
X164686018Y-86614407D01*
X164675707Y-86596972D01*
X164667012Y-86579224D01*
X164659552Y-86560383D01*
X164647851Y-86544277D01*
X164633564Y-86524613D01*
X164627048Y-86514693D01*
X164608580Y-86483465D01*
X164608578Y-86483462D01*
X164604542Y-86476638D01*
X164590221Y-86462317D01*
X164577380Y-86447283D01*
X164570131Y-86437306D01*
X164565472Y-86430893D01*
X164559368Y-86425843D01*
X164559363Y-86425838D01*
X164531402Y-86402707D01*
X164522621Y-86394717D01*
X163687000Y-85559095D01*
X163652975Y-85496783D01*
X163658040Y-85425967D01*
X163700587Y-85369132D01*
X163767107Y-85344321D01*
X163776096Y-85344000D01*
X177420000Y-85344000D01*
X177488121Y-85364002D01*
X177534614Y-85417658D01*
X177546000Y-85470000D01*
X177546000Y-86306849D01*
X177525998Y-86374970D01*
X177472342Y-86421463D01*
X177402068Y-86431567D01*
X177337488Y-86402073D01*
X177300476Y-86346725D01*
X177261868Y-86231003D01*
X177259550Y-86224055D01*
X177166478Y-86073652D01*
X177041303Y-85948695D01*
X177035072Y-85944854D01*
X176896968Y-85859725D01*
X176896966Y-85859724D01*
X176890738Y-85855885D01*
X176730254Y-85802655D01*
X176729389Y-85802368D01*
X176729387Y-85802368D01*
X176722861Y-85800203D01*
X176716025Y-85799503D01*
X176716022Y-85799502D01*
X176672969Y-85795091D01*
X176618400Y-85789500D01*
X174917600Y-85789500D01*
X174914354Y-85789837D01*
X174914350Y-85789837D01*
X174818693Y-85799762D01*
X174818689Y-85799763D01*
X174811835Y-85800474D01*
X174805299Y-85802655D01*
X174805297Y-85802655D01*
X174673195Y-85846728D01*
X174644055Y-85856450D01*
X174493652Y-85949522D01*
X174368695Y-86074697D01*
X174364855Y-86080927D01*
X174364854Y-86080928D01*
X174332980Y-86132638D01*
X174275885Y-86225262D01*
X174273581Y-86232209D01*
X174230947Y-86360748D01*
X174220203Y-86393139D01*
X174219503Y-86399975D01*
X174219502Y-86399978D01*
X174218651Y-86408285D01*
X174209500Y-86497600D01*
X174209500Y-88198400D01*
X174209837Y-88201646D01*
X174209837Y-88201650D01*
X174219098Y-88290901D01*
X174220474Y-88304165D01*
X174222655Y-88310701D01*
X174222655Y-88310703D01*
X174236847Y-88353240D01*
X174276450Y-88471945D01*
X174369522Y-88622348D01*
X174494697Y-88747305D01*
X174500927Y-88751145D01*
X174500928Y-88751146D01*
X174638090Y-88835694D01*
X174645262Y-88840115D01*
X174725005Y-88866564D01*
X174806611Y-88893632D01*
X174806613Y-88893632D01*
X174813139Y-88895797D01*
X174819975Y-88896497D01*
X174819978Y-88896498D01*
X174863031Y-88900909D01*
X174917600Y-88906500D01*
X176618400Y-88906500D01*
X176621646Y-88906163D01*
X176621650Y-88906163D01*
X176717307Y-88896238D01*
X176717311Y-88896237D01*
X176724165Y-88895526D01*
X176730701Y-88893345D01*
X176730703Y-88893345D01*
X176862805Y-88849272D01*
X176891945Y-88839550D01*
X177042348Y-88746478D01*
X177054674Y-88734131D01*
X177162134Y-88626483D01*
X177167305Y-88621303D01*
X177184049Y-88594140D01*
X177256275Y-88476968D01*
X177256276Y-88476966D01*
X177260115Y-88470738D01*
X177300407Y-88349261D01*
X177340838Y-88290901D01*
X177406402Y-88263664D01*
X177476283Y-88276197D01*
X177528295Y-88324522D01*
X177546000Y-88388928D01*
X177546000Y-91613253D01*
X177525998Y-91681374D01*
X177472342Y-91727867D01*
X177402068Y-91737971D01*
X177337488Y-91708477D01*
X177297481Y-91642667D01*
X177274883Y-91548538D01*
X177254805Y-91464908D01*
X177235344Y-91417924D01*
X177199391Y-91331128D01*
X177160927Y-91238268D01*
X177052879Y-91061949D01*
X177035342Y-91033330D01*
X177035340Y-91033327D01*
X177032752Y-91029104D01*
X177028402Y-91024010D01*
X176876641Y-90846323D01*
X176873433Y-90842567D01*
X176869677Y-90839359D01*
X176690663Y-90686465D01*
X176690660Y-90686463D01*
X176686896Y-90683248D01*
X176682673Y-90680660D01*
X176682670Y-90680658D01*
X176563065Y-90607365D01*
X176477732Y-90555073D01*
X176333033Y-90495136D01*
X176255665Y-90463089D01*
X176255663Y-90463088D01*
X176251092Y-90461195D01*
X176168437Y-90441351D01*
X176017370Y-90405083D01*
X176017364Y-90405082D01*
X176012557Y-90403928D01*
X175768000Y-90384681D01*
X175523443Y-90403928D01*
X175518636Y-90405082D01*
X175518630Y-90405083D01*
X175367563Y-90441351D01*
X175284908Y-90461195D01*
X175280337Y-90463088D01*
X175280335Y-90463089D01*
X175202967Y-90495136D01*
X175058268Y-90555073D01*
X174972935Y-90607365D01*
X174853330Y-90680658D01*
X174853327Y-90680660D01*
X174849104Y-90683248D01*
X174845340Y-90686463D01*
X174845337Y-90686465D01*
X174666323Y-90839359D01*
X174662567Y-90842567D01*
X174659359Y-90846323D01*
X174507599Y-91024010D01*
X174503248Y-91029104D01*
X174500660Y-91033327D01*
X174500658Y-91033330D01*
X174483121Y-91061949D01*
X174375073Y-91238268D01*
X174336609Y-91331128D01*
X174300657Y-91417924D01*
X174281195Y-91464908D01*
X174262379Y-91543281D01*
X174233186Y-91664882D01*
X174223928Y-91703443D01*
X174204681Y-91948000D01*
X174223928Y-92192557D01*
X174225082Y-92197364D01*
X174225083Y-92197370D01*
X174252909Y-92313271D01*
X174281195Y-92431092D01*
X174283088Y-92435663D01*
X174283089Y-92435665D01*
X174301133Y-92479226D01*
X174375073Y-92657732D01*
X174428262Y-92744529D01*
X174500228Y-92861967D01*
X174503248Y-92866896D01*
X174506463Y-92870660D01*
X174506465Y-92870663D01*
X174613399Y-92995865D01*
X174662567Y-93053433D01*
X174666323Y-93056641D01*
X174710909Y-93094721D01*
X174849104Y-93212752D01*
X174853327Y-93215340D01*
X174853330Y-93215342D01*
X174922515Y-93257738D01*
X175058268Y-93340927D01*
X175202967Y-93400864D01*
X175280335Y-93432911D01*
X175280337Y-93432912D01*
X175284908Y-93434805D01*
X175367563Y-93454649D01*
X175518630Y-93490917D01*
X175518636Y-93490918D01*
X175523443Y-93492072D01*
X175768000Y-93511319D01*
X176012557Y-93492072D01*
X176017364Y-93490918D01*
X176017370Y-93490917D01*
X176168437Y-93454649D01*
X176251092Y-93434805D01*
X176255663Y-93432912D01*
X176255665Y-93432911D01*
X176333033Y-93400864D01*
X176477732Y-93340927D01*
X176613485Y-93257738D01*
X176682670Y-93215342D01*
X176682673Y-93215340D01*
X176686896Y-93212752D01*
X176825092Y-93094721D01*
X176869677Y-93056641D01*
X176873433Y-93053433D01*
X176922601Y-92995865D01*
X177029535Y-92870663D01*
X177029537Y-92870660D01*
X177032752Y-92866896D01*
X177035773Y-92861967D01*
X177107738Y-92744529D01*
X177160927Y-92657732D01*
X177234867Y-92479226D01*
X177252911Y-92435665D01*
X177252912Y-92435663D01*
X177254805Y-92431092D01*
X177297481Y-92253333D01*
X177332833Y-92191764D01*
X177395860Y-92159081D01*
X177466551Y-92165661D01*
X177522462Y-92209416D01*
X177546000Y-92282747D01*
X177546000Y-96213253D01*
X177525998Y-96281374D01*
X177472342Y-96327867D01*
X177402068Y-96337971D01*
X177337488Y-96308477D01*
X177297481Y-96242667D01*
X177255960Y-96069720D01*
X177254805Y-96064908D01*
X177250335Y-96054115D01*
X177196182Y-95923380D01*
X177160927Y-95838268D01*
X177047187Y-95652660D01*
X177035342Y-95633330D01*
X177035340Y-95633327D01*
X177032752Y-95629104D01*
X176902651Y-95476776D01*
X176876641Y-95446323D01*
X176873433Y-95442567D01*
X176686896Y-95283248D01*
X176682673Y-95280660D01*
X176682670Y-95280658D01*
X176613485Y-95238262D01*
X176477732Y-95155073D01*
X176333033Y-95095136D01*
X176255665Y-95063089D01*
X176255663Y-95063088D01*
X176251092Y-95061195D01*
X176120539Y-95029852D01*
X176017370Y-95005083D01*
X176017364Y-95005082D01*
X176012557Y-95003928D01*
X175768000Y-94984681D01*
X175523443Y-95003928D01*
X175518636Y-95005082D01*
X175518630Y-95005083D01*
X175415461Y-95029852D01*
X175284908Y-95061195D01*
X175280337Y-95063088D01*
X175280335Y-95063089D01*
X175202967Y-95095136D01*
X175058268Y-95155073D01*
X174922515Y-95238262D01*
X174853330Y-95280658D01*
X174853327Y-95280660D01*
X174849104Y-95283248D01*
X174662567Y-95442567D01*
X174659359Y-95446323D01*
X174633350Y-95476776D01*
X174503248Y-95629104D01*
X174500660Y-95633327D01*
X174500658Y-95633330D01*
X174488813Y-95652660D01*
X174375073Y-95838268D01*
X174339818Y-95923380D01*
X174285666Y-96054115D01*
X174281195Y-96064908D01*
X174280040Y-96069720D01*
X174245581Y-96213253D01*
X174223928Y-96303443D01*
X174204681Y-96548000D01*
X174223928Y-96792557D01*
X174225082Y-96797364D01*
X174225083Y-96797370D01*
X174261351Y-96948437D01*
X174281195Y-97031092D01*
X174283088Y-97035663D01*
X174283089Y-97035665D01*
X174312880Y-97107586D01*
X174375073Y-97257732D01*
X174430893Y-97348822D01*
X174471823Y-97415614D01*
X174503248Y-97466896D01*
X174506463Y-97470660D01*
X174506465Y-97470663D01*
X174590058Y-97568537D01*
X174662567Y-97653433D01*
X174666323Y-97656641D01*
X174816055Y-97784525D01*
X174849104Y-97812752D01*
X174853327Y-97815340D01*
X174853330Y-97815342D01*
X174875736Y-97829072D01*
X175058268Y-97940927D01*
X175202967Y-98000864D01*
X175280335Y-98032911D01*
X175280337Y-98032912D01*
X175284908Y-98034805D01*
X175362987Y-98053550D01*
X175518630Y-98090917D01*
X175518636Y-98090918D01*
X175523443Y-98092072D01*
X175768000Y-98111319D01*
X176012557Y-98092072D01*
X176017364Y-98090918D01*
X176017370Y-98090917D01*
X176173013Y-98053550D01*
X176251092Y-98034805D01*
X176255663Y-98032912D01*
X176255665Y-98032911D01*
X176333033Y-98000864D01*
X176477732Y-97940927D01*
X176660264Y-97829072D01*
X176682670Y-97815342D01*
X176682673Y-97815340D01*
X176686896Y-97812752D01*
X176719946Y-97784525D01*
X176869677Y-97656641D01*
X176873433Y-97653433D01*
X176945942Y-97568537D01*
X177029535Y-97470663D01*
X177029537Y-97470660D01*
X177032752Y-97466896D01*
X177064178Y-97415614D01*
X177105107Y-97348822D01*
X177160927Y-97257732D01*
X177223120Y-97107586D01*
X177252911Y-97035665D01*
X177252912Y-97035663D01*
X177254805Y-97031092D01*
X177297481Y-96853333D01*
X177332833Y-96791764D01*
X177395860Y-96759081D01*
X177466551Y-96765661D01*
X177522462Y-96809416D01*
X177546000Y-96882747D01*
X177546000Y-100815393D01*
X177525998Y-100883514D01*
X177472342Y-100930007D01*
X177402068Y-100940111D01*
X177337488Y-100910617D01*
X177297481Y-100844807D01*
X177255483Y-100669875D01*
X177252434Y-100660490D01*
X177162375Y-100443067D01*
X177157893Y-100434272D01*
X177046928Y-100253195D01*
X177036470Y-100243733D01*
X177027694Y-100247516D01*
X176140022Y-101135188D01*
X176132408Y-101149132D01*
X176132539Y-101150965D01*
X176136790Y-101157580D01*
X177024650Y-102045440D01*
X177037030Y-102052200D01*
X177044680Y-102046473D01*
X177157893Y-101861728D01*
X177162375Y-101852933D01*
X177252434Y-101635510D01*
X177255483Y-101626125D01*
X177297481Y-101451193D01*
X177332833Y-101389624D01*
X177395860Y-101356941D01*
X177466551Y-101363522D01*
X177522462Y-101407276D01*
X177546000Y-101480607D01*
X177546000Y-105303393D01*
X177525998Y-105371514D01*
X177472342Y-105418007D01*
X177402068Y-105428111D01*
X177337488Y-105398617D01*
X177297481Y-105332807D01*
X177255483Y-105157875D01*
X177252434Y-105148490D01*
X177162375Y-104931067D01*
X177157893Y-104922272D01*
X177046928Y-104741195D01*
X177036470Y-104731733D01*
X177027694Y-104735516D01*
X176140022Y-105623188D01*
X176132408Y-105637132D01*
X176132539Y-105638965D01*
X176136790Y-105645580D01*
X177024650Y-106533440D01*
X177037030Y-106540200D01*
X177044680Y-106534473D01*
X177157893Y-106349728D01*
X177162375Y-106340933D01*
X177252434Y-106123510D01*
X177255483Y-106114125D01*
X177297481Y-105939193D01*
X177332833Y-105877624D01*
X177395860Y-105844941D01*
X177466551Y-105851522D01*
X177522462Y-105895276D01*
X177546000Y-105968607D01*
X177546000Y-109194849D01*
X177525998Y-109262970D01*
X177472342Y-109309463D01*
X177402068Y-109319567D01*
X177337488Y-109290073D01*
X177300476Y-109234725D01*
X177261868Y-109119003D01*
X177259550Y-109112055D01*
X177166478Y-108961652D01*
X177041303Y-108836695D01*
X177035072Y-108832854D01*
X176896968Y-108747725D01*
X176896966Y-108747724D01*
X176890738Y-108743885D01*
X176730254Y-108690655D01*
X176729389Y-108690368D01*
X176729387Y-108690368D01*
X176722861Y-108688203D01*
X176716025Y-108687503D01*
X176716022Y-108687502D01*
X176672969Y-108683091D01*
X176618400Y-108677500D01*
X174917600Y-108677500D01*
X174914354Y-108677837D01*
X174914350Y-108677837D01*
X174818693Y-108687762D01*
X174818689Y-108687763D01*
X174811835Y-108688474D01*
X174805299Y-108690655D01*
X174805297Y-108690655D01*
X174673195Y-108734728D01*
X174644055Y-108744450D01*
X174493652Y-108837522D01*
X174368695Y-108962697D01*
X174275885Y-109113262D01*
X174220203Y-109281139D01*
X174219503Y-109287975D01*
X174219502Y-109287978D01*
X174217301Y-109309463D01*
X174209500Y-109385600D01*
X174209500Y-109476500D01*
X174189498Y-109544621D01*
X174135842Y-109591114D01*
X174083500Y-109602500D01*
X168970594Y-109602500D01*
X168902473Y-109582498D01*
X168881499Y-109565595D01*
X166220935Y-106905030D01*
X174863800Y-106905030D01*
X174869527Y-106912680D01*
X175054272Y-107025893D01*
X175063067Y-107030375D01*
X175280490Y-107120434D01*
X175289875Y-107123483D01*
X175518708Y-107178422D01*
X175528455Y-107179965D01*
X175763070Y-107198430D01*
X175772930Y-107198430D01*
X176007545Y-107179965D01*
X176017292Y-107178422D01*
X176246125Y-107123483D01*
X176255510Y-107120434D01*
X176472933Y-107030375D01*
X176481728Y-107025893D01*
X176662805Y-106914928D01*
X176672267Y-106904470D01*
X176668484Y-106895694D01*
X175780812Y-106008022D01*
X175766868Y-106000408D01*
X175765035Y-106000539D01*
X175758420Y-106004790D01*
X174870560Y-106892650D01*
X174863800Y-106905030D01*
X166220935Y-106905030D01*
X165982362Y-106666457D01*
X164956835Y-105640930D01*
X174205570Y-105640930D01*
X174224035Y-105875545D01*
X174225578Y-105885292D01*
X174280517Y-106114125D01*
X174283566Y-106123510D01*
X174373625Y-106340933D01*
X174378107Y-106349728D01*
X174489072Y-106530805D01*
X174499530Y-106540267D01*
X174508306Y-106536484D01*
X175395978Y-105648812D01*
X175403592Y-105634868D01*
X175403461Y-105633035D01*
X175399210Y-105626420D01*
X174511350Y-104738560D01*
X174498970Y-104731800D01*
X174491320Y-104737527D01*
X174378107Y-104922272D01*
X174373625Y-104931067D01*
X174283566Y-105148490D01*
X174280517Y-105157875D01*
X174225578Y-105386708D01*
X174224035Y-105396455D01*
X174205570Y-105631070D01*
X174205570Y-105640930D01*
X164956835Y-105640930D01*
X163683435Y-104367530D01*
X174863733Y-104367530D01*
X174867516Y-104376306D01*
X175755188Y-105263978D01*
X175769132Y-105271592D01*
X175770965Y-105271461D01*
X175777580Y-105267210D01*
X176665440Y-104379350D01*
X176672200Y-104366970D01*
X176666473Y-104359320D01*
X176481728Y-104246107D01*
X176472933Y-104241625D01*
X176255510Y-104151566D01*
X176246125Y-104148517D01*
X176017292Y-104093578D01*
X176007545Y-104092035D01*
X175772930Y-104073570D01*
X175763070Y-104073570D01*
X175528455Y-104092035D01*
X175518708Y-104093578D01*
X175289875Y-104148517D01*
X175280490Y-104151566D01*
X175063067Y-104241625D01*
X175054272Y-104246107D01*
X174873195Y-104357072D01*
X174863733Y-104367530D01*
X163683435Y-104367530D01*
X163063652Y-103747747D01*
X163056112Y-103739461D01*
X163052000Y-103732982D01*
X163002348Y-103686356D01*
X162999507Y-103683602D01*
X162979770Y-103663865D01*
X162976573Y-103661385D01*
X162967551Y-103653680D01*
X162941100Y-103628841D01*
X162935321Y-103623414D01*
X162928375Y-103619595D01*
X162928372Y-103619593D01*
X162917566Y-103613652D01*
X162901047Y-103602801D01*
X162900583Y-103602441D01*
X162885041Y-103590386D01*
X162877772Y-103587241D01*
X162877768Y-103587238D01*
X162844463Y-103572826D01*
X162833813Y-103567609D01*
X162795060Y-103546305D01*
X162775437Y-103541267D01*
X162756734Y-103534863D01*
X162745420Y-103529967D01*
X162745419Y-103529967D01*
X162738145Y-103526819D01*
X162730322Y-103525580D01*
X162730312Y-103525577D01*
X162694476Y-103519901D01*
X162682856Y-103517495D01*
X162647711Y-103508472D01*
X162647710Y-103508472D01*
X162640030Y-103506500D01*
X162619776Y-103506500D01*
X162600065Y-103504949D01*
X162587886Y-103503020D01*
X162580057Y-103501780D01*
X162572165Y-103502526D01*
X162536039Y-103505941D01*
X162524181Y-103506500D01*
X155762594Y-103506500D01*
X155694473Y-103486498D01*
X155673499Y-103469595D01*
X154620935Y-102417030D01*
X174863800Y-102417030D01*
X174869527Y-102424680D01*
X175054272Y-102537893D01*
X175063067Y-102542375D01*
X175280490Y-102632434D01*
X175289875Y-102635483D01*
X175518708Y-102690422D01*
X175528455Y-102691965D01*
X175763070Y-102710430D01*
X175772930Y-102710430D01*
X176007545Y-102691965D01*
X176017292Y-102690422D01*
X176246125Y-102635483D01*
X176255510Y-102632434D01*
X176472933Y-102542375D01*
X176481728Y-102537893D01*
X176662805Y-102426928D01*
X176672267Y-102416470D01*
X176668484Y-102407694D01*
X175780812Y-101520022D01*
X175766868Y-101512408D01*
X175765035Y-101512539D01*
X175758420Y-101516790D01*
X174870560Y-102404650D01*
X174863800Y-102417030D01*
X154620935Y-102417030D01*
X154363122Y-102159217D01*
X154329096Y-102096905D01*
X154326907Y-102083292D01*
X154326004Y-102074695D01*
X154316249Y-101981885D01*
X154310232Y-101924635D01*
X154310232Y-101924633D01*
X154309542Y-101918072D01*
X154250527Y-101736444D01*
X154155040Y-101571056D01*
X154116669Y-101528440D01*
X154031675Y-101434045D01*
X154031674Y-101434044D01*
X154027253Y-101429134D01*
X153872752Y-101316882D01*
X153866724Y-101314198D01*
X153866722Y-101314197D01*
X153704319Y-101241891D01*
X153704318Y-101241891D01*
X153698288Y-101239206D01*
X153604888Y-101219353D01*
X153517944Y-101200872D01*
X153517939Y-101200872D01*
X153511487Y-101199500D01*
X153320513Y-101199500D01*
X153314061Y-101200872D01*
X153314056Y-101200872D01*
X153227113Y-101219353D01*
X153133712Y-101239206D01*
X153127682Y-101241891D01*
X153127681Y-101241891D01*
X152965278Y-101314197D01*
X152965276Y-101314198D01*
X152959248Y-101316882D01*
X152804747Y-101429134D01*
X152800326Y-101434044D01*
X152800325Y-101434045D01*
X152715332Y-101528440D01*
X152676960Y-101571056D01*
X152581473Y-101736444D01*
X152522458Y-101918072D01*
X152521768Y-101924633D01*
X152521768Y-101924635D01*
X152515751Y-101981885D01*
X152502496Y-102108000D01*
X152503186Y-102114565D01*
X152508851Y-102168460D01*
X152522458Y-102297928D01*
X152581473Y-102479556D01*
X152676960Y-102644944D01*
X152681378Y-102649851D01*
X152681379Y-102649852D01*
X152800325Y-102781955D01*
X152804747Y-102786866D01*
X152959248Y-102899118D01*
X152965276Y-102901802D01*
X152965278Y-102901803D01*
X153127681Y-102974109D01*
X153133712Y-102976794D01*
X153227113Y-102996647D01*
X153314056Y-103015128D01*
X153314061Y-103015128D01*
X153320513Y-103016500D01*
X153376406Y-103016500D01*
X153444527Y-103036502D01*
X153465501Y-103053405D01*
X154944348Y-104532253D01*
X154951888Y-104540539D01*
X154956000Y-104547018D01*
X154961777Y-104552443D01*
X155005651Y-104593643D01*
X155008493Y-104596398D01*
X155028230Y-104616135D01*
X155031427Y-104618615D01*
X155040447Y-104626318D01*
X155072679Y-104656586D01*
X155079625Y-104660405D01*
X155079628Y-104660407D01*
X155090434Y-104666348D01*
X155106953Y-104677199D01*
X155122959Y-104689614D01*
X155130228Y-104692759D01*
X155130232Y-104692762D01*
X155163537Y-104707174D01*
X155174187Y-104712391D01*
X155212940Y-104733695D01*
X155220615Y-104735666D01*
X155220616Y-104735666D01*
X155232562Y-104738733D01*
X155251267Y-104745137D01*
X155269855Y-104753181D01*
X155277678Y-104754420D01*
X155277688Y-104754423D01*
X155313524Y-104760099D01*
X155325144Y-104762505D01*
X155348877Y-104768598D01*
X155367970Y-104773500D01*
X155388224Y-104773500D01*
X155407934Y-104775051D01*
X155427943Y-104778220D01*
X155435835Y-104777474D01*
X155467296Y-104774500D01*
X155471962Y-104774059D01*
X155483819Y-104773500D01*
X162245406Y-104773500D01*
X162313527Y-104793502D01*
X162334501Y-104810405D01*
X168152348Y-110628253D01*
X168159888Y-110636539D01*
X168164000Y-110643018D01*
X168169777Y-110648443D01*
X168213651Y-110689643D01*
X168216493Y-110692398D01*
X168236230Y-110712135D01*
X168239427Y-110714615D01*
X168248447Y-110722318D01*
X168280679Y-110752586D01*
X168287625Y-110756405D01*
X168287628Y-110756407D01*
X168298434Y-110762348D01*
X168314953Y-110773199D01*
X168330959Y-110785614D01*
X168338228Y-110788759D01*
X168338232Y-110788762D01*
X168371537Y-110803174D01*
X168382187Y-110808391D01*
X168420940Y-110829695D01*
X168428615Y-110831666D01*
X168428616Y-110831666D01*
X168440562Y-110834733D01*
X168459267Y-110841137D01*
X168477855Y-110849181D01*
X168485678Y-110850420D01*
X168485688Y-110850423D01*
X168521524Y-110856099D01*
X168533144Y-110858505D01*
X168568289Y-110867528D01*
X168575970Y-110869500D01*
X168596224Y-110869500D01*
X168615934Y-110871051D01*
X168635943Y-110874220D01*
X168643835Y-110873474D01*
X168679961Y-110870059D01*
X168691819Y-110869500D01*
X174083500Y-110869500D01*
X174151621Y-110889502D01*
X174198114Y-110943158D01*
X174209500Y-110995500D01*
X174209500Y-111086400D01*
X174209837Y-111089646D01*
X174209837Y-111089650D01*
X174219098Y-111178901D01*
X174220474Y-111192165D01*
X174222655Y-111198701D01*
X174222655Y-111198703D01*
X174235519Y-111237261D01*
X174276450Y-111359945D01*
X174369522Y-111510348D01*
X174494697Y-111635305D01*
X174500927Y-111639145D01*
X174500928Y-111639146D01*
X174638090Y-111723694D01*
X174645262Y-111728115D01*
X174725005Y-111754564D01*
X174806611Y-111781632D01*
X174806613Y-111781632D01*
X174813139Y-111783797D01*
X174819975Y-111784497D01*
X174819978Y-111784498D01*
X174863031Y-111788909D01*
X174917600Y-111794500D01*
X176618400Y-111794500D01*
X176621646Y-111794163D01*
X176621650Y-111794163D01*
X176717307Y-111784238D01*
X176717311Y-111784237D01*
X176724165Y-111783526D01*
X176730701Y-111781345D01*
X176730703Y-111781345D01*
X176862805Y-111737272D01*
X176891945Y-111727550D01*
X177042348Y-111634478D01*
X177167305Y-111509303D01*
X177260115Y-111358738D01*
X177300407Y-111237261D01*
X177340838Y-111178901D01*
X177406402Y-111151664D01*
X177476283Y-111164197D01*
X177528295Y-111212522D01*
X177546000Y-111276928D01*
X177546000Y-112142000D01*
X177525998Y-112210121D01*
X177472342Y-112256614D01*
X177420000Y-112268000D01*
X116458000Y-112268000D01*
X116389879Y-112247998D01*
X116343386Y-112194342D01*
X116332000Y-112142000D01*
X116332000Y-106835269D01*
X116352002Y-106767148D01*
X116405658Y-106720655D01*
X116475932Y-106710551D01*
X116540512Y-106740045D01*
X116568662Y-106778024D01*
X116569473Y-106777556D01*
X116664960Y-106942944D01*
X116669378Y-106947851D01*
X116669379Y-106947852D01*
X116743683Y-107030375D01*
X116792747Y-107084866D01*
X116947248Y-107197118D01*
X116953276Y-107199802D01*
X116953278Y-107199803D01*
X117115681Y-107272109D01*
X117121712Y-107274794D01*
X117215112Y-107294647D01*
X117302056Y-107313128D01*
X117302061Y-107313128D01*
X117308513Y-107314500D01*
X117499487Y-107314500D01*
X117505939Y-107313128D01*
X117505944Y-107313128D01*
X117592888Y-107294647D01*
X117686288Y-107274794D01*
X117692319Y-107272109D01*
X117854722Y-107199803D01*
X117854724Y-107199802D01*
X117860752Y-107197118D01*
X118015253Y-107084866D01*
X118064317Y-107030375D01*
X118138621Y-106947852D01*
X118138622Y-106947851D01*
X118143040Y-106942944D01*
X118238527Y-106777556D01*
X118284167Y-106637090D01*
X118324241Y-106578486D01*
X118389637Y-106550849D01*
X118459594Y-106562956D01*
X118511900Y-106610962D01*
X118523832Y-106637089D01*
X118569473Y-106777556D01*
X118664960Y-106942944D01*
X118669378Y-106947851D01*
X118669379Y-106947852D01*
X118743683Y-107030375D01*
X118792747Y-107084866D01*
X118947248Y-107197118D01*
X118953276Y-107199802D01*
X118953278Y-107199803D01*
X119115681Y-107272109D01*
X119121712Y-107274794D01*
X119215112Y-107294647D01*
X119302056Y-107313128D01*
X119302061Y-107313128D01*
X119308513Y-107314500D01*
X119499487Y-107314500D01*
X119505939Y-107313128D01*
X119505944Y-107313128D01*
X119592888Y-107294647D01*
X119686288Y-107274794D01*
X119692319Y-107272109D01*
X119854722Y-107199803D01*
X119854724Y-107199802D01*
X119860752Y-107197118D01*
X120015253Y-107084866D01*
X120064317Y-107030375D01*
X120138621Y-106947852D01*
X120138622Y-106947851D01*
X120143040Y-106942944D01*
X120238527Y-106777556D01*
X120284167Y-106637090D01*
X120324241Y-106578486D01*
X120389637Y-106550849D01*
X120459594Y-106562956D01*
X120511900Y-106610962D01*
X120523832Y-106637089D01*
X120569473Y-106777556D01*
X120664960Y-106942944D01*
X120669378Y-106947851D01*
X120669379Y-106947852D01*
X120743683Y-107030375D01*
X120792747Y-107084866D01*
X120947248Y-107197118D01*
X120953276Y-107199802D01*
X120953278Y-107199803D01*
X121115681Y-107272109D01*
X121121712Y-107274794D01*
X121215112Y-107294647D01*
X121302056Y-107313128D01*
X121302061Y-107313128D01*
X121308513Y-107314500D01*
X121499487Y-107314500D01*
X121505939Y-107313128D01*
X121505944Y-107313128D01*
X121592888Y-107294647D01*
X121686288Y-107274794D01*
X121692319Y-107272109D01*
X121854722Y-107199803D01*
X121854724Y-107199802D01*
X121860752Y-107197118D01*
X122015253Y-107084866D01*
X122064317Y-107030375D01*
X122138621Y-106947852D01*
X122138622Y-106947851D01*
X122143040Y-106942944D01*
X122238527Y-106777556D01*
X122284167Y-106637090D01*
X122324241Y-106578486D01*
X122389637Y-106550849D01*
X122459594Y-106562956D01*
X122511900Y-106610962D01*
X122523832Y-106637089D01*
X122569473Y-106777556D01*
X122664960Y-106942944D01*
X122669378Y-106947851D01*
X122669379Y-106947852D01*
X122743683Y-107030375D01*
X122792747Y-107084866D01*
X122947248Y-107197118D01*
X122953276Y-107199802D01*
X122953278Y-107199803D01*
X123115681Y-107272109D01*
X123121712Y-107274794D01*
X123215112Y-107294647D01*
X123302056Y-107313128D01*
X123302061Y-107313128D01*
X123308513Y-107314500D01*
X123499487Y-107314500D01*
X123505939Y-107313128D01*
X123505944Y-107313128D01*
X123592888Y-107294647D01*
X123686288Y-107274794D01*
X123692319Y-107272109D01*
X123854722Y-107199803D01*
X123854724Y-107199802D01*
X123860752Y-107197118D01*
X124015253Y-107084866D01*
X124064317Y-107030375D01*
X124138621Y-106947852D01*
X124138622Y-106947851D01*
X124143040Y-106942944D01*
X124238527Y-106777556D01*
X124297542Y-106595928D01*
X124301008Y-106562956D01*
X124316814Y-106412565D01*
X124317504Y-106406000D01*
X124302280Y-106261151D01*
X124298232Y-106222635D01*
X124298232Y-106222633D01*
X124297542Y-106216072D01*
X124238527Y-106034444D01*
X124208290Y-105982072D01*
X124146344Y-105874778D01*
X124146341Y-105874774D01*
X124143040Y-105869056D01*
X124138618Y-105864145D01*
X124138616Y-105864142D01*
X124109864Y-105832209D01*
X124079146Y-105768202D01*
X124077500Y-105747899D01*
X124077500Y-105410000D01*
X135376647Y-105410000D01*
X135396022Y-105631463D01*
X135453560Y-105846196D01*
X135455882Y-105851177D01*
X135455883Y-105851178D01*
X135545186Y-106042689D01*
X135545189Y-106042694D01*
X135547512Y-106047676D01*
X135550668Y-106052183D01*
X135550669Y-106052185D01*
X135629968Y-106165435D01*
X135675023Y-106229781D01*
X135832219Y-106386977D01*
X135836727Y-106390134D01*
X135836730Y-106390136D01*
X135868762Y-106412565D01*
X136014323Y-106514488D01*
X136019305Y-106516811D01*
X136019310Y-106516814D01*
X136202435Y-106602206D01*
X136215804Y-106608440D01*
X136221112Y-106609862D01*
X136221114Y-106609863D01*
X136225216Y-106610962D01*
X136430537Y-106665978D01*
X136652000Y-106685353D01*
X136873463Y-106665978D01*
X137078784Y-106610962D01*
X137082886Y-106609863D01*
X137082888Y-106609862D01*
X137088196Y-106608440D01*
X137101565Y-106602206D01*
X137284690Y-106516814D01*
X137284695Y-106516811D01*
X137289677Y-106514488D01*
X137435238Y-106412565D01*
X137467270Y-106390136D01*
X137467273Y-106390134D01*
X137471781Y-106386977D01*
X137628977Y-106229781D01*
X137674033Y-106165435D01*
X137753331Y-106052185D01*
X137753332Y-106052183D01*
X137756488Y-106047676D01*
X137758811Y-106042694D01*
X137758814Y-106042689D01*
X137848117Y-105851178D01*
X137848118Y-105851177D01*
X137850440Y-105846196D01*
X137907978Y-105631463D01*
X137927353Y-105410000D01*
X137907978Y-105188537D01*
X137897514Y-105149484D01*
X137899204Y-105078507D01*
X137930126Y-105027778D01*
X138559247Y-104398657D01*
X138567537Y-104391113D01*
X138574018Y-104387000D01*
X138607938Y-104350878D01*
X138659911Y-104317607D01*
X138815946Y-104265550D01*
X138966348Y-104172478D01*
X139091305Y-104047303D01*
X139093906Y-104043084D01*
X139151030Y-104002583D01*
X139221953Y-103999351D01*
X139283365Y-104034976D01*
X139289922Y-104042530D01*
X139293522Y-104048348D01*
X139418697Y-104173305D01*
X139424927Y-104177145D01*
X139424928Y-104177146D01*
X139562090Y-104261694D01*
X139569262Y-104266115D01*
X139717919Y-104315422D01*
X139758566Y-104337930D01*
X139785605Y-104360299D01*
X139794384Y-104368288D01*
X140453874Y-105027778D01*
X140487900Y-105090090D01*
X140486486Y-105149484D01*
X140476022Y-105188537D01*
X140456647Y-105410000D01*
X140476022Y-105631463D01*
X140533560Y-105846196D01*
X140535882Y-105851177D01*
X140535883Y-105851178D01*
X140625186Y-106042689D01*
X140625189Y-106042694D01*
X140627512Y-106047676D01*
X140630668Y-106052183D01*
X140630669Y-106052185D01*
X140709968Y-106165435D01*
X140755023Y-106229781D01*
X140912219Y-106386977D01*
X140916727Y-106390134D01*
X140916730Y-106390136D01*
X140948762Y-106412565D01*
X141094323Y-106514488D01*
X141099305Y-106516811D01*
X141099310Y-106516814D01*
X141282435Y-106602206D01*
X141295804Y-106608440D01*
X141301112Y-106609862D01*
X141301114Y-106609863D01*
X141305216Y-106610962D01*
X141510537Y-106665978D01*
X141732000Y-106685353D01*
X141953463Y-106665978D01*
X142158784Y-106610962D01*
X142162886Y-106609863D01*
X142162888Y-106609862D01*
X142168196Y-106608440D01*
X142181565Y-106602206D01*
X142364690Y-106516814D01*
X142364695Y-106516811D01*
X142369677Y-106514488D01*
X142515238Y-106412565D01*
X142547270Y-106390136D01*
X142547273Y-106390134D01*
X142551781Y-106386977D01*
X142708977Y-106229781D01*
X142754033Y-106165435D01*
X142833331Y-106052185D01*
X142833332Y-106052183D01*
X142836488Y-106047676D01*
X142838811Y-106042694D01*
X142838814Y-106042689D01*
X142928117Y-105851178D01*
X142928118Y-105851177D01*
X142930440Y-105846196D01*
X142987978Y-105631463D01*
X143007353Y-105410000D01*
X142987978Y-105188537D01*
X142930440Y-104973804D01*
X142910535Y-104931118D01*
X142838814Y-104777311D01*
X142838811Y-104777306D01*
X142836488Y-104772324D01*
X142833282Y-104767745D01*
X142712136Y-104594730D01*
X142712134Y-104594727D01*
X142708977Y-104590219D01*
X142551781Y-104433023D01*
X142547273Y-104429866D01*
X142547270Y-104429864D01*
X142447124Y-104359741D01*
X142369677Y-104305512D01*
X142364695Y-104303189D01*
X142364690Y-104303186D01*
X142173178Y-104213883D01*
X142173177Y-104213882D01*
X142168196Y-104211560D01*
X142162888Y-104210138D01*
X142162886Y-104210137D01*
X142036724Y-104176332D01*
X141953463Y-104154022D01*
X141732000Y-104134647D01*
X141510537Y-104154022D01*
X141505223Y-104155446D01*
X141505217Y-104155447D01*
X141471486Y-104164485D01*
X141400510Y-104162796D01*
X141349779Y-104131874D01*
X141257869Y-104039964D01*
X141223843Y-103977652D01*
X141228908Y-103906837D01*
X141231066Y-103901684D01*
X141234115Y-103896738D01*
X141289797Y-103728861D01*
X141300500Y-103624400D01*
X141300500Y-102623600D01*
X141296587Y-102585886D01*
X141290238Y-102524692D01*
X141290237Y-102524688D01*
X141289526Y-102517834D01*
X141287323Y-102511229D01*
X141235868Y-102357002D01*
X141233550Y-102350054D01*
X141140478Y-102199652D01*
X141015303Y-102074695D01*
X140963568Y-102042805D01*
X140870968Y-101985725D01*
X140870966Y-101985724D01*
X140864738Y-101981885D01*
X140784995Y-101955436D01*
X140703389Y-101928368D01*
X140703387Y-101928368D01*
X140696861Y-101926203D01*
X140690025Y-101925503D01*
X140690022Y-101925502D01*
X140646969Y-101921091D01*
X140592400Y-101915500D01*
X140126500Y-101915500D01*
X140058379Y-101895498D01*
X140011886Y-101841842D01*
X140000500Y-101789500D01*
X140000500Y-100677866D01*
X139993745Y-100615684D01*
X139942615Y-100479295D01*
X139855261Y-100362739D01*
X139738705Y-100275385D01*
X139602316Y-100224255D01*
X139540134Y-100217500D01*
X138843866Y-100217500D01*
X138781684Y-100224255D01*
X138645295Y-100275385D01*
X138528739Y-100362739D01*
X138441385Y-100479295D01*
X138390255Y-100615684D01*
X138383500Y-100677866D01*
X138383500Y-101186405D01*
X138363498Y-101254526D01*
X138346595Y-101275501D01*
X137774742Y-101847353D01*
X137766463Y-101854887D01*
X137759982Y-101859000D01*
X137754556Y-101864778D01*
X137754549Y-101864784D01*
X137723327Y-101898033D01*
X137671354Y-101931304D01*
X137525007Y-101980130D01*
X137525005Y-101980131D01*
X137518054Y-101982450D01*
X137367652Y-102075522D01*
X137242695Y-102200697D01*
X137238855Y-102206927D01*
X137238854Y-102206928D01*
X137182761Y-102297928D01*
X137149885Y-102351262D01*
X137128257Y-102416470D01*
X137096827Y-102511229D01*
X137094203Y-102519139D01*
X137083500Y-102623600D01*
X137083500Y-103624400D01*
X137083837Y-103627646D01*
X137083837Y-103627650D01*
X137089643Y-103683602D01*
X137094474Y-103730166D01*
X137096655Y-103736702D01*
X137096655Y-103736704D01*
X137122899Y-103815365D01*
X137150450Y-103897946D01*
X137151474Y-103899601D01*
X137161922Y-103967593D01*
X137133055Y-104032456D01*
X137126132Y-104039963D01*
X137034221Y-104131874D01*
X136971909Y-104165900D01*
X136912514Y-104164485D01*
X136878783Y-104155447D01*
X136878777Y-104155446D01*
X136873463Y-104154022D01*
X136652000Y-104134647D01*
X136430537Y-104154022D01*
X136347276Y-104176332D01*
X136221114Y-104210137D01*
X136221112Y-104210138D01*
X136215804Y-104211560D01*
X136210823Y-104213882D01*
X136210822Y-104213883D01*
X136019311Y-104303186D01*
X136019306Y-104303189D01*
X136014324Y-104305512D01*
X136009817Y-104308668D01*
X136009815Y-104308669D01*
X135836730Y-104429864D01*
X135836727Y-104429866D01*
X135832219Y-104433023D01*
X135675023Y-104590219D01*
X135671866Y-104594727D01*
X135671864Y-104594730D01*
X135550718Y-104767745D01*
X135547512Y-104772324D01*
X135545189Y-104777306D01*
X135545186Y-104777311D01*
X135473465Y-104931118D01*
X135453560Y-104973804D01*
X135396022Y-105188537D01*
X135376647Y-105410000D01*
X124077500Y-105410000D01*
X124077500Y-104811197D01*
X124097502Y-104743076D01*
X124151158Y-104696583D01*
X124163623Y-104691674D01*
X124211002Y-104675867D01*
X124211004Y-104675866D01*
X124217946Y-104673550D01*
X124229585Y-104666348D01*
X124362120Y-104584332D01*
X124368348Y-104580478D01*
X124373521Y-104575296D01*
X124373526Y-104575292D01*
X124450488Y-104498195D01*
X124512770Y-104464115D01*
X124583590Y-104469118D01*
X124640463Y-104511615D01*
X124648780Y-104524212D01*
X124736960Y-104676944D01*
X124741378Y-104681851D01*
X124741379Y-104681852D01*
X124857842Y-104811197D01*
X124864747Y-104818866D01*
X124963843Y-104890864D01*
X125007073Y-104922272D01*
X125019248Y-104931118D01*
X125025276Y-104933802D01*
X125025278Y-104933803D01*
X125127049Y-104979114D01*
X125193712Y-105008794D01*
X125283024Y-105027778D01*
X125374056Y-105047128D01*
X125374061Y-105047128D01*
X125380513Y-105048500D01*
X125571487Y-105048500D01*
X125577939Y-105047128D01*
X125577944Y-105047128D01*
X125668976Y-105027778D01*
X125758288Y-105008794D01*
X125824951Y-104979114D01*
X125926722Y-104933803D01*
X125926724Y-104933802D01*
X125932752Y-104931118D01*
X125944928Y-104922272D01*
X125988157Y-104890864D01*
X126087253Y-104818866D01*
X126091675Y-104813954D01*
X126096577Y-104809541D01*
X126097962Y-104811079D01*
X126150096Y-104778953D01*
X126183298Y-104774500D01*
X126840134Y-104774500D01*
X126902316Y-104767745D01*
X127038705Y-104716615D01*
X127155261Y-104629261D01*
X127242615Y-104512705D01*
X127254601Y-104480732D01*
X127278679Y-104416506D01*
X127321321Y-104359741D01*
X127387883Y-104335042D01*
X127457231Y-104350250D01*
X127470722Y-104358800D01*
X127514585Y-104390668D01*
X127559248Y-104423118D01*
X127565276Y-104425802D01*
X127565278Y-104425803D01*
X127727681Y-104498109D01*
X127733712Y-104500794D01*
X127823556Y-104519891D01*
X127914056Y-104539128D01*
X127914061Y-104539128D01*
X127920513Y-104540500D01*
X128111487Y-104540500D01*
X128117939Y-104539128D01*
X128117944Y-104539128D01*
X128208444Y-104519891D01*
X128298288Y-104500794D01*
X128304319Y-104498109D01*
X128466722Y-104425803D01*
X128466724Y-104425802D01*
X128472752Y-104423118D01*
X128627253Y-104310866D01*
X128634168Y-104303186D01*
X128750621Y-104173852D01*
X128750622Y-104173851D01*
X128755040Y-104168944D01*
X128850527Y-104003556D01*
X128909542Y-103821928D01*
X128918891Y-103732982D01*
X128928814Y-103638565D01*
X128929504Y-103632000D01*
X128915896Y-103502526D01*
X128910232Y-103448635D01*
X128910232Y-103448633D01*
X128909542Y-103442072D01*
X128850527Y-103260444D01*
X128844209Y-103249500D01*
X128758341Y-103100774D01*
X128755040Y-103095056D01*
X128627253Y-102953134D01*
X128472752Y-102840882D01*
X128466724Y-102838198D01*
X128466722Y-102838197D01*
X128304319Y-102765891D01*
X128304318Y-102765891D01*
X128298288Y-102763206D01*
X128204887Y-102743353D01*
X128117944Y-102724872D01*
X128117939Y-102724872D01*
X128111487Y-102723500D01*
X128090877Y-102723500D01*
X128022756Y-102703498D01*
X127976263Y-102649842D01*
X127966159Y-102579568D01*
X127995653Y-102514988D01*
X128015312Y-102496674D01*
X128038153Y-102479556D01*
X128105261Y-102429261D01*
X128169174Y-102343982D01*
X128226033Y-102301467D01*
X128296852Y-102296441D01*
X128359145Y-102330501D01*
X128370825Y-102343981D01*
X128434739Y-102429261D01*
X128551295Y-102516615D01*
X128687684Y-102567745D01*
X128749866Y-102574500D01*
X129288500Y-102574500D01*
X129356621Y-102594502D01*
X129403114Y-102648158D01*
X129414500Y-102700500D01*
X129414500Y-102722587D01*
X129394498Y-102790708D01*
X129384898Y-102802620D01*
X129384739Y-102802739D01*
X129297385Y-102919295D01*
X129246255Y-103055684D01*
X129239500Y-103117866D01*
X129239500Y-104314134D01*
X129246255Y-104376316D01*
X129297385Y-104512705D01*
X129384739Y-104629261D01*
X129501295Y-104716615D01*
X129637684Y-104767745D01*
X129699866Y-104774500D01*
X130396134Y-104774500D01*
X130458316Y-104767745D01*
X130594705Y-104716615D01*
X130711261Y-104629261D01*
X130798615Y-104512705D01*
X130849745Y-104376316D01*
X130856500Y-104314134D01*
X130856500Y-103117866D01*
X130849745Y-103055684D01*
X130798615Y-102919295D01*
X130711261Y-102802739D01*
X130712865Y-102801537D01*
X130684379Y-102749370D01*
X130681500Y-102722587D01*
X130681500Y-102700500D01*
X130701502Y-102632379D01*
X130755158Y-102585886D01*
X130807500Y-102574500D01*
X131346134Y-102574500D01*
X131408316Y-102567745D01*
X131544705Y-102516615D01*
X131661261Y-102429261D01*
X131748615Y-102312705D01*
X131799745Y-102176316D01*
X131806500Y-102114134D01*
X131806500Y-100917866D01*
X131799745Y-100855684D01*
X131748615Y-100719295D01*
X131661261Y-100602739D01*
X131662865Y-100601537D01*
X131634379Y-100549370D01*
X131631500Y-100522587D01*
X131631500Y-100088763D01*
X131632027Y-100077579D01*
X131633701Y-100070091D01*
X131631562Y-100002032D01*
X131631500Y-99998075D01*
X131631500Y-99970144D01*
X131630994Y-99966138D01*
X131630061Y-99954292D01*
X131629424Y-99934000D01*
X131628673Y-99910110D01*
X131623022Y-99890658D01*
X131619014Y-99871306D01*
X131617468Y-99859068D01*
X131617467Y-99859066D01*
X131616474Y-99851203D01*
X131600194Y-99810086D01*
X131596359Y-99798885D01*
X131584018Y-99756406D01*
X131579985Y-99749587D01*
X131579983Y-99749582D01*
X131573707Y-99738971D01*
X131565010Y-99721221D01*
X131557552Y-99702383D01*
X131531571Y-99666623D01*
X131525053Y-99656701D01*
X131506578Y-99625461D01*
X131506577Y-99625459D01*
X131502542Y-99618637D01*
X131496937Y-99613032D01*
X131492680Y-99607544D01*
X131466928Y-99543487D01*
X131450232Y-99384635D01*
X131450232Y-99384633D01*
X131449542Y-99378072D01*
X131390527Y-99196444D01*
X131295040Y-99031056D01*
X131259011Y-98991041D01*
X131171675Y-98894045D01*
X131171674Y-98894044D01*
X131167253Y-98889134D01*
X131012752Y-98776882D01*
X131006724Y-98774198D01*
X131006722Y-98774197D01*
X130844319Y-98701891D01*
X130844318Y-98701891D01*
X130838288Y-98699206D01*
X130744888Y-98679353D01*
X130657944Y-98660872D01*
X130657939Y-98660872D01*
X130651487Y-98659500D01*
X130460513Y-98659500D01*
X130454061Y-98660872D01*
X130454056Y-98660872D01*
X130367112Y-98679353D01*
X130273712Y-98699206D01*
X130267682Y-98701891D01*
X130267681Y-98701891D01*
X130105278Y-98774197D01*
X130105276Y-98774198D01*
X130099248Y-98776882D01*
X129944747Y-98889134D01*
X129940326Y-98894044D01*
X129940325Y-98894045D01*
X129852990Y-98991041D01*
X129816960Y-99031056D01*
X129792154Y-99074022D01*
X129772731Y-99107663D01*
X129721349Y-99156656D01*
X129651635Y-99170092D01*
X129647483Y-99169455D01*
X129641947Y-99168873D01*
X129635487Y-99167500D01*
X129444513Y-99167500D01*
X129438061Y-99168872D01*
X129438056Y-99168872D01*
X129353041Y-99186943D01*
X129257712Y-99207206D01*
X129251682Y-99209891D01*
X129251681Y-99209891D01*
X129089278Y-99282197D01*
X129089276Y-99282198D01*
X129083248Y-99284882D01*
X128928747Y-99397134D01*
X128924326Y-99402044D01*
X128924325Y-99402045D01*
X128810501Y-99528460D01*
X128800960Y-99539056D01*
X128761418Y-99607544D01*
X128723798Y-99672705D01*
X128705473Y-99704444D01*
X128646458Y-99886072D01*
X128646318Y-99887401D01*
X128613518Y-99948156D01*
X128551368Y-99982477D01*
X128480529Y-99977748D01*
X128423492Y-99935472D01*
X128401724Y-99887808D01*
X128401542Y-99886072D01*
X128342527Y-99704444D01*
X128324203Y-99672705D01*
X128286582Y-99607544D01*
X128247040Y-99539056D01*
X128237500Y-99528460D01*
X128123675Y-99402045D01*
X128123674Y-99402044D01*
X128119253Y-99397134D01*
X127964752Y-99284882D01*
X127958724Y-99282198D01*
X127958722Y-99282197D01*
X127796319Y-99209891D01*
X127796318Y-99209891D01*
X127790288Y-99207206D01*
X127694959Y-99186943D01*
X127609944Y-99168872D01*
X127609939Y-99168872D01*
X127603487Y-99167500D01*
X127412513Y-99167500D01*
X127406061Y-99168872D01*
X127406056Y-99168872D01*
X127277697Y-99196156D01*
X127206906Y-99190754D01*
X127150274Y-99147937D01*
X127125780Y-99081299D01*
X127125500Y-99072909D01*
X127125500Y-98246500D01*
X127145502Y-98178379D01*
X127199158Y-98131886D01*
X127251500Y-98120500D01*
X128008400Y-98120500D01*
X128011646Y-98120163D01*
X128011650Y-98120163D01*
X128107308Y-98110238D01*
X128107312Y-98110237D01*
X128114166Y-98109526D01*
X128120702Y-98107345D01*
X128120704Y-98107345D01*
X128252806Y-98063272D01*
X128281946Y-98053550D01*
X128432348Y-97960478D01*
X128557305Y-97835303D01*
X128573189Y-97809535D01*
X128646275Y-97690968D01*
X128646276Y-97690966D01*
X128650115Y-97684738D01*
X128705797Y-97516861D01*
X128716500Y-97412400D01*
X128716500Y-96611600D01*
X128714151Y-96588959D01*
X128706238Y-96512692D01*
X128706237Y-96512688D01*
X128705526Y-96505834D01*
X128687807Y-96452722D01*
X128651868Y-96345002D01*
X128649550Y-96338054D01*
X128556478Y-96187652D01*
X128469891Y-96101216D01*
X128435812Y-96038934D01*
X128440815Y-95968114D01*
X128469736Y-95923025D01*
X128552134Y-95840483D01*
X128557305Y-95835303D01*
X128645530Y-95692176D01*
X128646275Y-95690968D01*
X128646276Y-95690966D01*
X128650115Y-95684738D01*
X128705797Y-95516861D01*
X128716500Y-95412400D01*
X128716500Y-95247500D01*
X128736502Y-95179379D01*
X128790158Y-95132886D01*
X128842500Y-95121500D01*
X129339800Y-95121500D01*
X129407921Y-95141502D01*
X129427147Y-95157843D01*
X129427420Y-95157540D01*
X129432332Y-95161963D01*
X129436747Y-95166866D01*
X129453970Y-95179379D01*
X129551171Y-95250000D01*
X129591248Y-95279118D01*
X129597276Y-95281802D01*
X129597278Y-95281803D01*
X129759681Y-95354109D01*
X129765712Y-95356794D01*
X129859113Y-95376647D01*
X129946056Y-95395128D01*
X129946061Y-95395128D01*
X129952513Y-95396500D01*
X130143487Y-95396500D01*
X130149939Y-95395128D01*
X130149944Y-95395128D01*
X130236887Y-95376647D01*
X130330288Y-95356794D01*
X130336319Y-95354109D01*
X130498722Y-95281803D01*
X130498724Y-95281802D01*
X130504752Y-95279118D01*
X130659253Y-95166866D01*
X130667650Y-95157540D01*
X130782621Y-95029852D01*
X130782622Y-95029851D01*
X130787040Y-95024944D01*
X130882527Y-94859556D01*
X130941542Y-94677928D01*
X130948850Y-94608402D01*
X130960814Y-94494565D01*
X130961504Y-94488000D01*
X130955431Y-94430219D01*
X130942232Y-94304635D01*
X130942232Y-94304633D01*
X130941542Y-94298072D01*
X130939502Y-94291794D01*
X130939502Y-94291792D01*
X130932563Y-94270438D01*
X130930534Y-94199471D01*
X130967195Y-94138672D01*
X131030907Y-94107346D01*
X131052395Y-94105500D01*
X135695552Y-94105500D01*
X135763673Y-94125502D01*
X135810166Y-94179158D01*
X135820270Y-94249432D01*
X135790776Y-94314012D01*
X135784647Y-94320595D01*
X135675023Y-94430219D01*
X135671866Y-94434727D01*
X135671864Y-94434730D01*
X135550669Y-94607815D01*
X135550668Y-94607817D01*
X135547512Y-94612324D01*
X135545189Y-94617306D01*
X135545186Y-94617311D01*
X135455883Y-94808822D01*
X135453560Y-94813804D01*
X135396022Y-95028537D01*
X135376647Y-95250000D01*
X135396022Y-95471463D01*
X135453560Y-95686196D01*
X135455882Y-95691177D01*
X135455883Y-95691178D01*
X135545186Y-95882689D01*
X135545189Y-95882694D01*
X135547512Y-95887676D01*
X135550668Y-95892183D01*
X135550669Y-95892185D01*
X135668409Y-96060335D01*
X135675023Y-96069781D01*
X135832219Y-96226977D01*
X135836727Y-96230134D01*
X135836730Y-96230136D01*
X135909906Y-96281374D01*
X136014323Y-96354488D01*
X136019305Y-96356811D01*
X136019310Y-96356814D01*
X136124373Y-96405805D01*
X136177658Y-96452722D01*
X136197119Y-96520999D01*
X136176577Y-96588959D01*
X136124373Y-96634195D01*
X136019311Y-96683186D01*
X136019306Y-96683189D01*
X136014324Y-96685512D01*
X136009817Y-96688668D01*
X136009815Y-96688669D01*
X135836730Y-96809864D01*
X135836727Y-96809866D01*
X135832219Y-96813023D01*
X135675023Y-96970219D01*
X135671866Y-96974727D01*
X135671864Y-96974730D01*
X135550669Y-97147815D01*
X135547512Y-97152324D01*
X135545189Y-97157306D01*
X135545186Y-97157311D01*
X135455883Y-97348822D01*
X135453560Y-97353804D01*
X135396022Y-97568537D01*
X135376647Y-97790000D01*
X135396022Y-98011463D01*
X135453560Y-98226196D01*
X135455882Y-98231177D01*
X135455883Y-98231178D01*
X135545186Y-98422689D01*
X135545189Y-98422694D01*
X135547512Y-98427676D01*
X135550668Y-98432183D01*
X135550669Y-98432185D01*
X135648569Y-98572000D01*
X135675023Y-98609781D01*
X135832219Y-98766977D01*
X135836727Y-98770134D01*
X135836730Y-98770136D01*
X135902285Y-98816038D01*
X136014323Y-98894488D01*
X136019305Y-98896811D01*
X136019310Y-98896814D01*
X136124373Y-98945805D01*
X136177658Y-98992722D01*
X136197119Y-99060999D01*
X136176577Y-99128959D01*
X136124373Y-99174195D01*
X136019311Y-99223186D01*
X136019306Y-99223189D01*
X136014324Y-99225512D01*
X136009817Y-99228668D01*
X136009815Y-99228669D01*
X135836730Y-99349864D01*
X135836727Y-99349866D01*
X135832219Y-99353023D01*
X135675023Y-99510219D01*
X135671866Y-99514727D01*
X135671864Y-99514730D01*
X135550669Y-99687815D01*
X135547512Y-99692324D01*
X135545189Y-99697306D01*
X135545186Y-99697311D01*
X135456124Y-99888306D01*
X135453560Y-99893804D01*
X135452138Y-99899112D01*
X135452137Y-99899114D01*
X135443560Y-99931123D01*
X135396022Y-100108537D01*
X135376647Y-100330000D01*
X135396022Y-100551463D01*
X135426193Y-100664063D01*
X135439963Y-100715450D01*
X135453560Y-100766196D01*
X135455882Y-100771177D01*
X135455883Y-100771178D01*
X135545186Y-100962689D01*
X135545189Y-100962694D01*
X135547512Y-100967676D01*
X135550668Y-100972183D01*
X135550669Y-100972185D01*
X135671700Y-101145035D01*
X135675023Y-101149781D01*
X135832219Y-101306977D01*
X135836727Y-101310134D01*
X135836730Y-101310136D01*
X135851907Y-101320763D01*
X136014323Y-101434488D01*
X136019305Y-101436811D01*
X136019310Y-101436814D01*
X136210822Y-101526117D01*
X136215804Y-101528440D01*
X136221112Y-101529862D01*
X136221114Y-101529863D01*
X136286949Y-101547503D01*
X136430537Y-101585978D01*
X136652000Y-101605353D01*
X136873463Y-101585978D01*
X137017051Y-101547503D01*
X137082886Y-101529863D01*
X137082888Y-101529862D01*
X137088196Y-101528440D01*
X137093178Y-101526117D01*
X137284690Y-101436814D01*
X137284695Y-101436811D01*
X137289677Y-101434488D01*
X137452093Y-101320763D01*
X137467270Y-101310136D01*
X137467273Y-101310134D01*
X137471781Y-101306977D01*
X137628977Y-101149781D01*
X137632301Y-101145035D01*
X137753331Y-100972185D01*
X137753332Y-100972183D01*
X137756488Y-100967676D01*
X137758811Y-100962694D01*
X137758814Y-100962689D01*
X137848117Y-100771178D01*
X137848118Y-100771177D01*
X137850440Y-100766196D01*
X137864038Y-100715450D01*
X137877807Y-100664063D01*
X137907978Y-100551463D01*
X137927353Y-100330000D01*
X137907978Y-100108537D01*
X137906553Y-100103219D01*
X137906552Y-100103213D01*
X137903845Y-100093108D01*
X137905536Y-100022132D01*
X137945331Y-99963337D01*
X138010596Y-99935391D01*
X138025552Y-99934500D01*
X138590134Y-99934500D01*
X138652316Y-99927745D01*
X138788705Y-99876615D01*
X138905261Y-99789261D01*
X138992615Y-99672705D01*
X139043745Y-99536316D01*
X139050500Y-99474134D01*
X139050500Y-98965594D01*
X139070502Y-98897473D01*
X139087405Y-98876499D01*
X139118905Y-98844999D01*
X139181217Y-98810973D01*
X139252032Y-98816038D01*
X139308868Y-98858585D01*
X139333679Y-98925105D01*
X139334000Y-98934094D01*
X139334001Y-99470669D01*
X139334371Y-99477490D01*
X139339895Y-99528352D01*
X139343521Y-99543604D01*
X139388676Y-99664054D01*
X139397214Y-99679649D01*
X139473715Y-99781724D01*
X139486276Y-99794285D01*
X139588351Y-99870786D01*
X139603946Y-99879324D01*
X139724394Y-99924478D01*
X139739649Y-99928105D01*
X139790514Y-99933631D01*
X139797328Y-99934000D01*
X139869885Y-99934000D01*
X139885124Y-99929525D01*
X139886329Y-99928135D01*
X139888000Y-99920452D01*
X139888000Y-98698000D01*
X139908002Y-98629879D01*
X139961658Y-98583386D01*
X140014000Y-98572000D01*
X140270000Y-98572000D01*
X140338121Y-98592002D01*
X140384614Y-98645658D01*
X140396000Y-98698000D01*
X140396000Y-99915884D01*
X140400475Y-99931123D01*
X140416669Y-99945155D01*
X140449739Y-99963213D01*
X140483764Y-100025526D01*
X140482350Y-100084918D01*
X140477446Y-100103221D01*
X140477445Y-100103226D01*
X140476022Y-100108537D01*
X140456647Y-100330000D01*
X140476022Y-100551463D01*
X140506193Y-100664063D01*
X140519963Y-100715450D01*
X140533560Y-100766196D01*
X140535882Y-100771177D01*
X140535883Y-100771178D01*
X140625186Y-100962689D01*
X140625189Y-100962694D01*
X140627512Y-100967676D01*
X140630668Y-100972183D01*
X140630669Y-100972185D01*
X140751700Y-101145035D01*
X140755023Y-101149781D01*
X140912219Y-101306977D01*
X140916727Y-101310134D01*
X140916730Y-101310136D01*
X140931907Y-101320763D01*
X141094323Y-101434488D01*
X141099305Y-101436811D01*
X141099310Y-101436814D01*
X141290822Y-101526117D01*
X141295804Y-101528440D01*
X141301112Y-101529862D01*
X141301114Y-101529863D01*
X141366949Y-101547503D01*
X141510537Y-101585978D01*
X141732000Y-101605353D01*
X141953463Y-101585978D01*
X142097051Y-101547503D01*
X142162886Y-101529863D01*
X142162888Y-101529862D01*
X142168196Y-101528440D01*
X142173178Y-101526117D01*
X142364690Y-101436814D01*
X142364695Y-101436811D01*
X142369677Y-101434488D01*
X142532093Y-101320763D01*
X142547270Y-101310136D01*
X142547273Y-101310134D01*
X142551781Y-101306977D01*
X142708977Y-101149781D01*
X142712301Y-101145035D01*
X142833331Y-100972185D01*
X142833332Y-100972183D01*
X142836488Y-100967676D01*
X142838811Y-100962694D01*
X142838814Y-100962689D01*
X142928117Y-100771178D01*
X142928118Y-100771177D01*
X142930440Y-100766196D01*
X142944038Y-100715450D01*
X142957807Y-100664063D01*
X142987978Y-100551463D01*
X143007353Y-100330000D01*
X142987978Y-100108537D01*
X142940440Y-99931123D01*
X142931863Y-99899114D01*
X142931862Y-99899112D01*
X142930440Y-99893804D01*
X142927876Y-99888306D01*
X142838814Y-99697311D01*
X142838811Y-99697306D01*
X142836488Y-99692324D01*
X142833331Y-99687815D01*
X142712136Y-99514730D01*
X142712134Y-99514727D01*
X142708977Y-99510219D01*
X142551781Y-99353023D01*
X142547273Y-99349866D01*
X142547270Y-99349864D01*
X142471505Y-99296813D01*
X142369677Y-99225512D01*
X142364695Y-99223189D01*
X142364690Y-99223186D01*
X142259627Y-99174195D01*
X142206342Y-99127278D01*
X142186881Y-99059001D01*
X142207423Y-98991041D01*
X142259627Y-98945805D01*
X142364690Y-98896814D01*
X142364695Y-98896811D01*
X142369677Y-98894488D01*
X142481715Y-98816038D01*
X142547270Y-98770136D01*
X142547273Y-98770134D01*
X142551781Y-98766977D01*
X142708977Y-98609781D01*
X142735432Y-98572000D01*
X142833331Y-98432185D01*
X142833332Y-98432183D01*
X142836488Y-98427676D01*
X142838811Y-98422694D01*
X142838814Y-98422689D01*
X142928117Y-98231178D01*
X142928118Y-98231177D01*
X142930440Y-98226196D01*
X142987978Y-98011463D01*
X143007353Y-97790000D01*
X142987978Y-97568537D01*
X142930440Y-97353804D01*
X142928117Y-97348822D01*
X142838814Y-97157311D01*
X142838811Y-97157306D01*
X142836488Y-97152324D01*
X142833331Y-97147815D01*
X142712136Y-96974730D01*
X142712134Y-96974727D01*
X142708977Y-96970219D01*
X142551781Y-96813023D01*
X142547273Y-96809866D01*
X142547270Y-96809864D01*
X142447329Y-96739885D01*
X142369677Y-96685512D01*
X142364695Y-96683189D01*
X142364690Y-96683186D01*
X142259627Y-96634195D01*
X142206342Y-96587278D01*
X142186881Y-96519001D01*
X142207423Y-96451041D01*
X142259627Y-96405805D01*
X142364690Y-96356814D01*
X142364695Y-96356811D01*
X142369677Y-96354488D01*
X142474094Y-96281374D01*
X142547270Y-96230136D01*
X142547273Y-96230134D01*
X142551781Y-96226977D01*
X142708977Y-96069781D01*
X142715592Y-96060335D01*
X142833331Y-95892185D01*
X142833332Y-95892183D01*
X142836488Y-95887676D01*
X142838811Y-95882694D01*
X142838814Y-95882689D01*
X142928117Y-95691178D01*
X142928118Y-95691177D01*
X142930440Y-95686196D01*
X142987978Y-95471463D01*
X143007353Y-95250000D01*
X142987978Y-95028537D01*
X142930440Y-94813804D01*
X142928117Y-94808822D01*
X142838814Y-94617311D01*
X142838811Y-94617306D01*
X142836488Y-94612324D01*
X142833332Y-94607817D01*
X142833331Y-94607815D01*
X142712136Y-94434730D01*
X142712134Y-94434727D01*
X142708977Y-94430219D01*
X142551781Y-94273023D01*
X142547273Y-94269866D01*
X142547270Y-94269864D01*
X142471505Y-94216813D01*
X142369677Y-94145512D01*
X142364695Y-94143189D01*
X142364690Y-94143186D01*
X142173178Y-94053883D01*
X142173177Y-94053882D01*
X142168196Y-94051560D01*
X142162888Y-94050138D01*
X142162886Y-94050137D01*
X142097051Y-94032497D01*
X141953463Y-93994022D01*
X141732000Y-93974647D01*
X141510537Y-93994022D01*
X141366949Y-94032497D01*
X141301114Y-94050137D01*
X141301112Y-94050138D01*
X141295804Y-94051560D01*
X141290823Y-94053882D01*
X141290822Y-94053883D01*
X141099311Y-94143186D01*
X141099306Y-94143189D01*
X141094324Y-94145512D01*
X141089817Y-94148668D01*
X141089815Y-94148669D01*
X140916730Y-94269864D01*
X140916727Y-94269866D01*
X140912219Y-94273023D01*
X140755023Y-94430219D01*
X140751866Y-94434727D01*
X140751864Y-94434730D01*
X140630669Y-94607816D01*
X140627512Y-94612324D01*
X140627126Y-94612054D01*
X140578179Y-94658722D01*
X140508465Y-94672157D01*
X140442555Y-94645769D01*
X140401374Y-94587936D01*
X140395118Y-94559731D01*
X140390238Y-94512692D01*
X140390237Y-94512688D01*
X140389526Y-94505834D01*
X140385767Y-94494565D01*
X140335868Y-94345002D01*
X140333550Y-94338054D01*
X140240478Y-94187652D01*
X140115303Y-94062695D01*
X140109072Y-94058854D01*
X139970968Y-93973725D01*
X139970966Y-93973724D01*
X139964738Y-93969885D01*
X139804254Y-93916655D01*
X139803389Y-93916368D01*
X139803387Y-93916368D01*
X139796861Y-93914203D01*
X139790025Y-93913503D01*
X139790022Y-93913502D01*
X139746969Y-93909091D01*
X139692400Y-93903500D01*
X139555595Y-93903500D01*
X139487474Y-93883498D01*
X139466499Y-93866595D01*
X139078470Y-93478565D01*
X138679647Y-93079742D01*
X138672113Y-93071463D01*
X138668000Y-93064982D01*
X138618348Y-93018356D01*
X138615507Y-93015602D01*
X138595770Y-92995865D01*
X138592573Y-92993385D01*
X138583551Y-92985680D01*
X138557100Y-92960841D01*
X138551321Y-92955414D01*
X138544375Y-92951595D01*
X138544372Y-92951593D01*
X138533566Y-92945652D01*
X138517047Y-92934801D01*
X138511048Y-92930148D01*
X138501041Y-92922386D01*
X138493772Y-92919241D01*
X138493768Y-92919238D01*
X138460463Y-92904826D01*
X138449813Y-92899609D01*
X138411060Y-92878305D01*
X138391437Y-92873267D01*
X138372734Y-92866863D01*
X138361420Y-92861967D01*
X138361419Y-92861967D01*
X138354145Y-92858819D01*
X138346322Y-92857580D01*
X138346312Y-92857577D01*
X138310476Y-92851901D01*
X138298856Y-92849495D01*
X138263711Y-92840472D01*
X138263710Y-92840472D01*
X138256030Y-92838500D01*
X138235776Y-92838500D01*
X138216065Y-92836949D01*
X138214203Y-92836654D01*
X138196057Y-92833780D01*
X138165654Y-92836654D01*
X138152039Y-92837941D01*
X138140181Y-92838500D01*
X125308893Y-92838500D01*
X125240772Y-92818498D01*
X125194279Y-92764842D01*
X125184175Y-92694568D01*
X125189063Y-92673555D01*
X125190688Y-92668555D01*
X125230766Y-92609952D01*
X125296164Y-92582320D01*
X125310518Y-92581500D01*
X141531800Y-92581500D01*
X141599921Y-92601502D01*
X141619147Y-92617843D01*
X141619420Y-92617540D01*
X141624332Y-92621963D01*
X141628747Y-92626866D01*
X141783248Y-92739118D01*
X141789276Y-92741802D01*
X141789278Y-92741803D01*
X141951681Y-92814109D01*
X141957712Y-92816794D01*
X142041134Y-92834526D01*
X142138056Y-92855128D01*
X142138061Y-92855128D01*
X142144513Y-92856500D01*
X142335487Y-92856500D01*
X142341939Y-92855128D01*
X142341944Y-92855128D01*
X142438866Y-92834526D01*
X142522288Y-92816794D01*
X142528319Y-92814109D01*
X142690722Y-92741803D01*
X142690724Y-92741802D01*
X142696752Y-92739118D01*
X142851253Y-92626866D01*
X142866351Y-92610098D01*
X142974621Y-92489852D01*
X142974622Y-92489851D01*
X142979040Y-92484944D01*
X143074527Y-92319556D01*
X143133542Y-92137928D01*
X143153504Y-91948000D01*
X143136062Y-91782045D01*
X143134232Y-91764635D01*
X143134232Y-91764633D01*
X143133542Y-91758072D01*
X143074527Y-91576444D01*
X143058416Y-91548538D01*
X143037314Y-91511990D01*
X142979040Y-91411056D01*
X142962882Y-91393110D01*
X142855675Y-91274045D01*
X142855674Y-91274044D01*
X142851253Y-91269134D01*
X142696752Y-91156882D01*
X142690724Y-91154198D01*
X142690722Y-91154197D01*
X142528319Y-91081891D01*
X142528318Y-91081891D01*
X142522288Y-91079206D01*
X142417794Y-91056995D01*
X142341944Y-91040872D01*
X142341939Y-91040872D01*
X142335487Y-91039500D01*
X142144513Y-91039500D01*
X142138061Y-91040872D01*
X142138056Y-91040872D01*
X142062206Y-91056995D01*
X141957712Y-91079206D01*
X141951682Y-91081891D01*
X141951681Y-91081891D01*
X141789278Y-91154197D01*
X141789276Y-91154198D01*
X141783248Y-91156882D01*
X141628747Y-91269134D01*
X141624332Y-91274037D01*
X141619420Y-91278460D01*
X141618295Y-91277211D01*
X141564986Y-91310051D01*
X141531800Y-91314500D01*
X125046763Y-91314500D01*
X125035579Y-91313973D01*
X125028091Y-91312299D01*
X125020168Y-91312548D01*
X124960033Y-91314438D01*
X124956075Y-91314500D01*
X124928144Y-91314500D01*
X124924229Y-91314995D01*
X124924225Y-91314995D01*
X124924167Y-91315003D01*
X124924138Y-91315006D01*
X124912296Y-91315939D01*
X124868110Y-91317327D01*
X124850744Y-91322372D01*
X124848658Y-91322978D01*
X124829306Y-91326986D01*
X124817068Y-91328532D01*
X124817066Y-91328533D01*
X124809203Y-91329526D01*
X124768086Y-91345806D01*
X124756885Y-91349641D01*
X124714406Y-91361982D01*
X124707587Y-91366015D01*
X124707582Y-91366017D01*
X124696971Y-91372293D01*
X124679221Y-91380990D01*
X124660383Y-91388448D01*
X124653967Y-91393109D01*
X124653966Y-91393110D01*
X124624625Y-91414428D01*
X124614701Y-91420947D01*
X124583460Y-91439422D01*
X124583455Y-91439426D01*
X124576637Y-91443458D01*
X124562313Y-91457782D01*
X124547281Y-91470621D01*
X124530893Y-91482528D01*
X124525840Y-91488636D01*
X124513508Y-91503543D01*
X124454674Y-91543281D01*
X124404343Y-91548426D01*
X124399985Y-91547500D01*
X124209011Y-91547500D01*
X124202559Y-91548872D01*
X124202554Y-91548872D01*
X124115611Y-91567353D01*
X124022210Y-91587206D01*
X124016180Y-91589891D01*
X124016179Y-91589891D01*
X123853776Y-91662197D01*
X123853774Y-91662198D01*
X123847746Y-91664882D01*
X123693245Y-91777134D01*
X123565458Y-91919056D01*
X123469971Y-92084444D01*
X123410956Y-92266072D01*
X123390994Y-92456000D01*
X123391684Y-92462565D01*
X123409361Y-92630749D01*
X123410956Y-92645928D01*
X123412995Y-92652203D01*
X123412996Y-92652208D01*
X123419935Y-92673562D01*
X123421964Y-92744529D01*
X123385303Y-92805328D01*
X123321591Y-92836654D01*
X123300103Y-92838500D01*
X122628200Y-92838500D01*
X122560079Y-92818498D01*
X122540853Y-92802157D01*
X122540580Y-92802460D01*
X122535668Y-92798037D01*
X122531253Y-92793134D01*
X122376752Y-92680882D01*
X122370724Y-92678198D01*
X122370722Y-92678197D01*
X122208319Y-92605891D01*
X122208318Y-92605891D01*
X122202288Y-92603206D01*
X122100170Y-92581500D01*
X122021944Y-92564872D01*
X122021939Y-92564872D01*
X122015487Y-92563500D01*
X121824513Y-92563500D01*
X121818061Y-92564872D01*
X121818056Y-92564872D01*
X121739830Y-92581500D01*
X121637712Y-92603206D01*
X121631682Y-92605891D01*
X121631681Y-92605891D01*
X121469278Y-92678197D01*
X121469276Y-92678198D01*
X121463248Y-92680882D01*
X121308747Y-92793134D01*
X121304326Y-92798044D01*
X121304325Y-92798045D01*
X121195203Y-92919238D01*
X121180960Y-92935056D01*
X121085473Y-93100444D01*
X121026458Y-93282072D01*
X121006496Y-93472000D01*
X121026458Y-93661928D01*
X121051359Y-93738565D01*
X121053387Y-93809531D01*
X121016725Y-93870329D01*
X120953012Y-93901654D01*
X120931526Y-93903500D01*
X120911600Y-93903500D01*
X120908354Y-93903837D01*
X120908350Y-93903837D01*
X120812692Y-93913762D01*
X120812688Y-93913763D01*
X120805834Y-93914474D01*
X120799298Y-93916655D01*
X120799296Y-93916655D01*
X120710881Y-93946153D01*
X120638054Y-93970450D01*
X120487652Y-94063522D01*
X120362695Y-94188697D01*
X120358855Y-94194927D01*
X120358854Y-94194928D01*
X120281392Y-94320595D01*
X120269885Y-94339262D01*
X120267581Y-94346209D01*
X120218374Y-94494565D01*
X120214203Y-94507139D01*
X120203500Y-94611600D01*
X120203500Y-95412400D01*
X120203837Y-95415646D01*
X120203837Y-95415650D01*
X120209060Y-95465984D01*
X120214474Y-95518166D01*
X120216655Y-95524702D01*
X120216655Y-95524704D01*
X120259345Y-95652660D01*
X120270450Y-95685946D01*
X120363522Y-95836348D01*
X120368704Y-95841521D01*
X120450463Y-95923138D01*
X120484542Y-95985421D01*
X120479539Y-96056241D01*
X120450618Y-96101329D01*
X120368261Y-96183829D01*
X120359249Y-96195240D01*
X120274184Y-96333243D01*
X120268037Y-96346424D01*
X120216862Y-96500710D01*
X120213995Y-96514086D01*
X120204328Y-96608438D01*
X120204000Y-96614855D01*
X120204000Y-96739885D01*
X120208475Y-96755124D01*
X120209865Y-96756329D01*
X120217548Y-96758000D01*
X122601884Y-96758000D01*
X122617123Y-96753525D01*
X122618328Y-96752135D01*
X122619999Y-96744452D01*
X122619999Y-96614905D01*
X122619662Y-96608386D01*
X122609743Y-96512794D01*
X122606851Y-96499400D01*
X122555412Y-96345216D01*
X122549239Y-96332038D01*
X122463937Y-96194193D01*
X122454901Y-96182792D01*
X122373538Y-96101570D01*
X122339459Y-96039287D01*
X122344462Y-95968467D01*
X122373383Y-95923380D01*
X122456130Y-95840488D01*
X122456134Y-95840483D01*
X122461305Y-95835303D01*
X122549530Y-95692176D01*
X122550275Y-95690968D01*
X122550276Y-95690966D01*
X122554115Y-95684738D01*
X122609797Y-95516861D01*
X122620500Y-95412400D01*
X122620500Y-94611600D01*
X122620108Y-94607819D01*
X122610238Y-94512692D01*
X122610237Y-94512688D01*
X122609526Y-94505834D01*
X122605767Y-94494565D01*
X122559976Y-94357315D01*
X122553500Y-94317439D01*
X122553500Y-94231500D01*
X122573502Y-94163379D01*
X122627158Y-94116886D01*
X122679500Y-94105500D01*
X124252296Y-94105500D01*
X124320417Y-94125502D01*
X124366910Y-94179158D01*
X124377014Y-94249432D01*
X124359556Y-94297616D01*
X124345392Y-94320595D01*
X124333885Y-94339262D01*
X124331581Y-94346209D01*
X124282374Y-94494565D01*
X124278203Y-94507139D01*
X124267500Y-94611600D01*
X124267500Y-95412400D01*
X124267837Y-95415646D01*
X124267837Y-95415650D01*
X124273060Y-95465984D01*
X124278474Y-95518166D01*
X124280655Y-95524702D01*
X124280655Y-95524704D01*
X124323345Y-95652660D01*
X124334450Y-95685946D01*
X124427522Y-95836348D01*
X124483457Y-95892185D01*
X124514109Y-95922784D01*
X124548188Y-95985066D01*
X124543185Y-96055886D01*
X124514264Y-96100975D01*
X124494773Y-96120500D01*
X124426695Y-96188697D01*
X124422855Y-96194927D01*
X124422854Y-96194928D01*
X124401152Y-96230136D01*
X124333885Y-96339262D01*
X124278203Y-96507139D01*
X124277503Y-96513975D01*
X124277502Y-96513978D01*
X124274016Y-96548000D01*
X124267500Y-96611600D01*
X124267500Y-97412400D01*
X124267837Y-97415646D01*
X124267837Y-97415650D01*
X124277752Y-97511206D01*
X124278474Y-97518166D01*
X124280655Y-97524702D01*
X124280655Y-97524704D01*
X124295279Y-97568537D01*
X124334450Y-97685946D01*
X124427522Y-97836348D01*
X124552697Y-97961305D01*
X124558927Y-97965145D01*
X124558928Y-97965146D01*
X124696288Y-98049816D01*
X124703262Y-98054115D01*
X124783005Y-98080564D01*
X124864611Y-98107632D01*
X124864613Y-98107632D01*
X124871139Y-98109797D01*
X124877975Y-98110497D01*
X124877978Y-98110498D01*
X124921031Y-98114909D01*
X124975600Y-98120500D01*
X125732500Y-98120500D01*
X125800621Y-98140502D01*
X125847114Y-98194158D01*
X125858500Y-98246500D01*
X125858500Y-100331500D01*
X125838498Y-100399621D01*
X125784842Y-100446114D01*
X125732500Y-100457500D01*
X125193866Y-100457500D01*
X125131684Y-100464255D01*
X124995295Y-100515385D01*
X124878739Y-100602739D01*
X124791385Y-100719295D01*
X124788233Y-100727703D01*
X124788232Y-100727705D01*
X124747854Y-100835413D01*
X124705213Y-100892178D01*
X124638651Y-100916878D01*
X124569302Y-100901671D01*
X124522727Y-100857487D01*
X124495932Y-100814187D01*
X124486901Y-100802792D01*
X124372171Y-100688261D01*
X124360760Y-100679249D01*
X124222757Y-100594184D01*
X124209576Y-100588037D01*
X124055290Y-100536862D01*
X124041914Y-100533995D01*
X123947562Y-100524328D01*
X123941145Y-100524000D01*
X123716115Y-100524000D01*
X123700876Y-100528475D01*
X123699671Y-100529865D01*
X123698000Y-100537548D01*
X123698000Y-101760000D01*
X123677998Y-101828121D01*
X123624342Y-101874614D01*
X123572000Y-101886000D01*
X123316000Y-101886000D01*
X123247879Y-101865998D01*
X123201386Y-101812342D01*
X123190000Y-101760000D01*
X123190000Y-100542116D01*
X123185525Y-100526877D01*
X123184135Y-100525672D01*
X123176452Y-100524001D01*
X122946905Y-100524001D01*
X122940386Y-100524338D01*
X122844794Y-100534257D01*
X122831400Y-100537149D01*
X122677216Y-100588588D01*
X122664038Y-100594761D01*
X122526189Y-100680066D01*
X122515149Y-100688815D01*
X122449338Y-100715450D01*
X122379575Y-100702277D01*
X122347871Y-100679240D01*
X122340488Y-100671870D01*
X122340483Y-100671866D01*
X122335303Y-100666695D01*
X122265293Y-100623540D01*
X122190968Y-100577725D01*
X122190966Y-100577724D01*
X122184738Y-100573885D01*
X122073982Y-100537149D01*
X122023389Y-100520368D01*
X122023387Y-100520368D01*
X122016861Y-100518203D01*
X122010025Y-100517503D01*
X122010022Y-100517502D01*
X121966969Y-100513091D01*
X121912400Y-100507500D01*
X120911600Y-100507500D01*
X120908354Y-100507837D01*
X120908350Y-100507837D01*
X120812692Y-100517762D01*
X120812688Y-100517763D01*
X120805834Y-100518474D01*
X120799298Y-100520655D01*
X120799296Y-100520655D01*
X120706954Y-100551463D01*
X120638054Y-100574450D01*
X120487652Y-100667522D01*
X120482479Y-100672704D01*
X120476742Y-100677251D01*
X120475402Y-100675560D01*
X120422431Y-100704543D01*
X120351611Y-100699538D01*
X120314672Y-100675843D01*
X120313917Y-100676799D01*
X120296760Y-100663249D01*
X120158757Y-100578184D01*
X120145576Y-100572037D01*
X119991290Y-100520862D01*
X119977914Y-100517995D01*
X119883562Y-100508328D01*
X119877145Y-100508000D01*
X119652115Y-100508000D01*
X119636876Y-100512475D01*
X119635671Y-100513865D01*
X119634000Y-100521548D01*
X119634000Y-101744000D01*
X119613998Y-101812121D01*
X119560342Y-101858614D01*
X119508000Y-101870000D01*
X119252000Y-101870000D01*
X119183879Y-101849998D01*
X119137386Y-101796342D01*
X119126000Y-101744000D01*
X119126000Y-100526116D01*
X119121525Y-100510877D01*
X119120135Y-100509672D01*
X119112452Y-100508001D01*
X118882905Y-100508001D01*
X118876386Y-100508338D01*
X118780794Y-100518257D01*
X118767400Y-100521149D01*
X118613216Y-100572588D01*
X118600038Y-100578761D01*
X118462193Y-100664063D01*
X118445055Y-100677646D01*
X118443616Y-100675831D01*
X118391130Y-100704544D01*
X118320310Y-100699535D01*
X118282906Y-100675541D01*
X118282226Y-100676402D01*
X118276485Y-100671868D01*
X118271303Y-100666695D01*
X118143697Y-100588037D01*
X118126968Y-100577725D01*
X118126966Y-100577724D01*
X118120738Y-100573885D01*
X118009982Y-100537149D01*
X117959389Y-100520368D01*
X117959387Y-100520368D01*
X117952861Y-100518203D01*
X117946025Y-100517503D01*
X117946022Y-100517502D01*
X117902969Y-100513091D01*
X117848400Y-100507500D01*
X116847600Y-100507500D01*
X116844354Y-100507837D01*
X116844350Y-100507837D01*
X116748692Y-100517762D01*
X116748688Y-100517763D01*
X116741834Y-100518474D01*
X116735298Y-100520655D01*
X116735296Y-100520655D01*
X116642954Y-100551463D01*
X116574054Y-100574450D01*
X116530282Y-100601537D01*
X116524303Y-100605237D01*
X116455851Y-100624075D01*
X116388082Y-100602914D01*
X116342510Y-100548473D01*
X116332000Y-100498093D01*
X116332000Y-97409095D01*
X120204001Y-97409095D01*
X120204338Y-97415614D01*
X120214257Y-97511206D01*
X120217149Y-97524600D01*
X120268588Y-97678784D01*
X120274761Y-97691962D01*
X120360063Y-97829807D01*
X120369099Y-97841208D01*
X120483829Y-97955739D01*
X120495240Y-97964751D01*
X120633243Y-98049816D01*
X120646424Y-98055963D01*
X120800710Y-98107138D01*
X120814086Y-98110005D01*
X120908438Y-98119672D01*
X120914854Y-98120000D01*
X121139885Y-98120000D01*
X121155124Y-98115525D01*
X121156329Y-98114135D01*
X121158000Y-98106452D01*
X121158000Y-98101884D01*
X121666000Y-98101884D01*
X121670475Y-98117123D01*
X121671865Y-98118328D01*
X121679548Y-98119999D01*
X121909095Y-98119999D01*
X121915614Y-98119662D01*
X122011206Y-98109743D01*
X122024600Y-98106851D01*
X122178784Y-98055412D01*
X122191962Y-98049239D01*
X122329807Y-97963937D01*
X122341208Y-97954901D01*
X122455739Y-97840171D01*
X122464751Y-97828760D01*
X122549816Y-97690757D01*
X122555963Y-97677576D01*
X122607138Y-97523290D01*
X122610005Y-97509914D01*
X122619672Y-97415562D01*
X122620000Y-97409146D01*
X122620000Y-97284115D01*
X122615525Y-97268876D01*
X122614135Y-97267671D01*
X122606452Y-97266000D01*
X121684115Y-97266000D01*
X121668876Y-97270475D01*
X121667671Y-97271865D01*
X121666000Y-97279548D01*
X121666000Y-98101884D01*
X121158000Y-98101884D01*
X121158000Y-97284115D01*
X121153525Y-97268876D01*
X121152135Y-97267671D01*
X121144452Y-97266000D01*
X120222116Y-97266000D01*
X120206877Y-97270475D01*
X120205672Y-97271865D01*
X120204001Y-97279548D01*
X120204001Y-97409095D01*
X116332000Y-97409095D01*
X116332000Y-87643966D01*
X117540257Y-87643966D01*
X117570565Y-87778446D01*
X117573645Y-87788275D01*
X117653770Y-87985603D01*
X117658413Y-87994794D01*
X117769694Y-88176388D01*
X117775777Y-88184699D01*
X117915213Y-88345667D01*
X117922580Y-88352883D01*
X118086434Y-88488916D01*
X118094881Y-88494831D01*
X118176458Y-88542501D01*
X118225182Y-88594140D01*
X118238253Y-88663923D01*
X118211522Y-88729695D01*
X118206542Y-88735579D01*
X118130012Y-88820574D01*
X118034525Y-88985962D01*
X117975510Y-89167590D01*
X117955548Y-89357518D01*
X117975510Y-89547446D01*
X118034525Y-89729074D01*
X118130012Y-89894462D01*
X118134430Y-89899369D01*
X118134431Y-89899370D01*
X118246125Y-90023419D01*
X118257799Y-90036384D01*
X118412300Y-90148636D01*
X118418328Y-90151320D01*
X118418330Y-90151321D01*
X118538761Y-90204940D01*
X118586764Y-90226312D01*
X118666526Y-90243266D01*
X118767108Y-90264646D01*
X118767113Y-90264646D01*
X118773565Y-90266018D01*
X118964539Y-90266018D01*
X118970991Y-90264646D01*
X118970996Y-90264646D01*
X119071578Y-90243266D01*
X119151340Y-90226312D01*
X119157367Y-90223629D01*
X119157375Y-90223626D01*
X119225187Y-90193434D01*
X119295554Y-90184000D01*
X119359851Y-90214107D01*
X119397664Y-90274196D01*
X119401745Y-90321711D01*
X119390994Y-90424000D01*
X119410956Y-90613928D01*
X119469971Y-90795556D01*
X119565458Y-90960944D01*
X119569876Y-90965851D01*
X119569877Y-90965852D01*
X119651950Y-91057003D01*
X119693245Y-91102866D01*
X119847746Y-91215118D01*
X119853774Y-91217802D01*
X119853776Y-91217803D01*
X119990015Y-91278460D01*
X120022210Y-91292794D01*
X120113973Y-91312299D01*
X120202554Y-91331128D01*
X120202559Y-91331128D01*
X120209011Y-91332500D01*
X120399985Y-91332500D01*
X120406437Y-91331128D01*
X120406442Y-91331128D01*
X120495023Y-91312299D01*
X120586786Y-91292794D01*
X120618981Y-91278460D01*
X120755220Y-91217803D01*
X120755222Y-91217802D01*
X120761250Y-91215118D01*
X120915751Y-91102866D01*
X120920166Y-91097963D01*
X120925078Y-91093540D01*
X120926203Y-91094789D01*
X120979512Y-91061949D01*
X121012698Y-91057500D01*
X125905233Y-91057500D01*
X125916416Y-91058027D01*
X125923909Y-91059702D01*
X125931835Y-91059453D01*
X125931836Y-91059453D01*
X125991986Y-91057562D01*
X125995945Y-91057500D01*
X126023856Y-91057500D01*
X126027791Y-91057003D01*
X126027856Y-91056995D01*
X126039693Y-91056062D01*
X126071951Y-91055048D01*
X126075970Y-91054922D01*
X126083889Y-91054673D01*
X126103343Y-91049021D01*
X126122700Y-91045013D01*
X126134930Y-91043468D01*
X126134931Y-91043468D01*
X126142797Y-91042474D01*
X126150168Y-91039555D01*
X126150170Y-91039555D01*
X126183912Y-91026196D01*
X126195142Y-91022351D01*
X126229983Y-91012229D01*
X126229984Y-91012229D01*
X126237593Y-91010018D01*
X126244412Y-91005985D01*
X126244417Y-91005983D01*
X126255028Y-90999707D01*
X126272776Y-90991012D01*
X126291617Y-90983552D01*
X126327387Y-90957564D01*
X126337307Y-90951048D01*
X126368535Y-90932580D01*
X126368538Y-90932578D01*
X126375362Y-90928542D01*
X126389683Y-90914221D01*
X126404717Y-90901380D01*
X126414694Y-90894131D01*
X126421107Y-90889472D01*
X126449298Y-90855395D01*
X126457288Y-90846616D01*
X128576549Y-88727355D01*
X128638861Y-88693329D01*
X128690762Y-88692979D01*
X128870597Y-88729567D01*
X128875772Y-88729757D01*
X128875774Y-88729757D01*
X129088673Y-88737564D01*
X129088677Y-88737564D01*
X129093837Y-88737753D01*
X129098957Y-88737097D01*
X129098959Y-88737097D01*
X129310288Y-88710025D01*
X129310289Y-88710025D01*
X129315416Y-88709368D01*
X129320366Y-88707883D01*
X129524429Y-88646661D01*
X129524434Y-88646659D01*
X129529384Y-88645174D01*
X129729994Y-88546896D01*
X129911860Y-88417173D01*
X130020091Y-88309319D01*
X130082462Y-88275404D01*
X130153268Y-88280592D01*
X130210030Y-88323238D01*
X130227012Y-88354341D01*
X130271385Y-88472705D01*
X130358739Y-88589261D01*
X130475295Y-88676615D01*
X130611684Y-88727745D01*
X130673866Y-88734500D01*
X132470134Y-88734500D01*
X132532316Y-88727745D01*
X132668705Y-88676615D01*
X132785261Y-88589261D01*
X132872615Y-88472705D01*
X132923745Y-88336316D01*
X132930500Y-88274134D01*
X132930500Y-86477866D01*
X132923745Y-86415684D01*
X132872615Y-86279295D01*
X132785261Y-86162739D01*
X132668705Y-86075385D01*
X132532316Y-86024255D01*
X132470134Y-86017500D01*
X130673866Y-86017500D01*
X130611684Y-86024255D01*
X130475295Y-86075385D01*
X130358739Y-86162739D01*
X130271385Y-86279295D01*
X130268233Y-86287703D01*
X130226919Y-86397907D01*
X130184277Y-86454671D01*
X130117716Y-86479371D01*
X130048367Y-86464163D01*
X130015743Y-86438476D01*
X129965151Y-86382875D01*
X129965142Y-86382866D01*
X129961670Y-86379051D01*
X129957619Y-86375852D01*
X129957615Y-86375848D01*
X129790414Y-86243800D01*
X129790410Y-86243798D01*
X129786359Y-86240598D01*
X129771163Y-86232209D01*
X129734136Y-86211769D01*
X129590789Y-86132638D01*
X129585920Y-86130914D01*
X129585916Y-86130912D01*
X129385087Y-86059795D01*
X129385083Y-86059794D01*
X129380212Y-86058069D01*
X129375119Y-86057162D01*
X129375116Y-86057161D01*
X129165373Y-86019800D01*
X129165367Y-86019799D01*
X129160284Y-86018894D01*
X129086452Y-86017992D01*
X128942081Y-86016228D01*
X128942079Y-86016228D01*
X128936911Y-86016165D01*
X128716091Y-86049955D01*
X128503756Y-86119357D01*
X128305607Y-86222507D01*
X128301474Y-86225610D01*
X128301471Y-86225612D01*
X128131100Y-86353530D01*
X128126965Y-86356635D01*
X128101541Y-86383240D01*
X127992256Y-86497600D01*
X127972629Y-86518138D01*
X127865201Y-86675621D01*
X127810293Y-86720621D01*
X127739768Y-86728792D01*
X127676021Y-86697538D01*
X127655324Y-86673054D01*
X127574822Y-86548617D01*
X127574820Y-86548614D01*
X127572014Y-86544277D01*
X127421670Y-86379051D01*
X127417619Y-86375852D01*
X127417615Y-86375848D01*
X127250414Y-86243800D01*
X127250410Y-86243798D01*
X127246359Y-86240598D01*
X127231163Y-86232209D01*
X127194136Y-86211769D01*
X127050789Y-86132638D01*
X127045920Y-86130914D01*
X127045916Y-86130912D01*
X126845087Y-86059795D01*
X126845083Y-86059794D01*
X126840212Y-86058069D01*
X126835119Y-86057162D01*
X126835116Y-86057161D01*
X126625373Y-86019800D01*
X126625367Y-86019799D01*
X126620284Y-86018894D01*
X126546452Y-86017992D01*
X126402081Y-86016228D01*
X126402079Y-86016228D01*
X126396911Y-86016165D01*
X126176091Y-86049955D01*
X125963756Y-86119357D01*
X125765607Y-86222507D01*
X125761474Y-86225610D01*
X125761471Y-86225612D01*
X125591100Y-86353530D01*
X125586965Y-86356635D01*
X125561541Y-86383240D01*
X125452256Y-86497600D01*
X125432629Y-86518138D01*
X125325201Y-86675621D01*
X125270293Y-86720621D01*
X125199768Y-86728792D01*
X125136021Y-86697538D01*
X125115324Y-86673054D01*
X125034822Y-86548617D01*
X125034820Y-86548614D01*
X125032014Y-86544277D01*
X124881670Y-86379051D01*
X124877619Y-86375852D01*
X124877615Y-86375848D01*
X124710414Y-86243800D01*
X124710410Y-86243798D01*
X124706359Y-86240598D01*
X124691163Y-86232209D01*
X124654136Y-86211769D01*
X124510789Y-86132638D01*
X124505920Y-86130914D01*
X124505916Y-86130912D01*
X124305087Y-86059795D01*
X124305083Y-86059794D01*
X124300212Y-86058069D01*
X124295119Y-86057162D01*
X124295116Y-86057161D01*
X124085373Y-86019800D01*
X124085367Y-86019799D01*
X124080284Y-86018894D01*
X124006452Y-86017992D01*
X123862081Y-86016228D01*
X123862079Y-86016228D01*
X123856911Y-86016165D01*
X123636091Y-86049955D01*
X123423756Y-86119357D01*
X123225607Y-86222507D01*
X123221474Y-86225610D01*
X123221471Y-86225612D01*
X123051100Y-86353530D01*
X123046965Y-86356635D01*
X123021541Y-86383240D01*
X122912256Y-86497600D01*
X122892629Y-86518138D01*
X122785201Y-86675621D01*
X122730293Y-86720621D01*
X122659768Y-86728792D01*
X122596021Y-86697538D01*
X122575324Y-86673054D01*
X122494822Y-86548617D01*
X122494820Y-86548614D01*
X122492014Y-86544277D01*
X122341670Y-86379051D01*
X122337619Y-86375852D01*
X122337615Y-86375848D01*
X122170414Y-86243800D01*
X122170410Y-86243798D01*
X122166359Y-86240598D01*
X122151163Y-86232209D01*
X122114136Y-86211769D01*
X121970789Y-86132638D01*
X121965920Y-86130914D01*
X121965916Y-86130912D01*
X121765087Y-86059795D01*
X121765083Y-86059794D01*
X121760212Y-86058069D01*
X121755119Y-86057162D01*
X121755116Y-86057161D01*
X121545373Y-86019800D01*
X121545367Y-86019799D01*
X121540284Y-86018894D01*
X121466452Y-86017992D01*
X121322081Y-86016228D01*
X121322079Y-86016228D01*
X121316911Y-86016165D01*
X121096091Y-86049955D01*
X120883756Y-86119357D01*
X120685607Y-86222507D01*
X120681474Y-86225610D01*
X120681471Y-86225612D01*
X120511100Y-86353530D01*
X120506965Y-86356635D01*
X120481541Y-86383240D01*
X120372256Y-86497600D01*
X120352629Y-86518138D01*
X120349715Y-86522410D01*
X120349714Y-86522411D01*
X120348212Y-86524613D01*
X120245204Y-86675618D01*
X120244898Y-86676066D01*
X120189987Y-86721069D01*
X120119462Y-86729240D01*
X120055715Y-86697986D01*
X120035018Y-86673502D01*
X119954426Y-86548926D01*
X119948136Y-86540757D01*
X119804806Y-86383240D01*
X119797273Y-86376215D01*
X119630139Y-86244222D01*
X119621552Y-86238517D01*
X119435117Y-86135599D01*
X119425705Y-86131369D01*
X119224959Y-86060280D01*
X119214988Y-86057646D01*
X119143837Y-86044972D01*
X119130540Y-86046432D01*
X119126000Y-86060989D01*
X119126000Y-87504000D01*
X119105998Y-87572121D01*
X119052342Y-87618614D01*
X119000000Y-87630000D01*
X117555225Y-87630000D01*
X117541694Y-87633973D01*
X117540257Y-87643966D01*
X116332000Y-87643966D01*
X116332000Y-87110183D01*
X117536389Y-87110183D01*
X117537912Y-87118607D01*
X117550292Y-87122000D01*
X118599885Y-87122000D01*
X118615124Y-87117525D01*
X118616329Y-87116135D01*
X118618000Y-87108452D01*
X118618000Y-86059102D01*
X118614082Y-86045758D01*
X118599806Y-86043771D01*
X118561324Y-86049660D01*
X118551288Y-86052051D01*
X118348868Y-86118212D01*
X118339359Y-86122209D01*
X118150463Y-86220542D01*
X118141738Y-86226036D01*
X117971433Y-86353905D01*
X117963726Y-86360748D01*
X117816590Y-86514717D01*
X117810104Y-86522727D01*
X117690098Y-86698649D01*
X117685000Y-86707623D01*
X117595338Y-86900783D01*
X117591775Y-86910470D01*
X117536389Y-87110183D01*
X116332000Y-87110183D01*
X116332000Y-85470000D01*
X116352002Y-85401879D01*
X116405658Y-85355386D01*
X116458000Y-85344000D01*
X154263905Y-85344000D01*
X154332026Y-85364002D01*
G37*
%TD.AperFunction*%
%TD*%
M02*
