M48
; DRILL file {KiCad (6.0.0)} date Sun Jan  2 18:39:12 2022
; FORMAT={-:-/ absolute / metric / decimal}
; #@! TF.CreationDate,2022-01-02T18:39:12+01:00
; #@! TF.GenerationSoftware,Kicad,Pcbnew,(6.0.0)
; #@! TF.FileFunction,MixedPlating,1,2
FMAT,2
METRIC
; #@! TA.AperFunction,Plated,PTH,ViaDrill
T1C0.400
; #@! TA.AperFunction,Plated,PTH,ComponentDrill
T2C0.762
; #@! TA.AperFunction,Plated,PTH,ComponentDrill
T3C1.000
; #@! TA.AperFunction,Plated,PTH,ComponentDrill
T4C1.100
%
G90
G05
T1
X117.404Y-106.406
X117.856Y-96.012
X118.869Y-89.358
X119.404Y-106.406
X120.304Y-90.424
X121.404Y-106.406
X121.92Y-93.472
X123.404Y-106.406
X123.444Y-96.012
X123.952Y-110.236
X124.304Y-92.456
X125.476Y-104.14
X126.246Y-94.412
X127.508Y-100.076
X128.016Y-103.632
X129.54Y-100.076
X130.048Y-94.488
X130.556Y-99.568
X131.064Y-95.504
X132.588Y-89.916
X139.7Y-88.392
X142.24Y-91.948
X149.352Y-103.632
X149.352Y-104.648
X149.352Y-107.696
X149.352Y-108.712
X150.368Y-106.172
X152.67Y-88.138
X153.416Y-102.108
X154.432Y-107.696
X160.02Y-108.204
X164.1Y-94.488
X165.1Y-98.044
X169.672Y-105.664
X171.196Y-97.536
X172.212Y-87.376
T2
X136.652Y-95.25
X136.652Y-97.79
X136.652Y-100.33
X136.652Y-105.41
X141.732Y-95.25
X141.732Y-97.79
X141.732Y-100.33
X141.732Y-105.41
T3
X118.872Y-87.376
X121.412Y-87.376
X123.952Y-87.376
X126.492Y-87.376
X129.032Y-87.376
X131.572Y-87.376
T4
X175.768Y-87.348
X175.768Y-91.948
X175.768Y-96.548
X175.768Y-101.148
X175.768Y-105.636
X175.768Y-110.236
T0
M30
